%TF.GenerationSoftware,KiCad,Pcbnew,7.0.11-7.0.11~ubuntu22.04.1*%
%TF.CreationDate,2024-03-21T10:39:11+01:00*%
%TF.ProjectId,displayshield,64697370-6c61-4797-9368-69656c642e6b,rev?*%
%TF.SameCoordinates,Original*%
%TF.FileFunction,Soldermask,Bot*%
%TF.FilePolarity,Negative*%
%FSLAX46Y46*%
G04 Gerber Fmt 4.6, Leading zero omitted, Abs format (unit mm)*
G04 Created by KiCad (PCBNEW 7.0.11-7.0.11~ubuntu22.04.1) date 2024-03-21 10:39:11*
%MOMM*%
%LPD*%
G01*
G04 APERTURE LIST*
%ADD10R,2.600000X2.600000*%
%ADD11C,2.600000*%
%ADD12R,1.800000X1.800000*%
%ADD13C,1.800000*%
%ADD14C,1.440000*%
%ADD15R,2.000000X2.000000*%
%ADD16C,2.000000*%
%ADD17R,1.700000X1.700000*%
%ADD18O,1.700000X1.700000*%
G04 APERTURE END LIST*
D10*
%TO.C,J5*%
X138000000Y-105195947D03*
D11*
X141500000Y-105195947D03*
X145000000Y-105195947D03*
%TD*%
D12*
%TO.C,D1*%
X203152625Y-98000000D03*
D13*
X205692625Y-98000000D03*
%TD*%
D14*
%TO.C,RV1*%
X165857570Y-105854066D03*
X163317570Y-105854066D03*
X160777570Y-105854066D03*
%TD*%
D11*
%TO.C,J4*%
X131047520Y-105173195D03*
X127547520Y-105173195D03*
D10*
X124047520Y-105173195D03*
%TD*%
D15*
%TO.C,BZ1*%
X190092625Y-103000000D03*
D16*
X197692625Y-103000000D03*
%TD*%
%TO.C,SW1*%
X173607570Y-104307360D03*
X180107570Y-104307360D03*
X173607570Y-108807360D03*
X180107570Y-108807360D03*
%TD*%
D10*
%TO.C,J2*%
X115692625Y-62000000D03*
D11*
X115692625Y-65500000D03*
X115692625Y-69000000D03*
X115692625Y-72500000D03*
X115692625Y-76000000D03*
X115692625Y-79500000D03*
X115692625Y-83000000D03*
X115692625Y-86500000D03*
X115692625Y-90000000D03*
X115692625Y-93500000D03*
X115692625Y-97000000D03*
%TD*%
D10*
%TO.C,J3*%
X115692625Y-104000000D03*
D11*
X115692625Y-107500000D03*
%TD*%
D17*
%TO.C,J1*%
X128532625Y-61000000D03*
D18*
X131072625Y-61000000D03*
X133612625Y-61000000D03*
X136152625Y-61000000D03*
X138692625Y-61000000D03*
X141232625Y-61000000D03*
X143772625Y-61000000D03*
X146312625Y-61000000D03*
X148852625Y-61000000D03*
X151392625Y-61000000D03*
X153932625Y-61000000D03*
X156472625Y-61000000D03*
X159012625Y-61000000D03*
X161552625Y-61000000D03*
X164092625Y-61000000D03*
X166632625Y-61000000D03*
%TD*%
D17*
%TO.C,ADS1015*%
X204692625Y-69000000D03*
D18*
X204692625Y-71540000D03*
X204692625Y-74080000D03*
X204692625Y-76620000D03*
X204692625Y-79160000D03*
X204692625Y-81700000D03*
D17*
X217392625Y-69000000D03*
D18*
X217392625Y-71540000D03*
X217392625Y-74080000D03*
X217392625Y-76620000D03*
X217392625Y-79160000D03*
X217392625Y-81700000D03*
%TD*%
M02*
