%TF.GenerationSoftware,KiCad,Pcbnew,7.0.11-7.0.11~ubuntu22.04.1*%
%TF.CreationDate,2024-03-21T10:39:11+01:00*%
%TF.ProjectId,displayshield,64697370-6c61-4797-9368-69656c642e6b,rev?*%
%TF.SameCoordinates,Original*%
%TF.FileFunction,Copper,L2,Bot*%
%TF.FilePolarity,Positive*%
%FSLAX46Y46*%
G04 Gerber Fmt 4.6, Leading zero omitted, Abs format (unit mm)*
G04 Created by KiCad (PCBNEW 7.0.11-7.0.11~ubuntu22.04.1) date 2024-03-21 10:39:11*
%MOMM*%
%LPD*%
G01*
G04 APERTURE LIST*
%TA.AperFunction,ComponentPad*%
%ADD10R,2.600000X2.600000*%
%TD*%
%TA.AperFunction,ComponentPad*%
%ADD11C,2.600000*%
%TD*%
%TA.AperFunction,ComponentPad*%
%ADD12R,1.800000X1.800000*%
%TD*%
%TA.AperFunction,ComponentPad*%
%ADD13C,1.800000*%
%TD*%
%TA.AperFunction,ComponentPad*%
%ADD14C,1.440000*%
%TD*%
%TA.AperFunction,ComponentPad*%
%ADD15R,2.000000X2.000000*%
%TD*%
%TA.AperFunction,ComponentPad*%
%ADD16C,2.000000*%
%TD*%
%TA.AperFunction,ComponentPad*%
%ADD17R,1.700000X1.700000*%
%TD*%
%TA.AperFunction,ComponentPad*%
%ADD18O,1.700000X1.700000*%
%TD*%
%TA.AperFunction,ViaPad*%
%ADD19C,0.600000*%
%TD*%
%TA.AperFunction,ViaPad*%
%ADD20C,5.000000*%
%TD*%
%TA.AperFunction,Conductor*%
%ADD21C,0.200000*%
%TD*%
G04 APERTURE END LIST*
D10*
%TO.P,J5,1,Pin_1*%
%TO.N,Net-(ADS1015-A1)*%
X138000000Y-105195947D03*
D11*
%TO.P,J5,2,Pin_2*%
%TO.N,Net-(ADS1015-A2)*%
X141500000Y-105195947D03*
%TO.P,J5,3,Pin_3*%
%TO.N,Net-(ADS1015-A3)*%
X145000000Y-105195947D03*
%TD*%
D12*
%TO.P,D1,1,K*%
%TO.N,GND*%
X203152625Y-98000000D03*
D13*
%TO.P,D1,2,A*%
%TO.N,Net-(D1-A)*%
X205692625Y-98000000D03*
%TD*%
D14*
%TO.P,RV1,1,1*%
%TO.N,GND*%
X165857570Y-105854066D03*
%TO.P,RV1,2,2*%
%TO.N,Net-(J1-Pin_3)*%
X163317570Y-105854066D03*
%TO.P,RV1,3,3*%
%TO.N,+5V*%
X160777570Y-105854066D03*
%TD*%
D11*
%TO.P,J4,3,Pin_3*%
%TO.N,GND*%
X131047520Y-105173195D03*
%TO.P,J4,2,Pin_2*%
%TO.N,Net-(ADS1015-A0)*%
X127547520Y-105173195D03*
D10*
%TO.P,J4,1,Pin_1*%
%TO.N,+5V*%
X124047520Y-105173195D03*
%TD*%
D15*
%TO.P,BZ1,1,+*%
%TO.N,Net-(BZ1-+)*%
X190092625Y-103000000D03*
D16*
%TO.P,BZ1,2,-*%
%TO.N,GND*%
X197692625Y-103000000D03*
%TD*%
%TO.P,SW1,1,1*%
%TO.N,Net-(J2-Pin_9)*%
X173607570Y-104307360D03*
X180107570Y-104307360D03*
%TO.P,SW1,2,2*%
%TO.N,+5V*%
X173607570Y-108807360D03*
X180107570Y-108807360D03*
%TD*%
D10*
%TO.P,J2,1,Pin_1*%
%TO.N,GND*%
X115692625Y-62000000D03*
D11*
%TO.P,J2,2,Pin_2*%
%TO.N,+5V*%
X115692625Y-65500000D03*
%TO.P,J2,3,Pin_3*%
%TO.N,Net-(J1-Pin_11)*%
X115692625Y-69000000D03*
%TO.P,J2,4,Pin_4*%
%TO.N,Net-(J1-Pin_12)*%
X115692625Y-72500000D03*
%TO.P,J2,5,Pin_5*%
%TO.N,Net-(J1-Pin_13)*%
X115692625Y-76000000D03*
%TO.P,J2,6,Pin_6*%
%TO.N,Net-(J1-Pin_14)*%
X115692625Y-79500000D03*
%TO.P,J2,7,Pin_7*%
%TO.N,Net-(J1-Pin_6)*%
X115692625Y-83000000D03*
%TO.P,J2,8,Pin_8*%
%TO.N,Net-(J1-Pin_4)*%
X115692625Y-86500000D03*
%TO.P,J2,9,Pin_9*%
%TO.N,Net-(J2-Pin_9)*%
X115692625Y-90000000D03*
%TO.P,J2,10,Pin_10*%
%TO.N,Net-(BZ1-+)*%
X115692625Y-93500000D03*
%TO.P,J2,11,Pin_11*%
%TO.N,Net-(J2-Pin_11)*%
X115692625Y-97000000D03*
%TD*%
D10*
%TO.P,J3,1,Pin_1*%
%TO.N,Net-(ADS1015-SCL)*%
X115692625Y-104000000D03*
D11*
%TO.P,J3,2,Pin_2*%
%TO.N,Net-(ADS1015-SDA)*%
X115692625Y-107500000D03*
%TD*%
D17*
%TO.P,J1,1,Pin_1*%
%TO.N,GND*%
X128532625Y-61000000D03*
D18*
%TO.P,J1,2,Pin_2*%
%TO.N,+5V*%
X131072625Y-61000000D03*
%TO.P,J1,3,Pin_3*%
%TO.N,Net-(J1-Pin_3)*%
X133612625Y-61000000D03*
%TO.P,J1,4,Pin_4*%
%TO.N,Net-(J1-Pin_4)*%
X136152625Y-61000000D03*
%TO.P,J1,5,Pin_5*%
%TO.N,GND*%
X138692625Y-61000000D03*
%TO.P,J1,6,Pin_6*%
%TO.N,Net-(J1-Pin_6)*%
X141232625Y-61000000D03*
%TO.P,J1,7,Pin_7*%
%TO.N,GND*%
X143772625Y-61000000D03*
%TO.P,J1,8,Pin_8*%
X146312625Y-61000000D03*
%TO.P,J1,9,Pin_9*%
X148852625Y-61000000D03*
%TO.P,J1,10,Pin_10*%
X151392625Y-61000000D03*
%TO.P,J1,11,Pin_11*%
%TO.N,Net-(J1-Pin_11)*%
X153932625Y-61000000D03*
%TO.P,J1,12,Pin_12*%
%TO.N,Net-(J1-Pin_12)*%
X156472625Y-61000000D03*
%TO.P,J1,13,Pin_13*%
%TO.N,Net-(J1-Pin_13)*%
X159012625Y-61000000D03*
%TO.P,J1,14,Pin_14*%
%TO.N,Net-(J1-Pin_14)*%
X161552625Y-61000000D03*
%TO.P,J1,15,Pin_15*%
%TO.N,Net-(J1-Pin_15)*%
X164092625Y-61000000D03*
%TO.P,J1,16,Pin_16*%
%TO.N,GND*%
X166632625Y-61000000D03*
%TD*%
D17*
%TO.P,ADS1015,1,VIN*%
%TO.N,+5V*%
X204692625Y-69000000D03*
D18*
%TO.P,ADS1015,2,GND*%
%TO.N,GND*%
X204692625Y-71540000D03*
%TO.P,ADS1015,3,SCL*%
%TO.N,Net-(ADS1015-SCL)*%
X204692625Y-74080000D03*
%TO.P,ADS1015,4,SDA*%
%TO.N,Net-(ADS1015-SDA)*%
X204692625Y-76620000D03*
%TO.P,ADS1015,5,ADDR*%
%TO.N,unconnected-(ADS1015-ADDR-Pad5)*%
X204692625Y-79160000D03*
%TO.P,ADS1015,6,ALRT*%
%TO.N,unconnected-(ADS1015-ALRT-Pad6)*%
X204692625Y-81700000D03*
D17*
%TO.P,ADS1015,7,A+*%
%TO.N,unconnected-(ADS1015-A+-Pad7)*%
X217392625Y-69000000D03*
D18*
%TO.P,ADS1015,8,A3*%
%TO.N,Net-(ADS1015-A3)*%
X217392625Y-71540000D03*
%TO.P,ADS1015,9,A2*%
%TO.N,Net-(ADS1015-A2)*%
X217392625Y-74080000D03*
%TO.P,ADS1015,10,A1*%
%TO.N,Net-(ADS1015-A1)*%
X217392625Y-76620000D03*
%TO.P,ADS1015,11,A0*%
%TO.N,Net-(ADS1015-A0)*%
X217392625Y-79160000D03*
%TO.P,ADS1015,12,A-*%
%TO.N,unconnected-(ADS1015-A--Pad12)*%
X217392625Y-81700000D03*
%TD*%
D19*
%TO.N,Net-(J1-Pin_3)*%
X155500000Y-109500000D03*
D20*
%TO.N,*%
X222000000Y-60000000D03*
X107000000Y-112000000D03*
X222000000Y-112000000D03*
X107000000Y-60000000D03*
%TD*%
D21*
%TO.N,Net-(J1-Pin_3)*%
X155500000Y-109500000D02*
X155689138Y-109500000D01*
X155689138Y-109500000D02*
X160355072Y-104834066D01*
X160355072Y-104834066D02*
X162297570Y-104834066D01*
X162297570Y-104834066D02*
X163317570Y-105854066D01*
%TO.N,+5V*%
X204692625Y-69000000D02*
X203542625Y-70150000D01*
X219800000Y-67234314D02*
X218365686Y-65800000D01*
X203542625Y-70150000D02*
X203542625Y-72016346D01*
X203000000Y-65800000D02*
X202700000Y-65500000D01*
X203542625Y-72016346D02*
X204216279Y-72690000D01*
X204216279Y-72690000D02*
X209296279Y-72690000D01*
X209296279Y-72690000D02*
X216916279Y-80310000D01*
X218365686Y-65800000D02*
X203000000Y-65800000D01*
X216916279Y-80310000D02*
X217868971Y-80310000D01*
X217868971Y-80310000D02*
X219800000Y-78378971D01*
X219800000Y-78378971D02*
X219800000Y-67234314D01*
X202700000Y-65500000D02*
X115692625Y-65500000D01*
%TO.N,Net-(ADS1015-A0)*%
X217392625Y-79160000D02*
X219400000Y-77152625D01*
X219400000Y-77152625D02*
X219400000Y-67400000D01*
X219400000Y-67400000D02*
X218200000Y-66200000D01*
X218200000Y-66200000D02*
X202800000Y-66200000D01*
X200932097Y-68067903D02*
X200932097Y-69932098D01*
X200932097Y-69932098D02*
X169283569Y-101580626D01*
X202800000Y-66200000D02*
X200932097Y-68067903D01*
X169283569Y-101580626D02*
X131140089Y-101580626D01*
X131140089Y-101580626D02*
X127547520Y-105173195D01*
%TO.N,Net-(ADS1015-A1)*%
X138000000Y-105195947D02*
X141215321Y-101980626D01*
X141215321Y-101980626D02*
X169449255Y-101980626D01*
X169449255Y-101980626D02*
X201480627Y-69949254D01*
X203095569Y-66600000D02*
X217858311Y-66600000D01*
X201480627Y-69949254D02*
X201480627Y-68214941D01*
X201480627Y-68214941D02*
X203095569Y-66600000D01*
X217858311Y-66600000D02*
X219000000Y-67741689D01*
X219000000Y-67741689D02*
X219000000Y-75012625D01*
X219000000Y-75012625D02*
X217392625Y-76620000D01*
%TO.N,Net-(ADS1015-A2)*%
X217392625Y-74080000D02*
X218542625Y-72930000D01*
X201880627Y-68380627D02*
X201880627Y-70114940D01*
X218542625Y-72930000D02*
X218542625Y-67850000D01*
X218542625Y-67850000D02*
X217692625Y-67000000D01*
X217692625Y-67000000D02*
X203261254Y-67000000D01*
X203261254Y-67000000D02*
X201880627Y-68380627D01*
X201880627Y-70114940D02*
X169614941Y-102380626D01*
X169614941Y-102380626D02*
X144315321Y-102380626D01*
X144315321Y-102380626D02*
X141500000Y-105195947D01*
%TO.N,Net-(ADS1015-A3)*%
X145000000Y-105195947D02*
X147415321Y-102780626D01*
X147415321Y-102780626D02*
X169780627Y-102780626D01*
X169780627Y-102780626D02*
X202280627Y-70280626D01*
X202280627Y-70280626D02*
X202280627Y-68546313D01*
X202280627Y-68546313D02*
X203376940Y-67450000D01*
X203376940Y-67450000D02*
X213302625Y-67450000D01*
X213302625Y-67450000D02*
X217392625Y-71540000D01*
%TO.N,+5V*%
X173607570Y-108807360D02*
X163730864Y-108807360D01*
X163730864Y-108807360D02*
X160777570Y-105854066D01*
X180107570Y-108807360D02*
X173607570Y-108807360D01*
X204692625Y-69000000D02*
X181407570Y-92285055D01*
X181407570Y-92285055D02*
X181407570Y-107507360D01*
X181407570Y-107507360D02*
X180107570Y-108807360D01*
X115692625Y-65500000D02*
X124047520Y-73854895D01*
X124047520Y-73854895D02*
X124047520Y-105173195D01*
%TO.N,Net-(J1-Pin_4)*%
X136152625Y-61000000D02*
X134752625Y-59600000D01*
X134752625Y-59600000D02*
X114326939Y-59600000D01*
X114326939Y-59600000D02*
X113692625Y-60234315D01*
X113692625Y-60234315D02*
X113692625Y-84500000D01*
X113692625Y-84500000D02*
X115692625Y-86500000D01*
%TO.N,Net-(J1-Pin_6)*%
X121150000Y-62150000D02*
X119000000Y-60000000D01*
X140082625Y-62150000D02*
X121150000Y-62150000D01*
X141232625Y-61000000D02*
X140082625Y-62150000D01*
X119000000Y-60000000D02*
X114492625Y-60000000D01*
X114492625Y-60000000D02*
X114092625Y-60400000D01*
X114092625Y-60400000D02*
X114092625Y-81400000D01*
X114092625Y-81400000D02*
X115692625Y-83000000D01*
%TO.N,+5V*%
X123173195Y-105173195D02*
X124047520Y-105173195D01*
%TO.N,Net-(J1-Pin_6)*%
X116000000Y-83000000D02*
X115692625Y-83000000D01*
%TD*%
%TA.AperFunction,Conductor*%
%TO.N,GND*%
G36*
X213069567Y-68070185D02*
G01*
X213090209Y-68086819D01*
X216059858Y-71056469D01*
X216093343Y-71117792D01*
X216091952Y-71176243D01*
X216057563Y-71304586D01*
X216057561Y-71304596D01*
X216036966Y-71539999D01*
X216036966Y-71540000D01*
X216057561Y-71775403D01*
X216057563Y-71775413D01*
X216118719Y-72003655D01*
X216118721Y-72003659D01*
X216118722Y-72003663D01*
X216165956Y-72104956D01*
X216218590Y-72217830D01*
X216218592Y-72217834D01*
X216354126Y-72411395D01*
X216354131Y-72411402D01*
X216521222Y-72578493D01*
X216521228Y-72578498D01*
X216706783Y-72708425D01*
X216750408Y-72763002D01*
X216757602Y-72832500D01*
X216726079Y-72894855D01*
X216706783Y-72911575D01*
X216521222Y-73041505D01*
X216354130Y-73208597D01*
X216218590Y-73402169D01*
X216218589Y-73402171D01*
X216118723Y-73616335D01*
X216118719Y-73616344D01*
X216057563Y-73844586D01*
X216057561Y-73844596D01*
X216036966Y-74079999D01*
X216036966Y-74080000D01*
X216057561Y-74315403D01*
X216057563Y-74315413D01*
X216118719Y-74543655D01*
X216118721Y-74543659D01*
X216118722Y-74543663D01*
X216139567Y-74588365D01*
X216218590Y-74757830D01*
X216218592Y-74757834D01*
X216354126Y-74951395D01*
X216354131Y-74951402D01*
X216521222Y-75118493D01*
X216521228Y-75118498D01*
X216706783Y-75248425D01*
X216750408Y-75303002D01*
X216757602Y-75372500D01*
X216726079Y-75434855D01*
X216706783Y-75451575D01*
X216521222Y-75581505D01*
X216354130Y-75748597D01*
X216218590Y-75942169D01*
X216218589Y-75942171D01*
X216118723Y-76156335D01*
X216118719Y-76156344D01*
X216057563Y-76384586D01*
X216057561Y-76384596D01*
X216036966Y-76619999D01*
X216036966Y-76620000D01*
X216057561Y-76855403D01*
X216057563Y-76855413D01*
X216118719Y-77083655D01*
X216118721Y-77083659D01*
X216118722Y-77083663D01*
X216186067Y-77228085D01*
X216218590Y-77297830D01*
X216218592Y-77297834D01*
X216354126Y-77491395D01*
X216354131Y-77491402D01*
X216521222Y-77658493D01*
X216521228Y-77658498D01*
X216706783Y-77788425D01*
X216750408Y-77843002D01*
X216757602Y-77912500D01*
X216726079Y-77974855D01*
X216706783Y-77991575D01*
X216521222Y-78121505D01*
X216354130Y-78288597D01*
X216218590Y-78482169D01*
X216218589Y-78482171D01*
X216204099Y-78513246D01*
X216157926Y-78565685D01*
X216090732Y-78584837D01*
X216023851Y-78564621D01*
X216004036Y-78548522D01*
X209754478Y-72298964D01*
X209743782Y-72286767D01*
X209724565Y-72261722D01*
X209724562Y-72261720D01*
X209724561Y-72261718D01*
X209599120Y-72165464D01*
X209453041Y-72104956D01*
X209453039Y-72104955D01*
X209335640Y-72089500D01*
X209296279Y-72084318D01*
X209264976Y-72088439D01*
X209248792Y-72089500D01*
X206104610Y-72089500D01*
X206037571Y-72069815D01*
X205991816Y-72017011D01*
X205981872Y-71947853D01*
X205984835Y-71933406D01*
X206023261Y-71790000D01*
X205126311Y-71790000D01*
X205152118Y-71749844D01*
X205192625Y-71611889D01*
X205192625Y-71468111D01*
X205152118Y-71330156D01*
X205126311Y-71290000D01*
X206023261Y-71290000D01*
X206023260Y-71289999D01*
X205966057Y-71076513D01*
X205966054Y-71076507D01*
X205866225Y-70862422D01*
X205866224Y-70862420D01*
X205730738Y-70668926D01*
X205730733Y-70668920D01*
X205608678Y-70546865D01*
X205575193Y-70485542D01*
X205580177Y-70415850D01*
X205622049Y-70359917D01*
X205653025Y-70343002D01*
X205784956Y-70293796D01*
X205900171Y-70207546D01*
X205986421Y-70092331D01*
X206036716Y-69957483D01*
X206043125Y-69897873D01*
X206043124Y-68174499D01*
X206062809Y-68107461D01*
X206115612Y-68061706D01*
X206167124Y-68050500D01*
X213002528Y-68050500D01*
X213069567Y-68070185D01*
G37*
%TD.AperFunction*%
%TA.AperFunction,Conductor*%
G36*
X127125664Y-60220185D02*
G01*
X127171419Y-60272989D01*
X127182625Y-60324500D01*
X127182625Y-60750000D01*
X128098939Y-60750000D01*
X128073132Y-60790156D01*
X128032625Y-60928111D01*
X128032625Y-61071889D01*
X128073132Y-61209844D01*
X128098939Y-61250000D01*
X127182625Y-61250000D01*
X127182625Y-61425500D01*
X127162940Y-61492539D01*
X127110136Y-61538294D01*
X127058625Y-61549500D01*
X121450097Y-61549500D01*
X121383058Y-61529815D01*
X121362416Y-61513181D01*
X120261416Y-60412181D01*
X120227931Y-60350858D01*
X120232915Y-60281166D01*
X120274787Y-60225233D01*
X120340251Y-60200816D01*
X120349097Y-60200500D01*
X127058625Y-60200500D01*
X127125664Y-60220185D01*
G37*
%TD.AperFunction*%
%TA.AperFunction,Conductor*%
G36*
X145853132Y-60790156D02*
G01*
X145812625Y-60928111D01*
X145812625Y-61071889D01*
X145853132Y-61209844D01*
X145878939Y-61250000D01*
X144206311Y-61250000D01*
X144232118Y-61209844D01*
X144272625Y-61071889D01*
X144272625Y-60928111D01*
X144232118Y-60790156D01*
X144206311Y-60750000D01*
X145878939Y-60750000D01*
X145853132Y-60790156D01*
G37*
%TD.AperFunction*%
%TA.AperFunction,Conductor*%
G36*
X148393132Y-60790156D02*
G01*
X148352625Y-60928111D01*
X148352625Y-61071889D01*
X148393132Y-61209844D01*
X148418939Y-61250000D01*
X146746311Y-61250000D01*
X146772118Y-61209844D01*
X146812625Y-61071889D01*
X146812625Y-60928111D01*
X146772118Y-60790156D01*
X146746311Y-60750000D01*
X148418939Y-60750000D01*
X148393132Y-60790156D01*
G37*
%TD.AperFunction*%
%TA.AperFunction,Conductor*%
G36*
X150933132Y-60790156D02*
G01*
X150892625Y-60928111D01*
X150892625Y-61071889D01*
X150933132Y-61209844D01*
X150958939Y-61250000D01*
X149286311Y-61250000D01*
X149312118Y-61209844D01*
X149352625Y-61071889D01*
X149352625Y-60928111D01*
X149312118Y-60790156D01*
X149286311Y-60750000D01*
X150958939Y-60750000D01*
X150933132Y-60790156D01*
G37*
%TD.AperFunction*%
%TA.AperFunction,Conductor*%
G36*
X223003736Y-56500726D02*
G01*
X223293796Y-56518271D01*
X223308659Y-56520076D01*
X223590798Y-56571780D01*
X223605335Y-56575363D01*
X223879172Y-56660695D01*
X223893163Y-56666000D01*
X224154743Y-56783727D01*
X224167989Y-56790680D01*
X224413465Y-56939075D01*
X224425776Y-56947573D01*
X224646733Y-57120681D01*
X224651573Y-57124473D01*
X224662781Y-57134403D01*
X224865596Y-57337218D01*
X224875526Y-57348426D01*
X224913650Y-57397088D01*
X224995481Y-57501538D01*
X225052422Y-57574217D01*
X225060928Y-57586540D01*
X225209316Y-57832004D01*
X225216275Y-57845263D01*
X225333997Y-58106831D01*
X225339306Y-58120832D01*
X225424635Y-58394663D01*
X225428219Y-58409201D01*
X225479923Y-58691340D01*
X225481728Y-58706205D01*
X225499274Y-58996263D01*
X225499500Y-59003750D01*
X225499500Y-112996249D01*
X225499274Y-113003736D01*
X225481728Y-113293794D01*
X225479923Y-113308659D01*
X225428219Y-113590798D01*
X225424635Y-113605336D01*
X225339306Y-113879167D01*
X225333997Y-113893168D01*
X225216275Y-114154736D01*
X225209316Y-114167995D01*
X225060928Y-114413459D01*
X225052422Y-114425782D01*
X224875526Y-114651573D01*
X224865596Y-114662781D01*
X224662781Y-114865596D01*
X224651573Y-114875526D01*
X224425782Y-115052422D01*
X224413459Y-115060928D01*
X224167995Y-115209316D01*
X224154736Y-115216275D01*
X223893168Y-115333997D01*
X223879167Y-115339306D01*
X223605336Y-115424635D01*
X223590798Y-115428219D01*
X223308659Y-115479923D01*
X223293794Y-115481728D01*
X223003736Y-115499274D01*
X222996249Y-115499500D01*
X106003751Y-115499500D01*
X105996264Y-115499274D01*
X105706205Y-115481728D01*
X105691340Y-115479923D01*
X105409201Y-115428219D01*
X105394663Y-115424635D01*
X105120832Y-115339306D01*
X105106831Y-115333997D01*
X104845263Y-115216275D01*
X104832004Y-115209316D01*
X104586540Y-115060928D01*
X104574217Y-115052422D01*
X104507943Y-115000500D01*
X104348426Y-114875526D01*
X104337218Y-114865596D01*
X104134403Y-114662781D01*
X104124473Y-114651573D01*
X104086349Y-114602911D01*
X103947573Y-114425776D01*
X103939075Y-114413465D01*
X103790680Y-114167989D01*
X103783727Y-114154743D01*
X103666000Y-113893163D01*
X103660693Y-113879167D01*
X103589779Y-113651597D01*
X103575363Y-113605335D01*
X103571780Y-113590798D01*
X103520076Y-113308659D01*
X103518271Y-113293794D01*
X103500726Y-113003736D01*
X103500500Y-112996249D01*
X103500500Y-112000003D01*
X103994415Y-112000003D01*
X104014738Y-112348927D01*
X104014739Y-112348938D01*
X104075428Y-112693127D01*
X104075430Y-112693134D01*
X104175674Y-113027972D01*
X104314107Y-113348895D01*
X104314113Y-113348908D01*
X104488870Y-113651597D01*
X104697584Y-113931949D01*
X104697589Y-113931955D01*
X104821463Y-114063253D01*
X104937442Y-114186183D01*
X105113903Y-114334251D01*
X105205186Y-114410847D01*
X105205194Y-114410853D01*
X105497203Y-114602911D01*
X105497207Y-114602913D01*
X105809549Y-114759777D01*
X106137989Y-114879319D01*
X106478086Y-114959923D01*
X106825241Y-115000500D01*
X106825248Y-115000500D01*
X107174752Y-115000500D01*
X107174759Y-115000500D01*
X107521914Y-114959923D01*
X107862011Y-114879319D01*
X108190451Y-114759777D01*
X108502793Y-114602913D01*
X108794811Y-114410849D01*
X109062558Y-114186183D01*
X109302412Y-113931953D01*
X109511130Y-113651596D01*
X109685889Y-113348904D01*
X109824326Y-113027971D01*
X109924569Y-112693136D01*
X109985262Y-112348927D01*
X110005585Y-112000003D01*
X218994415Y-112000003D01*
X219014738Y-112348927D01*
X219014739Y-112348938D01*
X219075428Y-112693127D01*
X219075430Y-112693134D01*
X219175674Y-113027972D01*
X219314107Y-113348895D01*
X219314113Y-113348908D01*
X219488870Y-113651597D01*
X219697584Y-113931949D01*
X219697589Y-113931955D01*
X219821463Y-114063253D01*
X219937442Y-114186183D01*
X220113903Y-114334251D01*
X220205186Y-114410847D01*
X220205194Y-114410853D01*
X220497203Y-114602911D01*
X220497207Y-114602913D01*
X220809549Y-114759777D01*
X221137989Y-114879319D01*
X221478086Y-114959923D01*
X221825241Y-115000500D01*
X221825248Y-115000500D01*
X222174752Y-115000500D01*
X222174759Y-115000500D01*
X222521914Y-114959923D01*
X222862011Y-114879319D01*
X223190451Y-114759777D01*
X223502793Y-114602913D01*
X223794811Y-114410849D01*
X224062558Y-114186183D01*
X224302412Y-113931953D01*
X224511130Y-113651596D01*
X224685889Y-113348904D01*
X224824326Y-113027971D01*
X224924569Y-112693136D01*
X224985262Y-112348927D01*
X225005585Y-112000000D01*
X224985262Y-111651073D01*
X224985260Y-111651061D01*
X224924571Y-111306872D01*
X224924569Y-111306865D01*
X224824325Y-110972027D01*
X224685892Y-110651104D01*
X224685889Y-110651096D01*
X224511130Y-110348404D01*
X224511129Y-110348402D01*
X224302415Y-110068050D01*
X224302410Y-110068044D01*
X224158112Y-109915098D01*
X224062558Y-109813817D01*
X223902186Y-109679249D01*
X223794813Y-109589152D01*
X223794805Y-109589146D01*
X223502796Y-109397088D01*
X223190458Y-109240226D01*
X223190452Y-109240223D01*
X222862012Y-109120681D01*
X222862009Y-109120680D01*
X222521915Y-109040077D01*
X222478519Y-109035004D01*
X222174759Y-108999500D01*
X221825241Y-108999500D01*
X221521480Y-109035004D01*
X221478085Y-109040077D01*
X221478083Y-109040077D01*
X221137990Y-109120680D01*
X221137987Y-109120681D01*
X220809547Y-109240223D01*
X220809541Y-109240226D01*
X220497203Y-109397088D01*
X220205194Y-109589146D01*
X220205186Y-109589152D01*
X219937442Y-109813817D01*
X219937440Y-109813819D01*
X219697589Y-110068044D01*
X219697584Y-110068050D01*
X219488870Y-110348402D01*
X219314113Y-110651091D01*
X219314107Y-110651104D01*
X219175674Y-110972027D01*
X219075430Y-111306865D01*
X219075428Y-111306872D01*
X219014739Y-111651061D01*
X219014738Y-111651072D01*
X218994415Y-111999996D01*
X218994415Y-112000003D01*
X110005585Y-112000003D01*
X110005585Y-112000000D01*
X109985262Y-111651073D01*
X109985260Y-111651061D01*
X109924571Y-111306872D01*
X109924569Y-111306865D01*
X109824325Y-110972027D01*
X109685892Y-110651104D01*
X109685889Y-110651096D01*
X109511130Y-110348404D01*
X109511129Y-110348402D01*
X109302415Y-110068050D01*
X109302410Y-110068044D01*
X109158112Y-109915098D01*
X109062558Y-109813817D01*
X108902186Y-109679249D01*
X108794813Y-109589152D01*
X108794805Y-109589146D01*
X108502796Y-109397088D01*
X108190458Y-109240226D01*
X108190452Y-109240223D01*
X107862012Y-109120681D01*
X107862009Y-109120680D01*
X107521915Y-109040077D01*
X107478519Y-109035004D01*
X107174759Y-108999500D01*
X106825241Y-108999500D01*
X106521480Y-109035004D01*
X106478085Y-109040077D01*
X106478083Y-109040077D01*
X106137990Y-109120680D01*
X106137987Y-109120681D01*
X105809547Y-109240223D01*
X105809541Y-109240226D01*
X105497203Y-109397088D01*
X105205194Y-109589146D01*
X105205186Y-109589152D01*
X104937442Y-109813817D01*
X104937440Y-109813819D01*
X104697589Y-110068044D01*
X104697584Y-110068050D01*
X104488870Y-110348402D01*
X104314113Y-110651091D01*
X104314107Y-110651104D01*
X104175674Y-110972027D01*
X104075430Y-111306865D01*
X104075428Y-111306872D01*
X104014739Y-111651061D01*
X104014738Y-111651072D01*
X103994415Y-111999996D01*
X103994415Y-112000003D01*
X103500500Y-112000003D01*
X103500500Y-107500004D01*
X113887076Y-107500004D01*
X113907241Y-107769101D01*
X113967289Y-108032188D01*
X113967291Y-108032195D01*
X114052137Y-108248378D01*
X114065882Y-108283398D01*
X114200810Y-108517102D01*
X114234653Y-108559539D01*
X114369067Y-108728089D01*
X114522210Y-108870184D01*
X114566884Y-108911635D01*
X114789851Y-109063651D01*
X115032984Y-109180738D01*
X115290853Y-109260280D01*
X115290854Y-109260280D01*
X115290857Y-109260281D01*
X115557688Y-109300499D01*
X115557693Y-109300499D01*
X115557696Y-109300500D01*
X115557697Y-109300500D01*
X115827553Y-109300500D01*
X115827554Y-109300500D01*
X115855811Y-109296241D01*
X116094392Y-109260281D01*
X116094393Y-109260280D01*
X116094397Y-109260280D01*
X116352266Y-109180738D01*
X116595400Y-109063651D01*
X116818366Y-108911635D01*
X117016186Y-108728085D01*
X117184440Y-108517102D01*
X117319368Y-108283398D01*
X117417959Y-108032195D01*
X117478008Y-107769103D01*
X117485875Y-107664120D01*
X117498174Y-107500004D01*
X117498174Y-107499995D01*
X117478008Y-107230898D01*
X117472613Y-107207261D01*
X117417959Y-106967805D01*
X117319368Y-106716602D01*
X117184440Y-106482898D01*
X117016186Y-106271915D01*
X117016185Y-106271914D01*
X117016182Y-106271910D01*
X116818366Y-106088365D01*
X116786630Y-106066728D01*
X116728288Y-106026950D01*
X116683988Y-105972924D01*
X116675929Y-105903521D01*
X116706672Y-105840778D01*
X116766456Y-105804616D01*
X116798142Y-105800499D01*
X117040496Y-105800499D01*
X117040497Y-105800499D01*
X117100108Y-105794091D01*
X117234956Y-105743796D01*
X117350171Y-105657546D01*
X117436421Y-105542331D01*
X117486716Y-105407483D01*
X117493125Y-105347873D01*
X117493124Y-102652128D01*
X117486716Y-102592517D01*
X117483524Y-102583960D01*
X117436422Y-102457671D01*
X117436418Y-102457664D01*
X117350172Y-102342455D01*
X117350169Y-102342452D01*
X117234960Y-102256206D01*
X117234953Y-102256202D01*
X117100107Y-102205908D01*
X117100108Y-102205908D01*
X117040508Y-102199501D01*
X117040506Y-102199500D01*
X117040498Y-102199500D01*
X117040489Y-102199500D01*
X114344754Y-102199500D01*
X114344748Y-102199501D01*
X114285141Y-102205908D01*
X114150296Y-102256202D01*
X114150289Y-102256206D01*
X114035080Y-102342452D01*
X114035077Y-102342455D01*
X113948831Y-102457664D01*
X113948827Y-102457671D01*
X113898533Y-102592517D01*
X113892126Y-102652116D01*
X113892126Y-102652123D01*
X113892125Y-102652135D01*
X113892125Y-105347870D01*
X113892126Y-105347876D01*
X113898533Y-105407483D01*
X113948827Y-105542328D01*
X113948831Y-105542335D01*
X114035077Y-105657544D01*
X114035080Y-105657547D01*
X114150289Y-105743793D01*
X114150296Y-105743797D01*
X114195243Y-105760561D01*
X114285142Y-105794091D01*
X114344752Y-105800500D01*
X114587108Y-105800499D01*
X114654146Y-105820183D01*
X114699901Y-105872987D01*
X114709845Y-105942146D01*
X114680820Y-106005701D01*
X114656959Y-106026952D01*
X114566887Y-106088362D01*
X114369067Y-106271910D01*
X114200810Y-106482898D01*
X114065883Y-106716599D01*
X114065881Y-106716603D01*
X113967291Y-106967804D01*
X113967289Y-106967811D01*
X113907241Y-107230898D01*
X113887076Y-107499995D01*
X113887076Y-107500004D01*
X103500500Y-107500004D01*
X103500500Y-84500000D01*
X113086943Y-84500000D01*
X113092125Y-84539360D01*
X113092125Y-84539361D01*
X113107580Y-84656760D01*
X113107581Y-84656762D01*
X113146201Y-84750000D01*
X113168089Y-84802841D01*
X113223554Y-84875124D01*
X113264344Y-84928283D01*
X113289394Y-84947504D01*
X113301589Y-84958199D01*
X114006813Y-85663423D01*
X114040298Y-85724746D01*
X114035314Y-85794438D01*
X114034560Y-85796406D01*
X113967292Y-85967804D01*
X113967288Y-85967816D01*
X113907241Y-86230898D01*
X113887076Y-86499995D01*
X113887076Y-86500004D01*
X113907241Y-86769101D01*
X113967289Y-87032188D01*
X113967291Y-87032195D01*
X114065882Y-87283398D01*
X114200810Y-87517102D01*
X114336705Y-87687509D01*
X114369067Y-87728089D01*
X114555808Y-87901358D01*
X114566884Y-87911635D01*
X114789851Y-88063651D01*
X114789854Y-88063652D01*
X114789855Y-88063653D01*
X114944819Y-88138280D01*
X114996678Y-88185103D01*
X115014991Y-88252530D01*
X114993943Y-88319154D01*
X114944819Y-88361720D01*
X114789855Y-88436346D01*
X114566883Y-88588365D01*
X114369067Y-88771910D01*
X114200810Y-88982898D01*
X114065883Y-89216599D01*
X114065881Y-89216603D01*
X113967291Y-89467804D01*
X113967289Y-89467811D01*
X113907241Y-89730898D01*
X113887076Y-89999995D01*
X113887076Y-90000004D01*
X113907241Y-90269101D01*
X113967289Y-90532188D01*
X113967291Y-90532195D01*
X114065882Y-90783398D01*
X114200810Y-91017102D01*
X114336705Y-91187509D01*
X114369067Y-91228089D01*
X114555808Y-91401358D01*
X114566884Y-91411635D01*
X114789851Y-91563651D01*
X114789854Y-91563652D01*
X114789855Y-91563653D01*
X114944819Y-91638280D01*
X114996678Y-91685103D01*
X115014991Y-91752530D01*
X114993943Y-91819154D01*
X114944819Y-91861720D01*
X114789855Y-91936346D01*
X114566883Y-92088365D01*
X114369067Y-92271910D01*
X114200810Y-92482898D01*
X114065883Y-92716599D01*
X114065881Y-92716603D01*
X113967291Y-92967804D01*
X113967289Y-92967811D01*
X113907241Y-93230898D01*
X113887076Y-93499995D01*
X113887076Y-93500004D01*
X113907241Y-93769101D01*
X113967289Y-94032188D01*
X113967291Y-94032195D01*
X114065882Y-94283398D01*
X114200810Y-94517102D01*
X114336705Y-94687509D01*
X114369067Y-94728089D01*
X114555808Y-94901358D01*
X114566884Y-94911635D01*
X114789851Y-95063651D01*
X114789854Y-95063652D01*
X114789855Y-95063653D01*
X114944819Y-95138280D01*
X114996678Y-95185103D01*
X115014991Y-95252530D01*
X114993943Y-95319154D01*
X114944819Y-95361720D01*
X114789855Y-95436346D01*
X114566883Y-95588365D01*
X114369067Y-95771910D01*
X114200810Y-95982898D01*
X114065883Y-96216599D01*
X114065881Y-96216603D01*
X113967291Y-96467804D01*
X113967289Y-96467811D01*
X113907241Y-96730898D01*
X113887076Y-96999995D01*
X113887076Y-97000004D01*
X113907241Y-97269101D01*
X113967289Y-97532188D01*
X113967291Y-97532195D01*
X114019963Y-97666401D01*
X114065882Y-97783398D01*
X114200810Y-98017102D01*
X114267928Y-98101265D01*
X114369067Y-98228089D01*
X114482781Y-98333599D01*
X114566884Y-98411635D01*
X114789851Y-98563651D01*
X115032984Y-98680738D01*
X115290853Y-98760280D01*
X115290854Y-98760280D01*
X115290857Y-98760281D01*
X115557688Y-98800499D01*
X115557693Y-98800499D01*
X115557696Y-98800500D01*
X115557697Y-98800500D01*
X115827553Y-98800500D01*
X115827554Y-98800500D01*
X115827561Y-98800499D01*
X116094392Y-98760281D01*
X116094393Y-98760280D01*
X116094397Y-98760280D01*
X116352266Y-98680738D01*
X116595400Y-98563651D01*
X116818366Y-98411635D01*
X116992567Y-98250000D01*
X117016182Y-98228089D01*
X117016182Y-98228087D01*
X117016186Y-98228085D01*
X117184440Y-98017102D01*
X117319368Y-97783398D01*
X117417959Y-97532195D01*
X117478008Y-97269103D01*
X117497308Y-97011561D01*
X117498174Y-97000004D01*
X117498174Y-96999995D01*
X117478008Y-96730898D01*
X117478008Y-96730897D01*
X117417959Y-96467805D01*
X117319368Y-96216602D01*
X117184440Y-95982898D01*
X117016186Y-95771915D01*
X117016185Y-95771914D01*
X117016182Y-95771910D01*
X116818366Y-95588365D01*
X116595400Y-95436349D01*
X116595394Y-95436346D01*
X116595393Y-95436345D01*
X116595392Y-95436344D01*
X116440431Y-95361720D01*
X116388571Y-95314898D01*
X116370258Y-95247471D01*
X116391306Y-95180847D01*
X116440431Y-95138280D01*
X116595392Y-95063655D01*
X116595392Y-95063654D01*
X116595400Y-95063651D01*
X116818366Y-94911635D01*
X117016186Y-94728085D01*
X117184440Y-94517102D01*
X117319368Y-94283398D01*
X117417959Y-94032195D01*
X117478008Y-93769103D01*
X117498174Y-93500000D01*
X117478008Y-93230897D01*
X117417959Y-92967805D01*
X117319368Y-92716602D01*
X117184440Y-92482898D01*
X117016186Y-92271915D01*
X117016185Y-92271914D01*
X117016182Y-92271910D01*
X116818366Y-92088365D01*
X116595400Y-91936349D01*
X116595394Y-91936346D01*
X116595393Y-91936345D01*
X116595392Y-91936344D01*
X116440431Y-91861720D01*
X116388571Y-91814898D01*
X116370258Y-91747471D01*
X116391306Y-91680847D01*
X116440431Y-91638280D01*
X116595392Y-91563655D01*
X116595392Y-91563654D01*
X116595400Y-91563651D01*
X116818366Y-91411635D01*
X117016186Y-91228085D01*
X117184440Y-91017102D01*
X117319368Y-90783398D01*
X117417959Y-90532195D01*
X117478008Y-90269103D01*
X117498174Y-90000000D01*
X117478008Y-89730897D01*
X117417959Y-89467805D01*
X117319368Y-89216602D01*
X117184440Y-88982898D01*
X117016186Y-88771915D01*
X117016185Y-88771914D01*
X117016182Y-88771910D01*
X116818366Y-88588365D01*
X116595400Y-88436349D01*
X116595394Y-88436346D01*
X116595393Y-88436345D01*
X116595392Y-88436344D01*
X116440431Y-88361720D01*
X116388571Y-88314898D01*
X116370258Y-88247471D01*
X116391306Y-88180847D01*
X116440431Y-88138280D01*
X116595392Y-88063655D01*
X116595392Y-88063654D01*
X116595400Y-88063651D01*
X116818366Y-87911635D01*
X117016186Y-87728085D01*
X117184440Y-87517102D01*
X117319368Y-87283398D01*
X117417959Y-87032195D01*
X117478008Y-86769103D01*
X117498174Y-86500000D01*
X117478008Y-86230897D01*
X117417959Y-85967805D01*
X117319368Y-85716602D01*
X117184440Y-85482898D01*
X117016186Y-85271915D01*
X117016185Y-85271914D01*
X117016182Y-85271910D01*
X116818366Y-85088365D01*
X116595400Y-84936349D01*
X116595396Y-84936347D01*
X116595393Y-84936345D01*
X116595392Y-84936344D01*
X116440431Y-84861720D01*
X116388571Y-84814898D01*
X116370258Y-84747471D01*
X116391306Y-84680847D01*
X116440431Y-84638280D01*
X116595392Y-84563655D01*
X116595392Y-84563654D01*
X116595400Y-84563651D01*
X116818366Y-84411635D01*
X117016186Y-84228085D01*
X117184440Y-84017102D01*
X117319368Y-83783398D01*
X117417959Y-83532195D01*
X117478008Y-83269103D01*
X117494003Y-83055659D01*
X117498174Y-83000004D01*
X117498174Y-82999995D01*
X117478008Y-82730898D01*
X117441604Y-82571401D01*
X117417959Y-82467805D01*
X117319368Y-82216602D01*
X117184440Y-81982898D01*
X117016186Y-81771915D01*
X117016185Y-81771914D01*
X117016182Y-81771910D01*
X116818366Y-81588365D01*
X116595400Y-81436349D01*
X116595396Y-81436347D01*
X116595393Y-81436345D01*
X116595392Y-81436344D01*
X116440431Y-81361720D01*
X116388571Y-81314898D01*
X116370258Y-81247471D01*
X116391306Y-81180847D01*
X116440431Y-81138280D01*
X116595392Y-81063655D01*
X116595392Y-81063654D01*
X116595400Y-81063651D01*
X116818366Y-80911635D01*
X117016186Y-80728085D01*
X117184440Y-80517102D01*
X117319368Y-80283398D01*
X117417959Y-80032195D01*
X117478008Y-79769103D01*
X117498174Y-79500000D01*
X117490336Y-79395413D01*
X117478008Y-79230898D01*
X117417960Y-78967811D01*
X117417959Y-78967805D01*
X117319368Y-78716602D01*
X117184440Y-78482898D01*
X117016186Y-78271915D01*
X117016185Y-78271914D01*
X117016182Y-78271910D01*
X116818366Y-78088365D01*
X116595400Y-77936349D01*
X116595396Y-77936347D01*
X116595393Y-77936345D01*
X116595392Y-77936344D01*
X116440431Y-77861720D01*
X116388571Y-77814898D01*
X116370258Y-77747471D01*
X116391306Y-77680847D01*
X116440431Y-77638280D01*
X116595392Y-77563655D01*
X116595392Y-77563654D01*
X116595400Y-77563651D01*
X116818366Y-77411635D01*
X117016186Y-77228085D01*
X117184440Y-77017102D01*
X117319368Y-76783398D01*
X117417959Y-76532195D01*
X117478008Y-76269103D01*
X117498174Y-76000000D01*
X117493840Y-75942171D01*
X117478008Y-75730898D01*
X117417960Y-75467811D01*
X117417959Y-75467805D01*
X117319368Y-75216602D01*
X117184440Y-74982898D01*
X117016186Y-74771915D01*
X117016185Y-74771914D01*
X117016182Y-74771910D01*
X116818366Y-74588365D01*
X116595400Y-74436349D01*
X116595396Y-74436347D01*
X116595393Y-74436345D01*
X116595392Y-74436344D01*
X116440431Y-74361720D01*
X116388571Y-74314898D01*
X116370258Y-74247471D01*
X116391306Y-74180847D01*
X116440431Y-74138280D01*
X116595392Y-74063655D01*
X116595392Y-74063654D01*
X116595400Y-74063651D01*
X116818366Y-73911635D01*
X117016186Y-73728085D01*
X117184440Y-73517102D01*
X117319368Y-73283398D01*
X117417959Y-73032195D01*
X117478008Y-72769103D01*
X117498174Y-72500000D01*
X117496266Y-72474545D01*
X117478008Y-72230898D01*
X117475026Y-72217834D01*
X117417959Y-71967805D01*
X117319368Y-71716602D01*
X117184440Y-71482898D01*
X117016186Y-71271915D01*
X117016185Y-71271914D01*
X117016182Y-71271910D01*
X116818366Y-71088365D01*
X116800982Y-71076513D01*
X116595400Y-70936349D01*
X116595396Y-70936347D01*
X116595393Y-70936345D01*
X116595392Y-70936344D01*
X116440431Y-70861720D01*
X116388571Y-70814898D01*
X116370258Y-70747471D01*
X116391306Y-70680847D01*
X116440431Y-70638280D01*
X116595392Y-70563655D01*
X116595392Y-70563654D01*
X116595400Y-70563651D01*
X116818366Y-70411635D01*
X117016186Y-70228085D01*
X117184440Y-70017102D01*
X117319368Y-69783398D01*
X117417959Y-69532195D01*
X117478008Y-69269103D01*
X117498174Y-69000000D01*
X117478008Y-68730897D01*
X117417959Y-68467805D01*
X117381042Y-68373745D01*
X117374874Y-68304149D01*
X117407312Y-68242265D01*
X117468056Y-68207742D01*
X117537823Y-68211541D01*
X117584152Y-68240762D01*
X123410701Y-74067311D01*
X123444186Y-74128634D01*
X123447020Y-74154992D01*
X123447020Y-103248695D01*
X123427335Y-103315734D01*
X123374531Y-103361489D01*
X123323020Y-103372695D01*
X122699649Y-103372695D01*
X122699643Y-103372696D01*
X122640036Y-103379103D01*
X122505191Y-103429397D01*
X122505184Y-103429401D01*
X122389975Y-103515647D01*
X122389972Y-103515650D01*
X122303726Y-103630859D01*
X122303722Y-103630866D01*
X122253428Y-103765712D01*
X122247021Y-103825311D01*
X122247021Y-103825318D01*
X122247020Y-103825330D01*
X122247020Y-106521065D01*
X122247021Y-106521071D01*
X122253428Y-106580678D01*
X122303722Y-106715523D01*
X122303726Y-106715530D01*
X122389972Y-106830739D01*
X122389975Y-106830742D01*
X122505184Y-106916988D01*
X122505191Y-106916992D01*
X122640037Y-106967286D01*
X122640036Y-106967286D01*
X122644855Y-106967804D01*
X122699647Y-106973695D01*
X125395392Y-106973694D01*
X125455003Y-106967286D01*
X125589851Y-106916991D01*
X125705066Y-106830741D01*
X125791316Y-106715526D01*
X125841611Y-106580678D01*
X125848020Y-106521068D01*
X125848019Y-106284237D01*
X125867703Y-106217200D01*
X125920507Y-106171445D01*
X125989666Y-106161501D01*
X126053221Y-106190526D01*
X126068966Y-106206926D01*
X126223962Y-106401284D01*
X126377584Y-106543823D01*
X126421779Y-106584830D01*
X126644746Y-106736846D01*
X126644749Y-106736847D01*
X126644750Y-106736848D01*
X126647728Y-106738282D01*
X126887879Y-106853933D01*
X127145748Y-106933475D01*
X127145749Y-106933475D01*
X127145752Y-106933476D01*
X127412583Y-106973694D01*
X127412588Y-106973694D01*
X127412591Y-106973695D01*
X127412592Y-106973695D01*
X127682448Y-106973695D01*
X127682449Y-106973695D01*
X127682456Y-106973694D01*
X127949287Y-106933476D01*
X127949288Y-106933475D01*
X127949292Y-106933475D01*
X128207161Y-106853933D01*
X128447313Y-106738282D01*
X128450287Y-106736850D01*
X128450287Y-106736849D01*
X128450295Y-106736846D01*
X128673261Y-106584830D01*
X128871081Y-106401280D01*
X129039335Y-106190297D01*
X129174263Y-105956593D01*
X129182360Y-105935960D01*
X129225172Y-105880749D01*
X129291042Y-105857447D01*
X129359053Y-105873455D01*
X129407613Y-105923691D01*
X129413215Y-105935958D01*
X129421229Y-105956377D01*
X129556122Y-106190017D01*
X129609814Y-106257346D01*
X130444972Y-105422188D01*
X130454708Y-105452151D01*
X130542706Y-105590814D01*
X130662423Y-105703235D01*
X130797030Y-105777236D01*
X129962368Y-106611897D01*
X130145003Y-106736415D01*
X130145005Y-106736416D01*
X130388059Y-106853464D01*
X130388057Y-106853464D01*
X130645857Y-106932985D01*
X130645863Y-106932987D01*
X130912621Y-106973194D01*
X130912630Y-106973195D01*
X131182410Y-106973195D01*
X131182418Y-106973194D01*
X131449176Y-106932987D01*
X131449182Y-106932985D01*
X131706981Y-106853464D01*
X131950041Y-106736413D01*
X132132670Y-106611897D01*
X131295054Y-105774281D01*
X131363149Y-105747321D01*
X131496012Y-105650790D01*
X131600695Y-105524250D01*
X131649151Y-105421274D01*
X132485223Y-106257346D01*
X132485224Y-106257345D01*
X132538913Y-106190023D01*
X132538920Y-106190012D01*
X132673810Y-105956376D01*
X132772371Y-105705247D01*
X132772377Y-105705228D01*
X132832406Y-105442223D01*
X132832406Y-105442221D01*
X132852567Y-105173199D01*
X132852567Y-105173190D01*
X132832406Y-104904168D01*
X132832406Y-104904166D01*
X132772377Y-104641161D01*
X132772371Y-104641142D01*
X132673810Y-104390013D01*
X132673811Y-104390013D01*
X132538917Y-104156372D01*
X132485224Y-104089042D01*
X131650066Y-104924199D01*
X131640332Y-104894239D01*
X131552334Y-104755576D01*
X131432617Y-104643155D01*
X131298008Y-104569152D01*
X132132670Y-103734491D01*
X131950037Y-103609974D01*
X131950036Y-103609973D01*
X131706980Y-103492925D01*
X131706982Y-103492925D01*
X131449182Y-103413404D01*
X131449176Y-103413402D01*
X131182418Y-103373195D01*
X130912621Y-103373195D01*
X130645863Y-103413402D01*
X130645857Y-103413404D01*
X130416066Y-103484286D01*
X130346203Y-103485236D01*
X130286916Y-103448265D01*
X130257030Y-103385110D01*
X130266031Y-103315822D01*
X130291833Y-103278115D01*
X131352505Y-102217445D01*
X131413828Y-102183960D01*
X131440186Y-102181126D01*
X139866224Y-102181126D01*
X139933263Y-102200811D01*
X139979018Y-102253615D01*
X139988962Y-102322773D01*
X139959937Y-102386329D01*
X139953907Y-102392804D01*
X139446551Y-102900160D01*
X138987583Y-103359128D01*
X138926260Y-103392613D01*
X138899902Y-103395447D01*
X136652129Y-103395447D01*
X136652123Y-103395448D01*
X136592516Y-103401855D01*
X136457671Y-103452149D01*
X136457664Y-103452153D01*
X136342455Y-103538399D01*
X136342452Y-103538402D01*
X136256206Y-103653611D01*
X136256202Y-103653618D01*
X136205908Y-103788464D01*
X136199501Y-103848063D01*
X136199500Y-103848082D01*
X136199500Y-106543817D01*
X136199501Y-106543823D01*
X136205908Y-106603430D01*
X136256202Y-106738275D01*
X136256206Y-106738282D01*
X136342452Y-106853491D01*
X136342455Y-106853494D01*
X136457664Y-106939740D01*
X136457671Y-106939744D01*
X136592517Y-106990038D01*
X136592516Y-106990038D01*
X136599444Y-106990782D01*
X136652127Y-106996447D01*
X139347872Y-106996446D01*
X139407483Y-106990038D01*
X139542331Y-106939743D01*
X139657546Y-106853493D01*
X139743796Y-106738278D01*
X139794091Y-106603430D01*
X139800500Y-106543820D01*
X139800499Y-106306989D01*
X139820183Y-106239952D01*
X139872987Y-106194197D01*
X139942146Y-106184253D01*
X140005701Y-106213278D01*
X140021446Y-106229678D01*
X140176442Y-106424036D01*
X140349737Y-106584829D01*
X140374259Y-106607582D01*
X140597226Y-106759598D01*
X140840359Y-106876685D01*
X141098228Y-106956227D01*
X141098229Y-106956227D01*
X141098232Y-106956228D01*
X141365063Y-106996446D01*
X141365068Y-106996446D01*
X141365071Y-106996447D01*
X141365072Y-106996447D01*
X141634928Y-106996447D01*
X141634929Y-106996447D01*
X141634936Y-106996446D01*
X141901767Y-106956228D01*
X141901768Y-106956227D01*
X141901772Y-106956227D01*
X142159641Y-106876685D01*
X142402775Y-106759598D01*
X142625741Y-106607582D01*
X142823561Y-106424032D01*
X142991815Y-106213049D01*
X143126743Y-105979345D01*
X143134572Y-105959398D01*
X143177387Y-105904184D01*
X143243257Y-105880883D01*
X143311268Y-105896894D01*
X143359826Y-105947131D01*
X143365428Y-105959398D01*
X143373254Y-105979339D01*
X143373258Y-105979347D01*
X143400743Y-106026952D01*
X143508185Y-106213049D01*
X143631659Y-106367880D01*
X143676442Y-106424036D01*
X143849737Y-106584829D01*
X143874259Y-106607582D01*
X144097226Y-106759598D01*
X144340359Y-106876685D01*
X144598228Y-106956227D01*
X144598229Y-106956227D01*
X144598232Y-106956228D01*
X144865063Y-106996446D01*
X144865068Y-106996446D01*
X144865071Y-106996447D01*
X144865072Y-106996447D01*
X145134928Y-106996447D01*
X145134929Y-106996447D01*
X145134936Y-106996446D01*
X145401767Y-106956228D01*
X145401768Y-106956227D01*
X145401772Y-106956227D01*
X145659641Y-106876685D01*
X145902775Y-106759598D01*
X146125741Y-106607582D01*
X146323561Y-106424032D01*
X146491815Y-106213049D01*
X146626743Y-105979345D01*
X146725334Y-105728142D01*
X146785383Y-105465050D01*
X146802118Y-105241729D01*
X146805549Y-105195951D01*
X146805549Y-105195942D01*
X146785383Y-104926845D01*
X146760915Y-104819642D01*
X146725334Y-104663752D01*
X146658063Y-104492352D01*
X146651895Y-104422756D01*
X146684333Y-104360872D01*
X146685748Y-104359432D01*
X147627737Y-103417445D01*
X147689060Y-103383960D01*
X147715418Y-103381126D01*
X169733140Y-103381126D01*
X169749324Y-103382186D01*
X169780627Y-103386308D01*
X169780628Y-103386308D01*
X169835355Y-103379103D01*
X169937389Y-103365670D01*
X170083468Y-103305162D01*
X170126607Y-103272060D01*
X170208909Y-103208908D01*
X170228137Y-103183848D01*
X170238816Y-103171670D01*
X180595391Y-92815096D01*
X180656712Y-92781613D01*
X180726404Y-92786597D01*
X180782337Y-92828469D01*
X180806754Y-92893933D01*
X180807070Y-92902779D01*
X180807070Y-102787366D01*
X180787385Y-102854405D01*
X180734581Y-102900160D01*
X180665423Y-102910104D01*
X180642807Y-102904647D01*
X180477186Y-102847789D01*
X180231905Y-102806860D01*
X179983235Y-102806860D01*
X179737953Y-102847789D01*
X179502767Y-102928529D01*
X179502758Y-102928532D01*
X179284063Y-103046884D01*
X179087827Y-103199621D01*
X178919403Y-103382577D01*
X178783396Y-103590753D01*
X178683506Y-103818478D01*
X178622462Y-104059535D01*
X178622460Y-104059547D01*
X178601927Y-104307354D01*
X178601927Y-104307365D01*
X178622460Y-104555172D01*
X178622462Y-104555184D01*
X178683506Y-104796241D01*
X178783396Y-105023966D01*
X178919403Y-105232142D01*
X178919406Y-105232145D01*
X179087826Y-105415098D01*
X179284061Y-105567834D01*
X179284063Y-105567835D01*
X179449830Y-105657544D01*
X179502760Y-105686188D01*
X179737956Y-105766931D01*
X179983235Y-105807860D01*
X180231905Y-105807860D01*
X180477184Y-105766931D01*
X180642808Y-105710071D01*
X180712605Y-105706922D01*
X180773027Y-105742008D01*
X180804887Y-105804190D01*
X180807070Y-105827353D01*
X180807070Y-107207261D01*
X180787385Y-107274300D01*
X180770751Y-107294942D01*
X180711118Y-107354575D01*
X180649795Y-107388060D01*
X180583174Y-107384175D01*
X180477186Y-107347789D01*
X180231905Y-107306860D01*
X179983235Y-107306860D01*
X179737953Y-107347789D01*
X179502767Y-107428529D01*
X179502758Y-107428532D01*
X179284063Y-107546884D01*
X179087827Y-107699621D01*
X178919403Y-107882577D01*
X178783397Y-108090751D01*
X178765010Y-108132671D01*
X178720053Y-108186156D01*
X178653317Y-108206846D01*
X178651454Y-108206860D01*
X175063686Y-108206860D01*
X174996647Y-108187175D01*
X174950892Y-108134371D01*
X174950130Y-108132671D01*
X174931742Y-108090751D01*
X174795736Y-107882577D01*
X174729109Y-107810201D01*
X174627314Y-107699622D01*
X174431079Y-107546886D01*
X174431077Y-107546885D01*
X174431076Y-107546884D01*
X174212381Y-107428532D01*
X174212372Y-107428529D01*
X173977186Y-107347789D01*
X173731905Y-107306860D01*
X173483235Y-107306860D01*
X173237953Y-107347789D01*
X173002767Y-107428529D01*
X173002758Y-107428532D01*
X172784063Y-107546884D01*
X172587827Y-107699621D01*
X172419403Y-107882577D01*
X172283397Y-108090751D01*
X172265010Y-108132671D01*
X172220053Y-108186156D01*
X172153317Y-108206846D01*
X172151454Y-108206860D01*
X164030961Y-108206860D01*
X163963922Y-108187175D01*
X163943280Y-108170541D01*
X163048228Y-107275489D01*
X163014743Y-107214166D01*
X163019727Y-107144474D01*
X163061599Y-107088541D01*
X163127063Y-107064124D01*
X163146713Y-107064279D01*
X163274525Y-107075462D01*
X163317569Y-107079228D01*
X163317570Y-107079228D01*
X163317572Y-107079228D01*
X163370756Y-107074574D01*
X163530317Y-107060615D01*
X163736600Y-107005342D01*
X163930151Y-106915087D01*
X164105089Y-106792595D01*
X164256099Y-106641585D01*
X164378591Y-106466647D01*
X164468846Y-106273096D01*
X164468850Y-106273079D01*
X164470700Y-106268002D01*
X164472551Y-106268675D01*
X164504417Y-106216394D01*
X164567264Y-106185863D01*
X164636639Y-106194157D01*
X164690518Y-106238641D01*
X164704000Y-106268161D01*
X164704912Y-106267830D01*
X164706767Y-106272925D01*
X164796983Y-106466395D01*
X164835985Y-106522096D01*
X165459616Y-105898465D01*
X165472405Y-105979214D01*
X165529929Y-106092111D01*
X165619525Y-106181707D01*
X165732422Y-106239231D01*
X165813169Y-106252019D01*
X165189538Y-106875650D01*
X165245233Y-106914648D01*
X165245239Y-106914652D01*
X165438710Y-107004868D01*
X165438716Y-107004871D01*
X165644907Y-107060120D01*
X165644915Y-107060121D01*
X165857568Y-107078726D01*
X165857572Y-107078726D01*
X166070224Y-107060121D01*
X166070232Y-107060120D01*
X166276423Y-107004871D01*
X166276434Y-107004867D01*
X166469895Y-106914655D01*
X166525600Y-106875649D01*
X165901971Y-106252019D01*
X165982718Y-106239231D01*
X166095615Y-106181707D01*
X166185211Y-106092111D01*
X166242735Y-105979214D01*
X166255523Y-105898466D01*
X166879153Y-106522095D01*
X166918159Y-106466391D01*
X167008371Y-106272930D01*
X167008375Y-106272919D01*
X167063624Y-106066728D01*
X167063625Y-106066720D01*
X167082230Y-105854068D01*
X167082230Y-105854063D01*
X167063625Y-105641411D01*
X167063624Y-105641403D01*
X167008375Y-105435212D01*
X167008372Y-105435206D01*
X166918156Y-105241735D01*
X166918152Y-105241729D01*
X166879154Y-105186034D01*
X166255523Y-105809665D01*
X166242735Y-105728918D01*
X166185211Y-105616021D01*
X166095615Y-105526425D01*
X165982718Y-105468901D01*
X165901970Y-105456112D01*
X166525600Y-104832481D01*
X166469899Y-104793479D01*
X166276429Y-104703263D01*
X166276423Y-104703260D01*
X166070232Y-104648011D01*
X166070224Y-104648010D01*
X165857572Y-104629406D01*
X165857568Y-104629406D01*
X165644915Y-104648010D01*
X165644907Y-104648011D01*
X165438716Y-104703260D01*
X165438710Y-104703263D01*
X165245241Y-104793478D01*
X165245239Y-104793479D01*
X165189539Y-104832481D01*
X165189538Y-104832481D01*
X165813170Y-105456112D01*
X165732422Y-105468901D01*
X165619525Y-105526425D01*
X165529929Y-105616021D01*
X165472405Y-105728918D01*
X165459616Y-105809665D01*
X164835985Y-105186034D01*
X164835985Y-105186035D01*
X164796983Y-105241735D01*
X164796982Y-105241737D01*
X164706767Y-105435206D01*
X164704912Y-105440302D01*
X164703015Y-105439611D01*
X164671226Y-105491750D01*
X164608375Y-105522271D01*
X164539001Y-105513967D01*
X164485129Y-105469474D01*
X164471582Y-105439808D01*
X164470700Y-105440130D01*
X164468849Y-105435049D01*
X164468846Y-105435036D01*
X164378591Y-105241485D01*
X164256099Y-105066547D01*
X164256097Y-105066544D01*
X164105091Y-104915538D01*
X163930148Y-104793043D01*
X163930149Y-104793043D01*
X163801117Y-104732875D01*
X163736600Y-104702790D01*
X163736596Y-104702789D01*
X163736592Y-104702787D01*
X163530322Y-104647518D01*
X163530318Y-104647517D01*
X163530317Y-104647517D01*
X163530316Y-104647516D01*
X163530311Y-104647516D01*
X163317572Y-104628904D01*
X163317569Y-104628904D01*
X163104823Y-104647517D01*
X163104816Y-104647518D01*
X163059956Y-104659538D01*
X162990106Y-104657874D01*
X162940183Y-104627444D01*
X162755769Y-104443030D01*
X162745074Y-104430835D01*
X162725853Y-104405785D01*
X162725849Y-104405782D01*
X162600411Y-104309530D01*
X162595184Y-104307365D01*
X172101927Y-104307365D01*
X172122460Y-104555172D01*
X172122462Y-104555184D01*
X172183506Y-104796241D01*
X172283396Y-105023966D01*
X172419403Y-105232142D01*
X172419406Y-105232145D01*
X172587826Y-105415098D01*
X172784061Y-105567834D01*
X172784063Y-105567835D01*
X172949830Y-105657544D01*
X173002760Y-105686188D01*
X173237956Y-105766931D01*
X173483235Y-105807860D01*
X173731905Y-105807860D01*
X173977184Y-105766931D01*
X174212380Y-105686188D01*
X174431079Y-105567834D01*
X174627314Y-105415098D01*
X174795734Y-105232145D01*
X174931743Y-105023967D01*
X175031633Y-104796241D01*
X175092678Y-104555181D01*
X175094051Y-104538612D01*
X175113213Y-104307365D01*
X175113213Y-104307354D01*
X175092679Y-104059547D01*
X175092677Y-104059535D01*
X175031633Y-103818478D01*
X174931743Y-103590753D01*
X174795736Y-103382577D01*
X174769017Y-103353553D01*
X174627314Y-103199622D01*
X174431079Y-103046886D01*
X174431077Y-103046885D01*
X174431076Y-103046884D01*
X174212381Y-102928532D01*
X174212372Y-102928529D01*
X173977186Y-102847789D01*
X173731905Y-102806860D01*
X173483235Y-102806860D01*
X173237953Y-102847789D01*
X173002767Y-102928529D01*
X173002758Y-102928532D01*
X172784063Y-103046884D01*
X172587827Y-103199621D01*
X172419403Y-103382577D01*
X172283396Y-103590753D01*
X172183506Y-103818478D01*
X172122462Y-104059535D01*
X172122460Y-104059547D01*
X172101927Y-104307354D01*
X172101927Y-104307365D01*
X162595184Y-104307365D01*
X162454332Y-104249022D01*
X162454330Y-104249021D01*
X162297571Y-104228384D01*
X162297570Y-104228384D01*
X162266267Y-104232505D01*
X162250083Y-104233566D01*
X160402559Y-104233566D01*
X160386374Y-104232505D01*
X160355072Y-104228384D01*
X160355071Y-104228384D01*
X160198311Y-104249021D01*
X160198309Y-104249022D01*
X160052229Y-104309530D01*
X159926790Y-104405782D01*
X159907561Y-104430841D01*
X159896870Y-104443031D01*
X155672961Y-108666940D01*
X155611638Y-108700425D01*
X155571397Y-108702479D01*
X155500003Y-108694435D01*
X155499996Y-108694435D01*
X155320750Y-108714630D01*
X155320745Y-108714631D01*
X155150476Y-108774211D01*
X154997737Y-108870184D01*
X154870184Y-108997737D01*
X154774211Y-109150476D01*
X154714631Y-109320745D01*
X154714630Y-109320750D01*
X154694435Y-109499996D01*
X154694435Y-109500003D01*
X154714630Y-109679249D01*
X154714631Y-109679254D01*
X154774211Y-109849523D01*
X154815415Y-109915098D01*
X154870184Y-110002262D01*
X154997738Y-110129816D01*
X155150478Y-110225789D01*
X155268052Y-110266930D01*
X155320745Y-110285368D01*
X155320750Y-110285369D01*
X155499996Y-110305565D01*
X155500000Y-110305565D01*
X155500004Y-110305565D01*
X155679249Y-110285369D01*
X155679252Y-110285368D01*
X155679255Y-110285368D01*
X155849522Y-110225789D01*
X156002262Y-110129816D01*
X156129816Y-110002262D01*
X156225789Y-109849522D01*
X156236324Y-109819413D01*
X156265682Y-109772689D01*
X159552412Y-106485959D01*
X159613733Y-106452476D01*
X159683425Y-106457460D01*
X159739358Y-106499332D01*
X159741666Y-106502519D01*
X159839041Y-106641586D01*
X159990048Y-106792593D01*
X159990051Y-106792595D01*
X160164989Y-106915087D01*
X160164991Y-106915088D01*
X160164990Y-106915088D01*
X160229506Y-106945172D01*
X160358540Y-107005342D01*
X160564823Y-107060615D01*
X160716785Y-107073910D01*
X160777568Y-107079228D01*
X160777570Y-107079228D01*
X160777572Y-107079228D01*
X160830756Y-107074574D01*
X160990317Y-107060615D01*
X161035182Y-107048593D01*
X161105031Y-107050256D01*
X161154956Y-107080687D01*
X163272663Y-109198394D01*
X163283357Y-109210588D01*
X163302582Y-109235642D01*
X163387107Y-109300500D01*
X163428023Y-109331896D01*
X163428026Y-109331897D01*
X163428027Y-109331898D01*
X163501062Y-109362150D01*
X163574102Y-109392404D01*
X163609681Y-109397088D01*
X163730863Y-109413042D01*
X163730864Y-109413042D01*
X163762166Y-109408920D01*
X163778351Y-109407860D01*
X172151454Y-109407860D01*
X172218493Y-109427545D01*
X172264248Y-109480349D01*
X172265010Y-109482049D01*
X172283397Y-109523968D01*
X172419403Y-109732142D01*
X172419406Y-109732145D01*
X172587826Y-109915098D01*
X172784061Y-110067834D01*
X173002760Y-110186188D01*
X173237956Y-110266931D01*
X173483235Y-110307860D01*
X173731905Y-110307860D01*
X173977184Y-110266931D01*
X174212380Y-110186188D01*
X174431079Y-110067834D01*
X174627314Y-109915098D01*
X174795734Y-109732145D01*
X174931743Y-109523967D01*
X174950130Y-109482049D01*
X174995087Y-109428564D01*
X175061823Y-109407874D01*
X175063686Y-109407860D01*
X178651454Y-109407860D01*
X178718493Y-109427545D01*
X178764248Y-109480349D01*
X178765010Y-109482049D01*
X178783397Y-109523968D01*
X178919403Y-109732142D01*
X178919406Y-109732145D01*
X179087826Y-109915098D01*
X179284061Y-110067834D01*
X179502760Y-110186188D01*
X179737956Y-110266931D01*
X179983235Y-110307860D01*
X180231905Y-110307860D01*
X180477184Y-110266931D01*
X180712380Y-110186188D01*
X180931079Y-110067834D01*
X181127314Y-109915098D01*
X181295734Y-109732145D01*
X181431743Y-109523967D01*
X181531633Y-109296241D01*
X181592678Y-109055181D01*
X181604573Y-108911634D01*
X181613213Y-108807365D01*
X181613213Y-108807354D01*
X181592679Y-108559547D01*
X181592678Y-108559543D01*
X181592678Y-108559539D01*
X181581931Y-108517102D01*
X181531562Y-108318199D01*
X181534186Y-108248378D01*
X181564084Y-108200079D01*
X181798613Y-107965550D01*
X181810793Y-107954869D01*
X181835852Y-107935642D01*
X181932106Y-107810201D01*
X181992614Y-107664122D01*
X182008070Y-107546721D01*
X182013252Y-107507360D01*
X182012282Y-107499995D01*
X182009131Y-107476057D01*
X182008070Y-107459872D01*
X182008070Y-104047870D01*
X188592125Y-104047870D01*
X188592126Y-104047876D01*
X188598533Y-104107483D01*
X188648827Y-104242328D01*
X188648831Y-104242335D01*
X188735077Y-104357544D01*
X188735080Y-104357547D01*
X188850289Y-104443793D01*
X188850296Y-104443797D01*
X188985142Y-104494091D01*
X188985141Y-104494091D01*
X188992069Y-104494835D01*
X189044752Y-104500500D01*
X191140497Y-104500499D01*
X191200108Y-104494091D01*
X191334956Y-104443796D01*
X191450171Y-104357546D01*
X191536421Y-104242331D01*
X191586716Y-104107483D01*
X191593125Y-104047873D01*
X191593125Y-103000005D01*
X196187484Y-103000005D01*
X196208010Y-103247729D01*
X196208012Y-103247738D01*
X196269037Y-103488717D01*
X196368891Y-103716364D01*
X196469189Y-103869882D01*
X197209548Y-103129523D01*
X197233132Y-103209844D01*
X197310864Y-103330798D01*
X197419525Y-103424952D01*
X197550310Y-103484680D01*
X197560091Y-103486086D01*
X196822567Y-104223609D01*
X196869393Y-104260055D01*
X196869395Y-104260056D01*
X197088010Y-104378364D01*
X197088021Y-104378369D01*
X197323131Y-104459083D01*
X197568332Y-104500000D01*
X197816918Y-104500000D01*
X198062118Y-104459083D01*
X198297228Y-104378369D01*
X198297239Y-104378364D01*
X198515853Y-104260057D01*
X198515856Y-104260055D01*
X198562681Y-104223609D01*
X197825158Y-103486086D01*
X197834940Y-103484680D01*
X197965725Y-103424952D01*
X198074386Y-103330798D01*
X198152118Y-103209844D01*
X198175701Y-103129524D01*
X198916059Y-103869882D01*
X199016356Y-103716369D01*
X199116212Y-103488717D01*
X199177237Y-103247738D01*
X199177239Y-103247729D01*
X199197766Y-103000005D01*
X199197766Y-102999994D01*
X199177239Y-102752270D01*
X199177237Y-102752261D01*
X199116212Y-102511282D01*
X199016356Y-102283630D01*
X198916059Y-102130116D01*
X198175701Y-102870475D01*
X198152118Y-102790156D01*
X198074386Y-102669202D01*
X197965725Y-102575048D01*
X197834940Y-102515320D01*
X197825159Y-102513913D01*
X198562682Y-101776390D01*
X198562681Y-101776389D01*
X198515854Y-101739943D01*
X198297239Y-101621635D01*
X198297228Y-101621630D01*
X198062118Y-101540916D01*
X197816918Y-101500000D01*
X197568332Y-101500000D01*
X197323131Y-101540916D01*
X197088021Y-101621630D01*
X197088015Y-101621632D01*
X196869386Y-101739949D01*
X196822567Y-101776388D01*
X196822567Y-101776390D01*
X197560091Y-102513913D01*
X197550310Y-102515320D01*
X197419525Y-102575048D01*
X197310864Y-102669202D01*
X197233132Y-102790156D01*
X197209548Y-102870475D01*
X196469189Y-102130116D01*
X196368892Y-102283632D01*
X196269037Y-102511282D01*
X196208012Y-102752261D01*
X196208010Y-102752270D01*
X196187484Y-102999994D01*
X196187484Y-103000005D01*
X191593125Y-103000005D01*
X191593124Y-101952128D01*
X191586716Y-101892517D01*
X191543403Y-101776390D01*
X191536422Y-101757671D01*
X191536418Y-101757664D01*
X191450172Y-101642455D01*
X191450169Y-101642452D01*
X191334960Y-101556206D01*
X191334953Y-101556202D01*
X191200107Y-101505908D01*
X191200108Y-101505908D01*
X191140508Y-101499501D01*
X191140506Y-101499500D01*
X191140498Y-101499500D01*
X191140489Y-101499500D01*
X189044754Y-101499500D01*
X189044748Y-101499501D01*
X188985141Y-101505908D01*
X188850296Y-101556202D01*
X188850289Y-101556206D01*
X188735080Y-101642452D01*
X188735077Y-101642455D01*
X188648831Y-101757664D01*
X188648827Y-101757671D01*
X188598533Y-101892517D01*
X188592126Y-101952116D01*
X188592126Y-101952123D01*
X188592125Y-101952135D01*
X188592125Y-104047870D01*
X182008070Y-104047870D01*
X182008070Y-98947844D01*
X201752625Y-98947844D01*
X201759026Y-99007372D01*
X201759028Y-99007379D01*
X201809270Y-99142086D01*
X201809274Y-99142093D01*
X201895434Y-99257187D01*
X201895437Y-99257190D01*
X202010531Y-99343350D01*
X202010538Y-99343354D01*
X202145245Y-99393596D01*
X202145252Y-99393598D01*
X202204780Y-99399999D01*
X202204797Y-99400000D01*
X202902625Y-99400000D01*
X202902625Y-98374189D01*
X202955172Y-98410016D01*
X203084798Y-98450000D01*
X203186349Y-98450000D01*
X203286763Y-98434865D01*
X203402625Y-98379068D01*
X203402625Y-99400000D01*
X204100453Y-99400000D01*
X204100469Y-99399999D01*
X204159997Y-99393598D01*
X204160004Y-99393596D01*
X204294711Y-99343354D01*
X204294718Y-99343350D01*
X204409812Y-99257190D01*
X204409815Y-99257187D01*
X204495975Y-99142093D01*
X204495980Y-99142084D01*
X204524700Y-99065081D01*
X204566570Y-99009147D01*
X204632034Y-98984729D01*
X204700307Y-98999580D01*
X204732109Y-99024428D01*
X204740841Y-99033913D01*
X204740844Y-99033915D01*
X204740847Y-99033918D01*
X204923990Y-99176464D01*
X204923996Y-99176468D01*
X204923999Y-99176470D01*
X205128122Y-99286936D01*
X205242112Y-99326068D01*
X205347640Y-99362297D01*
X205347642Y-99362297D01*
X205347644Y-99362298D01*
X205576576Y-99400500D01*
X205576577Y-99400500D01*
X205808673Y-99400500D01*
X205808674Y-99400500D01*
X206037606Y-99362298D01*
X206257128Y-99286936D01*
X206461251Y-99176470D01*
X206644409Y-99033913D01*
X206801604Y-98863153D01*
X206928549Y-98668849D01*
X207021782Y-98456300D01*
X207078759Y-98231305D01*
X207078760Y-98231297D01*
X207097925Y-98000006D01*
X207097925Y-97999993D01*
X207078760Y-97768702D01*
X207078758Y-97768691D01*
X207021782Y-97543699D01*
X206928549Y-97331151D01*
X206801608Y-97136852D01*
X206801605Y-97136849D01*
X206801604Y-97136847D01*
X206644409Y-96966087D01*
X206644404Y-96966083D01*
X206644402Y-96966081D01*
X206461259Y-96823535D01*
X206461253Y-96823531D01*
X206257129Y-96713064D01*
X206257120Y-96713061D01*
X206037609Y-96637702D01*
X205850029Y-96606401D01*
X205808674Y-96599500D01*
X205576576Y-96599500D01*
X205535221Y-96606401D01*
X205347640Y-96637702D01*
X205128129Y-96713061D01*
X205128120Y-96713064D01*
X204923996Y-96823531D01*
X204923990Y-96823535D01*
X204740847Y-96966081D01*
X204740840Y-96966087D01*
X204732109Y-96975572D01*
X204672220Y-97011561D01*
X204602382Y-97009458D01*
X204544768Y-96969932D01*
X204524700Y-96934918D01*
X204495980Y-96857915D01*
X204495975Y-96857906D01*
X204409815Y-96742812D01*
X204409812Y-96742809D01*
X204294718Y-96656649D01*
X204294711Y-96656645D01*
X204160004Y-96606403D01*
X204159997Y-96606401D01*
X204100469Y-96600000D01*
X203402625Y-96600000D01*
X203402625Y-97625810D01*
X203350078Y-97589984D01*
X203220452Y-97550000D01*
X203118901Y-97550000D01*
X203018487Y-97565135D01*
X202902625Y-97620931D01*
X202902625Y-96600000D01*
X202204780Y-96600000D01*
X202145252Y-96606401D01*
X202145245Y-96606403D01*
X202010538Y-96656645D01*
X202010531Y-96656649D01*
X201895437Y-96742809D01*
X201895434Y-96742812D01*
X201809274Y-96857906D01*
X201809270Y-96857913D01*
X201759028Y-96992620D01*
X201759026Y-96992627D01*
X201752625Y-97052155D01*
X201752625Y-97750000D01*
X202777347Y-97750000D01*
X202729000Y-97833740D01*
X202698815Y-97965992D01*
X202708952Y-98101265D01*
X202758512Y-98227541D01*
X202776422Y-98250000D01*
X201752625Y-98250000D01*
X201752625Y-98947844D01*
X182008070Y-98947844D01*
X182008070Y-92585152D01*
X182027755Y-92518113D01*
X182044389Y-92497471D01*
X202730444Y-71811416D01*
X202791767Y-71777931D01*
X202861459Y-71782915D01*
X202917392Y-71824787D01*
X202941809Y-71890251D01*
X202942125Y-71899097D01*
X202942125Y-71968858D01*
X202941064Y-71985043D01*
X202936943Y-72016344D01*
X202936943Y-72016346D01*
X202942125Y-72055706D01*
X202942125Y-72055707D01*
X202957580Y-72173106D01*
X202957581Y-72173108D01*
X202994284Y-72261718D01*
X203018089Y-72319187D01*
X203088847Y-72411401D01*
X203114344Y-72444629D01*
X203139394Y-72463850D01*
X203151589Y-72474545D01*
X203682204Y-73005160D01*
X203715689Y-73066483D01*
X203710705Y-73136175D01*
X203682207Y-73180519D01*
X203654131Y-73208596D01*
X203518590Y-73402169D01*
X203518589Y-73402171D01*
X203418723Y-73616335D01*
X203418719Y-73616344D01*
X203357563Y-73844586D01*
X203357561Y-73844596D01*
X203336966Y-74079999D01*
X203336966Y-74080000D01*
X203357561Y-74315403D01*
X203357563Y-74315413D01*
X203418719Y-74543655D01*
X203418721Y-74543659D01*
X203418722Y-74543663D01*
X203439567Y-74588365D01*
X203518590Y-74757830D01*
X203518592Y-74757834D01*
X203654126Y-74951395D01*
X203654131Y-74951402D01*
X203821222Y-75118493D01*
X203821228Y-75118498D01*
X204006783Y-75248425D01*
X204050408Y-75303002D01*
X204057602Y-75372500D01*
X204026079Y-75434855D01*
X204006783Y-75451575D01*
X203821222Y-75581505D01*
X203654130Y-75748597D01*
X203518590Y-75942169D01*
X203518589Y-75942171D01*
X203418723Y-76156335D01*
X203418719Y-76156344D01*
X203357563Y-76384586D01*
X203357561Y-76384596D01*
X203336966Y-76619999D01*
X203336966Y-76620000D01*
X203357561Y-76855403D01*
X203357563Y-76855413D01*
X203418719Y-77083655D01*
X203418721Y-77083659D01*
X203418722Y-77083663D01*
X203486067Y-77228085D01*
X203518590Y-77297830D01*
X203518592Y-77297834D01*
X203654126Y-77491395D01*
X203654131Y-77491402D01*
X203821222Y-77658493D01*
X203821228Y-77658498D01*
X204006783Y-77788425D01*
X204050408Y-77843002D01*
X204057602Y-77912500D01*
X204026079Y-77974855D01*
X204006783Y-77991575D01*
X203821222Y-78121505D01*
X203654130Y-78288597D01*
X203518590Y-78482169D01*
X203518589Y-78482171D01*
X203418723Y-78696335D01*
X203418719Y-78696344D01*
X203357563Y-78924586D01*
X203357561Y-78924596D01*
X203336966Y-79159999D01*
X203336966Y-79160000D01*
X203357561Y-79395403D01*
X203357563Y-79395413D01*
X203418719Y-79623655D01*
X203418721Y-79623659D01*
X203418722Y-79623663D01*
X203486541Y-79769101D01*
X203518590Y-79837830D01*
X203518592Y-79837834D01*
X203654126Y-80031395D01*
X203654131Y-80031402D01*
X203821222Y-80198493D01*
X203821228Y-80198498D01*
X204006783Y-80328425D01*
X204050408Y-80383002D01*
X204057602Y-80452500D01*
X204026079Y-80514855D01*
X204006783Y-80531575D01*
X203821222Y-80661505D01*
X203654130Y-80828597D01*
X203518590Y-81022169D01*
X203518589Y-81022171D01*
X203418723Y-81236335D01*
X203418719Y-81236344D01*
X203357563Y-81464586D01*
X203357561Y-81464596D01*
X203336966Y-81699999D01*
X203336966Y-81700000D01*
X203357561Y-81935403D01*
X203357563Y-81935413D01*
X203418719Y-82163655D01*
X203418721Y-82163659D01*
X203418722Y-82163663D01*
X203518590Y-82377830D01*
X203518592Y-82377834D01*
X203581591Y-82467805D01*
X203654130Y-82571401D01*
X203821224Y-82738495D01*
X203918009Y-82806265D01*
X204014790Y-82874032D01*
X204014792Y-82874033D01*
X204014795Y-82874035D01*
X204228962Y-82973903D01*
X204457217Y-83035063D01*
X204645543Y-83051539D01*
X204692624Y-83055659D01*
X204692625Y-83055659D01*
X204692626Y-83055659D01*
X204731859Y-83052226D01*
X204928033Y-83035063D01*
X205156288Y-82973903D01*
X205370455Y-82874035D01*
X205564026Y-82738495D01*
X205731120Y-82571401D01*
X205866660Y-82377830D01*
X205966528Y-82163663D01*
X206027688Y-81935408D01*
X206048284Y-81700000D01*
X206027688Y-81464592D01*
X205966528Y-81236337D01*
X205866660Y-81022171D01*
X205789263Y-80911635D01*
X205731119Y-80828597D01*
X205564027Y-80661506D01*
X205564021Y-80661501D01*
X205378467Y-80531575D01*
X205334842Y-80476998D01*
X205327648Y-80407500D01*
X205359171Y-80345145D01*
X205378467Y-80328425D01*
X205442775Y-80283396D01*
X205564026Y-80198495D01*
X205731120Y-80031401D01*
X205866660Y-79837830D01*
X205966528Y-79623663D01*
X206027688Y-79395408D01*
X206048284Y-79160000D01*
X206027688Y-78924592D01*
X205966528Y-78696337D01*
X205866660Y-78482171D01*
X205794398Y-78378969D01*
X205731119Y-78288597D01*
X205564027Y-78121506D01*
X205564021Y-78121501D01*
X205378467Y-77991575D01*
X205334842Y-77936998D01*
X205327648Y-77867500D01*
X205359171Y-77805145D01*
X205378467Y-77788425D01*
X205436955Y-77747471D01*
X205564026Y-77658495D01*
X205731120Y-77491401D01*
X205866660Y-77297830D01*
X205966528Y-77083663D01*
X206027688Y-76855408D01*
X206048284Y-76620000D01*
X206027688Y-76384592D01*
X205966528Y-76156337D01*
X205866660Y-75942171D01*
X205731120Y-75748599D01*
X205731119Y-75748597D01*
X205564027Y-75581506D01*
X205564021Y-75581501D01*
X205378467Y-75451575D01*
X205334842Y-75396998D01*
X205327648Y-75327500D01*
X205359171Y-75265145D01*
X205378467Y-75248425D01*
X205423919Y-75216599D01*
X205564026Y-75118495D01*
X205731120Y-74951401D01*
X205866660Y-74757830D01*
X205966528Y-74543663D01*
X206027688Y-74315408D01*
X206048284Y-74080000D01*
X206027688Y-73844592D01*
X205966528Y-73616337D01*
X205896845Y-73466904D01*
X205886354Y-73397828D01*
X205914874Y-73334044D01*
X205973350Y-73295804D01*
X206009228Y-73290500D01*
X208996182Y-73290500D01*
X209063221Y-73310185D01*
X209083863Y-73326819D01*
X216382204Y-80625160D01*
X216415689Y-80686483D01*
X216410705Y-80756175D01*
X216382207Y-80800519D01*
X216354131Y-80828596D01*
X216218590Y-81022169D01*
X216218589Y-81022171D01*
X216118723Y-81236335D01*
X216118719Y-81236344D01*
X216057563Y-81464586D01*
X216057561Y-81464596D01*
X216036966Y-81699999D01*
X216036966Y-81700000D01*
X216057561Y-81935403D01*
X216057563Y-81935413D01*
X216118719Y-82163655D01*
X216118721Y-82163659D01*
X216118722Y-82163663D01*
X216218590Y-82377830D01*
X216218592Y-82377834D01*
X216281591Y-82467805D01*
X216354130Y-82571401D01*
X216521224Y-82738495D01*
X216618009Y-82806265D01*
X216714790Y-82874032D01*
X216714792Y-82874033D01*
X216714795Y-82874035D01*
X216928962Y-82973903D01*
X217157217Y-83035063D01*
X217345543Y-83051539D01*
X217392624Y-83055659D01*
X217392625Y-83055659D01*
X217392626Y-83055659D01*
X217431859Y-83052226D01*
X217628033Y-83035063D01*
X217856288Y-82973903D01*
X218070455Y-82874035D01*
X218264026Y-82738495D01*
X218431120Y-82571401D01*
X218566660Y-82377830D01*
X218666528Y-82163663D01*
X218727688Y-81935408D01*
X218748284Y-81700000D01*
X218727688Y-81464592D01*
X218666528Y-81236337D01*
X218566660Y-81022171D01*
X218489263Y-80911635D01*
X218431119Y-80828597D01*
X218403044Y-80800522D01*
X218369559Y-80739199D01*
X218374543Y-80669507D01*
X218403042Y-80625162D01*
X220191043Y-78837161D01*
X220203223Y-78826480D01*
X220228282Y-78807253D01*
X220324536Y-78681812D01*
X220385044Y-78535733D01*
X220400500Y-78418332D01*
X220405682Y-78378971D01*
X220401561Y-78347668D01*
X220400500Y-78331483D01*
X220400500Y-67281801D01*
X220401561Y-67265615D01*
X220405682Y-67234314D01*
X220405682Y-67234312D01*
X220385044Y-67077553D01*
X220385042Y-67077548D01*
X220324538Y-66931477D01*
X220324537Y-66931476D01*
X220324536Y-66931473D01*
X220261636Y-66849500D01*
X220228282Y-66806032D01*
X220228280Y-66806030D01*
X220228279Y-66806029D01*
X220203228Y-66786807D01*
X220191034Y-66776113D01*
X218823885Y-65408964D01*
X218813189Y-65396767D01*
X218793972Y-65371722D01*
X218793969Y-65371720D01*
X218793968Y-65371718D01*
X218668527Y-65275464D01*
X218522448Y-65214956D01*
X218522446Y-65214955D01*
X218405047Y-65199500D01*
X218365686Y-65194318D01*
X218334383Y-65198439D01*
X218318199Y-65199500D01*
X203300097Y-65199500D01*
X203233058Y-65179815D01*
X203212416Y-65163181D01*
X203158199Y-65108964D01*
X203147504Y-65096769D01*
X203128283Y-65071719D01*
X203128282Y-65071718D01*
X203002841Y-64975464D01*
X202856762Y-64914956D01*
X202856760Y-64914955D01*
X202739361Y-64899500D01*
X202700000Y-64894318D01*
X202668697Y-64898439D01*
X202652513Y-64899500D01*
X117475692Y-64899500D01*
X117408653Y-64879815D01*
X117362898Y-64827011D01*
X117360264Y-64820802D01*
X117319370Y-64716607D01*
X117319366Y-64716599D01*
X117184440Y-64482898D01*
X117016186Y-64271915D01*
X117016185Y-64271914D01*
X117016182Y-64271910D01*
X116818366Y-64088365D01*
X116727556Y-64026451D01*
X116683256Y-63972425D01*
X116675197Y-63903022D01*
X116705940Y-63840279D01*
X116765724Y-63804117D01*
X116797410Y-63800000D01*
X117040453Y-63800000D01*
X117040469Y-63799999D01*
X117099997Y-63793598D01*
X117100004Y-63793596D01*
X117234711Y-63743354D01*
X117234718Y-63743350D01*
X117349812Y-63657190D01*
X117349815Y-63657187D01*
X117435975Y-63542093D01*
X117435979Y-63542086D01*
X117486221Y-63407379D01*
X117486223Y-63407372D01*
X117492624Y-63347844D01*
X117492625Y-63347827D01*
X117492625Y-62250000D01*
X116293353Y-62250000D01*
X116315725Y-62202457D01*
X116346498Y-62041138D01*
X116336186Y-61877234D01*
X116294845Y-61750000D01*
X117492625Y-61750000D01*
X117492625Y-60724500D01*
X117512310Y-60657461D01*
X117565114Y-60611706D01*
X117616625Y-60600500D01*
X118699903Y-60600500D01*
X118766942Y-60620185D01*
X118787584Y-60636819D01*
X120691799Y-62541034D01*
X120702493Y-62553228D01*
X120721715Y-62578279D01*
X120721716Y-62578280D01*
X120721718Y-62578282D01*
X120753818Y-62602913D01*
X120847159Y-62674536D01*
X120847161Y-62674536D01*
X120847163Y-62674538D01*
X120920198Y-62704790D01*
X120993238Y-62735044D01*
X121071619Y-62745363D01*
X121149999Y-62755682D01*
X121150000Y-62755682D01*
X121181302Y-62751560D01*
X121197487Y-62750500D01*
X140035138Y-62750500D01*
X140051322Y-62751560D01*
X140082625Y-62755682D01*
X140082626Y-62755682D01*
X140134879Y-62748802D01*
X140239387Y-62735044D01*
X140385466Y-62674536D01*
X140478807Y-62602913D01*
X140510907Y-62578282D01*
X140530134Y-62553223D01*
X140540815Y-62541043D01*
X140749095Y-62332763D01*
X140810416Y-62299280D01*
X140868863Y-62300670D01*
X140997217Y-62335063D01*
X141180002Y-62351055D01*
X141232624Y-62355659D01*
X141232625Y-62355659D01*
X141232626Y-62355659D01*
X141271859Y-62352226D01*
X141468033Y-62335063D01*
X141696288Y-62273903D01*
X141910455Y-62174035D01*
X142104026Y-62038495D01*
X142271120Y-61871401D01*
X142401355Y-61685405D01*
X142455932Y-61641781D01*
X142525430Y-61634587D01*
X142587785Y-61666110D01*
X142604504Y-61685405D01*
X142734515Y-61871078D01*
X142901542Y-62038105D01*
X143095046Y-62173600D01*
X143309132Y-62273429D01*
X143309141Y-62273433D01*
X143522625Y-62330634D01*
X143522625Y-61435501D01*
X143630310Y-61484680D01*
X143736862Y-61500000D01*
X143808388Y-61500000D01*
X143914940Y-61484680D01*
X144022625Y-61435501D01*
X144022625Y-62330633D01*
X144236108Y-62273433D01*
X144236117Y-62273429D01*
X144450203Y-62173600D01*
X144643707Y-62038105D01*
X144810730Y-61871082D01*
X144941050Y-61684968D01*
X144995627Y-61641344D01*
X145065126Y-61634151D01*
X145127480Y-61665673D01*
X145144200Y-61684968D01*
X145274519Y-61871082D01*
X145441542Y-62038105D01*
X145635046Y-62173600D01*
X145849132Y-62273429D01*
X145849141Y-62273433D01*
X146062625Y-62330634D01*
X146062625Y-61435501D01*
X146170310Y-61484680D01*
X146276862Y-61500000D01*
X146348388Y-61500000D01*
X146454940Y-61484680D01*
X146562625Y-61435501D01*
X146562625Y-62330633D01*
X146776108Y-62273433D01*
X146776117Y-62273429D01*
X146990203Y-62173600D01*
X147183707Y-62038105D01*
X147350730Y-61871082D01*
X147481050Y-61684968D01*
X147535627Y-61641344D01*
X147605126Y-61634151D01*
X147667480Y-61665673D01*
X147684200Y-61684968D01*
X147814519Y-61871082D01*
X147981542Y-62038105D01*
X148175046Y-62173600D01*
X148389132Y-62273429D01*
X148389141Y-62273433D01*
X148602625Y-62330634D01*
X148602625Y-61435501D01*
X148710310Y-61484680D01*
X148816862Y-61500000D01*
X148888388Y-61500000D01*
X148994940Y-61484680D01*
X149102625Y-61435501D01*
X149102625Y-62330634D01*
X149316108Y-62273433D01*
X149316117Y-62273429D01*
X149530203Y-62173600D01*
X149723707Y-62038105D01*
X149890730Y-61871082D01*
X150021050Y-61684968D01*
X150075627Y-61641344D01*
X150145126Y-61634151D01*
X150207480Y-61665673D01*
X150224200Y-61684968D01*
X150354519Y-61871082D01*
X150521542Y-62038105D01*
X150715046Y-62173600D01*
X150929132Y-62273429D01*
X150929141Y-62273433D01*
X151142625Y-62330634D01*
X151142625Y-61435501D01*
X151250310Y-61484680D01*
X151356862Y-61500000D01*
X151428388Y-61500000D01*
X151534940Y-61484680D01*
X151642625Y-61435501D01*
X151642625Y-62330633D01*
X151856108Y-62273433D01*
X151856117Y-62273429D01*
X152070203Y-62173600D01*
X152263707Y-62038105D01*
X152430730Y-61871082D01*
X152560744Y-61685405D01*
X152615321Y-61641781D01*
X152684820Y-61634588D01*
X152747174Y-61666110D01*
X152763894Y-61685405D01*
X152894130Y-61871401D01*
X153061224Y-62038495D01*
X153064999Y-62041138D01*
X153254790Y-62174032D01*
X153254792Y-62174033D01*
X153254795Y-62174035D01*
X153468962Y-62273903D01*
X153697217Y-62335063D01*
X153880002Y-62351055D01*
X153932624Y-62355659D01*
X153932625Y-62355659D01*
X153932626Y-62355659D01*
X153971859Y-62352226D01*
X154168033Y-62335063D01*
X154396288Y-62273903D01*
X154610455Y-62174035D01*
X154804026Y-62038495D01*
X154971120Y-61871401D01*
X155101050Y-61685842D01*
X155155627Y-61642217D01*
X155225125Y-61635023D01*
X155287480Y-61666546D01*
X155304200Y-61685842D01*
X155433906Y-61871082D01*
X155434130Y-61871401D01*
X155601224Y-62038495D01*
X155604999Y-62041138D01*
X155794790Y-62174032D01*
X155794792Y-62174033D01*
X155794795Y-62174035D01*
X156008962Y-62273903D01*
X156237217Y-62335063D01*
X156420002Y-62351055D01*
X156472624Y-62355659D01*
X156472625Y-62355659D01*
X156472626Y-62355659D01*
X156511859Y-62352226D01*
X156708033Y-62335063D01*
X156936288Y-62273903D01*
X157150455Y-62174035D01*
X157344026Y-62038495D01*
X157511120Y-61871401D01*
X157641050Y-61685842D01*
X157695627Y-61642217D01*
X157765125Y-61635023D01*
X157827480Y-61666546D01*
X157844200Y-61685842D01*
X157973906Y-61871082D01*
X157974130Y-61871401D01*
X158141224Y-62038495D01*
X158144999Y-62041138D01*
X158334790Y-62174032D01*
X158334792Y-62174033D01*
X158334795Y-62174035D01*
X158548962Y-62273903D01*
X158777217Y-62335063D01*
X158960002Y-62351055D01*
X159012624Y-62355659D01*
X159012625Y-62355659D01*
X159012626Y-62355659D01*
X159051859Y-62352226D01*
X159248033Y-62335063D01*
X159476288Y-62273903D01*
X159690455Y-62174035D01*
X159884026Y-62038495D01*
X160051120Y-61871401D01*
X160181050Y-61685842D01*
X160235627Y-61642217D01*
X160305125Y-61635023D01*
X160367480Y-61666546D01*
X160384200Y-61685842D01*
X160513906Y-61871082D01*
X160514130Y-61871401D01*
X160681224Y-62038495D01*
X160684999Y-62041138D01*
X160874790Y-62174032D01*
X160874792Y-62174033D01*
X160874795Y-62174035D01*
X161088962Y-62273903D01*
X161317217Y-62335063D01*
X161500002Y-62351055D01*
X161552624Y-62355659D01*
X161552625Y-62355659D01*
X161552626Y-62355659D01*
X161591859Y-62352226D01*
X161788033Y-62335063D01*
X162016288Y-62273903D01*
X162230455Y-62174035D01*
X162424026Y-62038495D01*
X162591120Y-61871401D01*
X162721050Y-61685842D01*
X162775627Y-61642217D01*
X162845125Y-61635023D01*
X162907480Y-61666546D01*
X162924200Y-61685842D01*
X163053906Y-61871082D01*
X163054130Y-61871401D01*
X163221224Y-62038495D01*
X163224999Y-62041138D01*
X163414790Y-62174032D01*
X163414792Y-62174033D01*
X163414795Y-62174035D01*
X163628962Y-62273903D01*
X163857217Y-62335063D01*
X164040002Y-62351055D01*
X164092624Y-62355659D01*
X164092625Y-62355659D01*
X164092626Y-62355659D01*
X164131859Y-62352226D01*
X164328033Y-62335063D01*
X164556288Y-62273903D01*
X164770455Y-62174035D01*
X164964026Y-62038495D01*
X165131120Y-61871401D01*
X165261355Y-61685405D01*
X165315932Y-61641781D01*
X165385430Y-61634587D01*
X165447785Y-61666110D01*
X165464504Y-61685405D01*
X165594515Y-61871078D01*
X165761542Y-62038105D01*
X165955046Y-62173600D01*
X166169132Y-62273429D01*
X166169141Y-62273433D01*
X166382625Y-62330634D01*
X166382625Y-61435501D01*
X166490310Y-61484680D01*
X166596862Y-61500000D01*
X166668388Y-61500000D01*
X166774940Y-61484680D01*
X166882625Y-61435501D01*
X166882625Y-62330634D01*
X167096108Y-62273433D01*
X167096117Y-62273429D01*
X167310203Y-62173600D01*
X167503707Y-62038105D01*
X167670730Y-61871082D01*
X167806225Y-61677578D01*
X167906054Y-61463492D01*
X167906057Y-61463486D01*
X167963261Y-61250000D01*
X167066311Y-61250000D01*
X167092118Y-61209844D01*
X167132625Y-61071889D01*
X167132625Y-60928111D01*
X167092118Y-60790156D01*
X167066311Y-60750000D01*
X167963261Y-60750000D01*
X167963260Y-60749999D01*
X167906057Y-60536513D01*
X167906054Y-60536507D01*
X167806225Y-60322422D01*
X167806224Y-60322420D01*
X167670738Y-60128926D01*
X167670733Y-60128920D01*
X167541816Y-60000003D01*
X218994415Y-60000003D01*
X219014738Y-60348927D01*
X219014739Y-60348938D01*
X219075428Y-60693127D01*
X219075430Y-60693134D01*
X219175674Y-61027972D01*
X219314107Y-61348895D01*
X219314113Y-61348908D01*
X219488870Y-61651597D01*
X219697584Y-61931949D01*
X219697589Y-61931955D01*
X219722975Y-61958862D01*
X219937442Y-62186183D01*
X220048005Y-62278956D01*
X220205186Y-62410847D01*
X220205194Y-62410853D01*
X220497203Y-62602911D01*
X220497205Y-62602912D01*
X220497207Y-62602913D01*
X220809549Y-62759777D01*
X221137989Y-62879319D01*
X221478086Y-62959923D01*
X221825241Y-63000500D01*
X221825248Y-63000500D01*
X222174752Y-63000500D01*
X222174759Y-63000500D01*
X222521914Y-62959923D01*
X222862011Y-62879319D01*
X223190451Y-62759777D01*
X223502793Y-62602913D01*
X223794811Y-62410849D01*
X224062558Y-62186183D01*
X224302412Y-61931953D01*
X224511130Y-61651596D01*
X224685889Y-61348904D01*
X224824326Y-61027971D01*
X224924569Y-60693136D01*
X224928790Y-60669202D01*
X224983700Y-60357783D01*
X224985262Y-60348927D01*
X225005585Y-60000000D01*
X224985262Y-59651073D01*
X224984075Y-59644341D01*
X224924571Y-59306872D01*
X224924569Y-59306865D01*
X224924569Y-59306864D01*
X224824326Y-58972029D01*
X224685889Y-58651096D01*
X224546231Y-58409201D01*
X224511129Y-58348402D01*
X224302415Y-58068050D01*
X224302410Y-58068044D01*
X224186433Y-57945117D01*
X224062558Y-57813817D01*
X223914488Y-57689572D01*
X223794813Y-57589152D01*
X223794805Y-57589146D01*
X223502796Y-57397088D01*
X223190458Y-57240226D01*
X223190452Y-57240223D01*
X222862012Y-57120681D01*
X222862009Y-57120680D01*
X222521915Y-57040077D01*
X222478519Y-57035004D01*
X222174759Y-56999500D01*
X221825241Y-56999500D01*
X221521480Y-57035004D01*
X221478085Y-57040077D01*
X221478083Y-57040077D01*
X221137990Y-57120680D01*
X221137987Y-57120681D01*
X220809547Y-57240223D01*
X220809541Y-57240226D01*
X220497203Y-57397088D01*
X220205194Y-57589146D01*
X220205186Y-57589152D01*
X219937442Y-57813817D01*
X219937440Y-57813819D01*
X219697589Y-58068044D01*
X219697584Y-58068050D01*
X219488870Y-58348402D01*
X219314113Y-58651091D01*
X219314107Y-58651104D01*
X219175674Y-58972027D01*
X219075430Y-59306865D01*
X219075428Y-59306872D01*
X219014739Y-59651061D01*
X219014738Y-59651072D01*
X218994415Y-59999996D01*
X218994415Y-60000003D01*
X167541816Y-60000003D01*
X167503707Y-59961894D01*
X167310203Y-59826399D01*
X167096117Y-59726570D01*
X167096111Y-59726567D01*
X166882625Y-59669364D01*
X166882625Y-60564498D01*
X166774940Y-60515320D01*
X166668388Y-60500000D01*
X166596862Y-60500000D01*
X166490310Y-60515320D01*
X166382625Y-60564498D01*
X166382625Y-59669364D01*
X166382624Y-59669364D01*
X166169138Y-59726567D01*
X166169132Y-59726570D01*
X165955047Y-59826399D01*
X165955045Y-59826400D01*
X165761551Y-59961886D01*
X165761545Y-59961891D01*
X165594516Y-60128920D01*
X165594515Y-60128922D01*
X165464505Y-60314595D01*
X165409928Y-60358219D01*
X165340429Y-60365412D01*
X165278075Y-60333890D01*
X165261355Y-60314594D01*
X165131119Y-60128597D01*
X164964027Y-59961506D01*
X164964020Y-59961501D01*
X164770459Y-59825967D01*
X164770455Y-59825965D01*
X164727711Y-59806033D01*
X164556288Y-59726097D01*
X164556284Y-59726096D01*
X164556280Y-59726094D01*
X164328038Y-59664938D01*
X164328028Y-59664936D01*
X164092626Y-59644341D01*
X164092624Y-59644341D01*
X163857221Y-59664936D01*
X163857211Y-59664938D01*
X163628969Y-59726094D01*
X163628960Y-59726098D01*
X163414796Y-59825964D01*
X163414794Y-59825965D01*
X163221222Y-59961505D01*
X163054130Y-60128597D01*
X162924200Y-60314158D01*
X162869623Y-60357783D01*
X162800125Y-60364977D01*
X162737770Y-60333454D01*
X162721050Y-60314158D01*
X162591119Y-60128597D01*
X162424027Y-59961506D01*
X162424020Y-59961501D01*
X162230459Y-59825967D01*
X162230455Y-59825965D01*
X162187711Y-59806033D01*
X162016288Y-59726097D01*
X162016284Y-59726096D01*
X162016280Y-59726094D01*
X161788038Y-59664938D01*
X161788028Y-59664936D01*
X161552626Y-59644341D01*
X161552624Y-59644341D01*
X161317221Y-59664936D01*
X161317211Y-59664938D01*
X161088969Y-59726094D01*
X161088960Y-59726098D01*
X160874796Y-59825964D01*
X160874794Y-59825965D01*
X160681222Y-59961505D01*
X160514130Y-60128597D01*
X160384200Y-60314158D01*
X160329623Y-60357783D01*
X160260125Y-60364977D01*
X160197770Y-60333454D01*
X160181050Y-60314158D01*
X160051119Y-60128597D01*
X159884027Y-59961506D01*
X159884020Y-59961501D01*
X159690459Y-59825967D01*
X159690455Y-59825965D01*
X159647711Y-59806033D01*
X159476288Y-59726097D01*
X159476284Y-59726096D01*
X159476280Y-59726094D01*
X159248038Y-59664938D01*
X159248028Y-59664936D01*
X159012626Y-59644341D01*
X159012624Y-59644341D01*
X158777221Y-59664936D01*
X158777211Y-59664938D01*
X158548969Y-59726094D01*
X158548960Y-59726098D01*
X158334796Y-59825964D01*
X158334794Y-59825965D01*
X158141222Y-59961505D01*
X157974130Y-60128597D01*
X157844200Y-60314158D01*
X157789623Y-60357783D01*
X157720125Y-60364977D01*
X157657770Y-60333454D01*
X157641050Y-60314158D01*
X157511119Y-60128597D01*
X157344027Y-59961506D01*
X157344020Y-59961501D01*
X157150459Y-59825967D01*
X157150455Y-59825965D01*
X157107711Y-59806033D01*
X156936288Y-59726097D01*
X156936284Y-59726096D01*
X156936280Y-59726094D01*
X156708038Y-59664938D01*
X156708028Y-59664936D01*
X156472626Y-59644341D01*
X156472624Y-59644341D01*
X156237221Y-59664936D01*
X156237211Y-59664938D01*
X156008969Y-59726094D01*
X156008960Y-59726098D01*
X155794796Y-59825964D01*
X155794794Y-59825965D01*
X155601222Y-59961505D01*
X155434130Y-60128597D01*
X155304200Y-60314158D01*
X155249623Y-60357783D01*
X155180125Y-60364977D01*
X155117770Y-60333454D01*
X155101050Y-60314158D01*
X154971119Y-60128597D01*
X154804027Y-59961506D01*
X154804020Y-59961501D01*
X154610459Y-59825967D01*
X154610455Y-59825965D01*
X154567711Y-59806033D01*
X154396288Y-59726097D01*
X154396284Y-59726096D01*
X154396280Y-59726094D01*
X154168038Y-59664938D01*
X154168028Y-59664936D01*
X153932626Y-59644341D01*
X153932624Y-59644341D01*
X153697221Y-59664936D01*
X153697211Y-59664938D01*
X153468969Y-59726094D01*
X153468960Y-59726098D01*
X153254796Y-59825964D01*
X153254794Y-59825965D01*
X153061222Y-59961505D01*
X152894133Y-60128594D01*
X152763894Y-60314595D01*
X152709317Y-60358219D01*
X152639818Y-60365412D01*
X152577464Y-60333890D01*
X152560744Y-60314594D01*
X152430738Y-60128926D01*
X152430733Y-60128920D01*
X152263707Y-59961894D01*
X152070203Y-59826399D01*
X151856117Y-59726570D01*
X151856111Y-59726567D01*
X151642625Y-59669364D01*
X151642625Y-60564498D01*
X151534940Y-60515320D01*
X151428388Y-60500000D01*
X151356862Y-60500000D01*
X151250310Y-60515320D01*
X151142625Y-60564498D01*
X151142625Y-59669364D01*
X151142624Y-59669364D01*
X150929138Y-59726567D01*
X150929132Y-59726570D01*
X150715047Y-59826399D01*
X150715045Y-59826400D01*
X150521551Y-59961886D01*
X150521545Y-59961891D01*
X150354516Y-60128920D01*
X150354515Y-60128922D01*
X150224200Y-60315031D01*
X150169623Y-60358655D01*
X150100124Y-60365848D01*
X150037770Y-60334326D01*
X150021050Y-60315031D01*
X149890734Y-60128922D01*
X149890733Y-60128920D01*
X149723707Y-59961894D01*
X149530203Y-59826399D01*
X149316117Y-59726570D01*
X149316111Y-59726567D01*
X149102625Y-59669364D01*
X149102625Y-60564498D01*
X148994940Y-60515320D01*
X148888388Y-60500000D01*
X148816862Y-60500000D01*
X148710310Y-60515320D01*
X148602625Y-60564498D01*
X148602625Y-59669364D01*
X148602624Y-59669364D01*
X148389138Y-59726567D01*
X148389132Y-59726570D01*
X148175047Y-59826399D01*
X148175045Y-59826400D01*
X147981551Y-59961886D01*
X147981545Y-59961891D01*
X147814516Y-60128920D01*
X147814515Y-60128922D01*
X147684200Y-60315031D01*
X147629623Y-60358655D01*
X147560124Y-60365848D01*
X147497770Y-60334326D01*
X147481050Y-60315031D01*
X147350734Y-60128922D01*
X147350733Y-60128920D01*
X147183707Y-59961894D01*
X146990203Y-59826399D01*
X146776117Y-59726570D01*
X146776111Y-59726567D01*
X146562625Y-59669364D01*
X146562625Y-60564498D01*
X146454940Y-60515320D01*
X146348388Y-60500000D01*
X146276862Y-60500000D01*
X146170310Y-60515320D01*
X146062625Y-60564498D01*
X146062625Y-59669364D01*
X146062624Y-59669364D01*
X145849138Y-59726567D01*
X145849132Y-59726570D01*
X145635047Y-59826399D01*
X145635045Y-59826400D01*
X145441551Y-59961886D01*
X145441545Y-59961891D01*
X145274516Y-60128920D01*
X145274515Y-60128922D01*
X145144200Y-60315031D01*
X145089623Y-60358655D01*
X145020124Y-60365848D01*
X144957770Y-60334326D01*
X144941050Y-60315031D01*
X144810734Y-60128922D01*
X144810733Y-60128920D01*
X144643707Y-59961894D01*
X144450203Y-59826399D01*
X144236117Y-59726570D01*
X144236111Y-59726567D01*
X144022625Y-59669364D01*
X144022625Y-60564498D01*
X143914940Y-60515320D01*
X143808388Y-60500000D01*
X143736862Y-60500000D01*
X143630310Y-60515320D01*
X143522625Y-60564498D01*
X143522625Y-59669364D01*
X143522624Y-59669364D01*
X143309138Y-59726567D01*
X143309132Y-59726570D01*
X143095047Y-59826399D01*
X143095045Y-59826400D01*
X142901551Y-59961886D01*
X142901545Y-59961891D01*
X142734516Y-60128920D01*
X142734515Y-60128922D01*
X142604505Y-60314595D01*
X142549928Y-60358219D01*
X142480429Y-60365412D01*
X142418075Y-60333890D01*
X142401355Y-60314594D01*
X142271119Y-60128597D01*
X142104027Y-59961506D01*
X142104020Y-59961501D01*
X141910459Y-59825967D01*
X141910455Y-59825965D01*
X141867711Y-59806033D01*
X141696288Y-59726097D01*
X141696284Y-59726096D01*
X141696280Y-59726094D01*
X141468038Y-59664938D01*
X141468028Y-59664936D01*
X141232626Y-59644341D01*
X141232624Y-59644341D01*
X140997221Y-59664936D01*
X140997211Y-59664938D01*
X140768969Y-59726094D01*
X140768960Y-59726098D01*
X140554796Y-59825964D01*
X140554794Y-59825965D01*
X140361222Y-59961505D01*
X140194133Y-60128594D01*
X140063894Y-60314595D01*
X140009317Y-60358219D01*
X139939818Y-60365412D01*
X139877464Y-60333890D01*
X139860744Y-60314594D01*
X139730738Y-60128926D01*
X139730733Y-60128920D01*
X139563707Y-59961894D01*
X139370203Y-59826399D01*
X139156117Y-59726570D01*
X139156111Y-59726567D01*
X138942625Y-59669364D01*
X138942625Y-60564498D01*
X138834940Y-60515320D01*
X138728388Y-60500000D01*
X138656862Y-60500000D01*
X138550310Y-60515320D01*
X138442625Y-60564498D01*
X138442625Y-59669364D01*
X138442624Y-59669364D01*
X138229138Y-59726567D01*
X138229132Y-59726570D01*
X138015047Y-59826399D01*
X138015045Y-59826400D01*
X137821551Y-59961886D01*
X137821545Y-59961891D01*
X137654516Y-60128920D01*
X137654515Y-60128922D01*
X137524505Y-60314595D01*
X137469928Y-60358219D01*
X137400429Y-60365412D01*
X137338075Y-60333890D01*
X137321355Y-60314594D01*
X137191119Y-60128597D01*
X137024027Y-59961506D01*
X137024020Y-59961501D01*
X136830459Y-59825967D01*
X136830455Y-59825965D01*
X136787711Y-59806033D01*
X136616288Y-59726097D01*
X136616284Y-59726096D01*
X136616280Y-59726094D01*
X136388038Y-59664938D01*
X136388028Y-59664936D01*
X136152626Y-59644341D01*
X136152624Y-59644341D01*
X135917221Y-59664936D01*
X135917208Y-59664939D01*
X135788866Y-59699327D01*
X135719017Y-59697664D01*
X135669093Y-59667233D01*
X135210824Y-59208964D01*
X135200129Y-59196769D01*
X135200127Y-59196767D01*
X135180907Y-59171718D01*
X135055466Y-59075464D01*
X134909387Y-59014956D01*
X134909385Y-59014955D01*
X134791986Y-58999500D01*
X134752625Y-58994318D01*
X134721322Y-58998439D01*
X134705138Y-58999500D01*
X114374425Y-58999500D01*
X114358240Y-58998439D01*
X114326938Y-58994318D01*
X114326937Y-58994318D01*
X114170177Y-59014955D01*
X114170172Y-59014957D01*
X114024101Y-59075461D01*
X114024096Y-59075464D01*
X113930154Y-59147547D01*
X113930155Y-59147548D01*
X113898655Y-59171719D01*
X113879435Y-59196767D01*
X113868742Y-59208959D01*
X113301590Y-59776113D01*
X113289399Y-59786805D01*
X113264343Y-59806032D01*
X113240174Y-59837528D01*
X113240175Y-59837529D01*
X113168089Y-59931473D01*
X113168086Y-59931478D01*
X113107582Y-60077549D01*
X113107580Y-60077554D01*
X113086943Y-60234313D01*
X113086943Y-60234314D01*
X113091064Y-60265616D01*
X113092125Y-60281802D01*
X113092125Y-84452512D01*
X113091064Y-84468697D01*
X113086943Y-84499998D01*
X113086943Y-84500000D01*
X103500500Y-84500000D01*
X103500500Y-60000003D01*
X103994415Y-60000003D01*
X104014738Y-60348927D01*
X104014739Y-60348938D01*
X104075428Y-60693127D01*
X104075430Y-60693134D01*
X104175674Y-61027972D01*
X104314107Y-61348895D01*
X104314113Y-61348908D01*
X104488870Y-61651597D01*
X104697584Y-61931949D01*
X104697589Y-61931955D01*
X104722975Y-61958862D01*
X104937442Y-62186183D01*
X105048005Y-62278956D01*
X105205186Y-62410847D01*
X105205194Y-62410853D01*
X105497203Y-62602911D01*
X105497205Y-62602912D01*
X105497207Y-62602913D01*
X105809549Y-62759777D01*
X106137989Y-62879319D01*
X106478086Y-62959923D01*
X106825241Y-63000500D01*
X106825248Y-63000500D01*
X107174752Y-63000500D01*
X107174759Y-63000500D01*
X107521914Y-62959923D01*
X107862011Y-62879319D01*
X108190451Y-62759777D01*
X108502793Y-62602913D01*
X108794811Y-62410849D01*
X109062558Y-62186183D01*
X109302412Y-61931953D01*
X109511130Y-61651596D01*
X109685889Y-61348904D01*
X109824326Y-61027971D01*
X109924569Y-60693136D01*
X109928790Y-60669202D01*
X109983700Y-60357783D01*
X109985262Y-60348927D01*
X110005585Y-60000000D01*
X109985262Y-59651073D01*
X109984075Y-59644341D01*
X109924571Y-59306872D01*
X109924569Y-59306865D01*
X109924569Y-59306864D01*
X109824326Y-58972029D01*
X109685889Y-58651096D01*
X109546231Y-58409201D01*
X109511129Y-58348402D01*
X109302415Y-58068050D01*
X109302410Y-58068044D01*
X109186433Y-57945117D01*
X109062558Y-57813817D01*
X108914488Y-57689572D01*
X108794813Y-57589152D01*
X108794805Y-57589146D01*
X108502796Y-57397088D01*
X108190458Y-57240226D01*
X108190452Y-57240223D01*
X107862012Y-57120681D01*
X107862009Y-57120680D01*
X107521915Y-57040077D01*
X107478519Y-57035004D01*
X107174759Y-56999500D01*
X106825241Y-56999500D01*
X106521480Y-57035004D01*
X106478085Y-57040077D01*
X106478083Y-57040077D01*
X106137990Y-57120680D01*
X106137987Y-57120681D01*
X105809547Y-57240223D01*
X105809541Y-57240226D01*
X105497203Y-57397088D01*
X105205194Y-57589146D01*
X105205186Y-57589152D01*
X104937442Y-57813817D01*
X104937440Y-57813819D01*
X104697589Y-58068044D01*
X104697584Y-58068050D01*
X104488870Y-58348402D01*
X104314113Y-58651091D01*
X104314107Y-58651104D01*
X104175674Y-58972027D01*
X104075430Y-59306865D01*
X104075428Y-59306872D01*
X104014739Y-59651061D01*
X104014738Y-59651072D01*
X103994415Y-59999996D01*
X103994415Y-60000003D01*
X103500500Y-60000003D01*
X103500500Y-59003750D01*
X103500726Y-58996263D01*
X103518271Y-58706205D01*
X103520076Y-58691340D01*
X103571780Y-58409201D01*
X103575364Y-58394663D01*
X103589779Y-58348404D01*
X103660696Y-58120822D01*
X103665998Y-58106841D01*
X103783731Y-57845249D01*
X103790676Y-57832016D01*
X103939080Y-57586526D01*
X103947567Y-57574230D01*
X104124480Y-57348417D01*
X104134395Y-57337226D01*
X104337226Y-57134395D01*
X104348417Y-57124480D01*
X104574230Y-56947567D01*
X104586526Y-56939080D01*
X104832016Y-56790676D01*
X104845249Y-56783731D01*
X105106841Y-56665998D01*
X105120822Y-56660696D01*
X105394668Y-56575362D01*
X105409197Y-56571780D01*
X105691344Y-56520075D01*
X105706201Y-56518271D01*
X105996264Y-56500726D01*
X106003751Y-56500500D01*
X106065892Y-56500500D01*
X222934108Y-56500500D01*
X222996249Y-56500500D01*
X223003736Y-56500726D01*
G37*
%TD.AperFunction*%
%TD*%
M02*
