%TF.GenerationSoftware,KiCad,Pcbnew,7.0.11-7.0.11~ubuntu22.04.1*%
%TF.CreationDate,2024-03-26T17:41:39+01:00*%
%TF.ProjectId,laserreceiver,6c617365-7272-4656-9365-697665722e6b,rev?*%
%TF.SameCoordinates,Original*%
%TF.FileFunction,Drillmap*%
%TF.FilePolarity,Positive*%
%FSLAX45Y45*%
G04 Gerber Fmt 4.5, Leading zero omitted, Abs format (unit mm)*
G04 Created by KiCad (PCBNEW 7.0.11-7.0.11~ubuntu22.04.1) date 2024-03-26 17:41:39*
%MOMM*%
%LPD*%
G01*
G04 APERTURE LIST*
%ADD10C,0.050000*%
%ADD11C,0.200000*%
G04 APERTURE END LIST*
D10*
X16800000Y-8900000D02*
G75*
G03*
X16650000Y-8750000I-150000J0D01*
G01*
X16650000Y-8750000D02*
X13100000Y-8750000D01*
X16650000Y-10150000D02*
G75*
G03*
X16800000Y-10000000I0J150000D01*
G01*
X13100000Y-8750000D02*
G75*
G03*
X12950000Y-8900000I0J-150000D01*
G01*
X13100000Y-10150000D02*
X16650000Y-10150000D01*
X16800000Y-10000000D02*
X16800000Y-8900000D01*
X12950000Y-8900000D02*
X12950000Y-10000000D01*
X12950000Y-10000000D02*
G75*
G03*
X13100000Y-10150000I150000J0D01*
G01*
D11*
X13208277Y-10463984D02*
X13208277Y-10263984D01*
X13208277Y-10263984D02*
X13255896Y-10263984D01*
X13255896Y-10263984D02*
X13284467Y-10273508D01*
X13284467Y-10273508D02*
X13303515Y-10292555D01*
X13303515Y-10292555D02*
X13313039Y-10311603D01*
X13313039Y-10311603D02*
X13322562Y-10349698D01*
X13322562Y-10349698D02*
X13322562Y-10378270D01*
X13322562Y-10378270D02*
X13313039Y-10416365D01*
X13313039Y-10416365D02*
X13303515Y-10435412D01*
X13303515Y-10435412D02*
X13284467Y-10454460D01*
X13284467Y-10454460D02*
X13255896Y-10463984D01*
X13255896Y-10463984D02*
X13208277Y-10463984D01*
X13408277Y-10463984D02*
X13408277Y-10330650D01*
X13408277Y-10368746D02*
X13417801Y-10349698D01*
X13417801Y-10349698D02*
X13427324Y-10340174D01*
X13427324Y-10340174D02*
X13446372Y-10330650D01*
X13446372Y-10330650D02*
X13465420Y-10330650D01*
X13532086Y-10463984D02*
X13532086Y-10330650D01*
X13532086Y-10263984D02*
X13522562Y-10273508D01*
X13522562Y-10273508D02*
X13532086Y-10283031D01*
X13532086Y-10283031D02*
X13541610Y-10273508D01*
X13541610Y-10273508D02*
X13532086Y-10263984D01*
X13532086Y-10263984D02*
X13532086Y-10283031D01*
X13655896Y-10463984D02*
X13636848Y-10454460D01*
X13636848Y-10454460D02*
X13627324Y-10435412D01*
X13627324Y-10435412D02*
X13627324Y-10263984D01*
X13760658Y-10463984D02*
X13741610Y-10454460D01*
X13741610Y-10454460D02*
X13732086Y-10435412D01*
X13732086Y-10435412D02*
X13732086Y-10263984D01*
X13989229Y-10463984D02*
X13989229Y-10263984D01*
X13989229Y-10263984D02*
X14055896Y-10406841D01*
X14055896Y-10406841D02*
X14122562Y-10263984D01*
X14122562Y-10263984D02*
X14122562Y-10463984D01*
X14303515Y-10463984D02*
X14303515Y-10359222D01*
X14303515Y-10359222D02*
X14293991Y-10340174D01*
X14293991Y-10340174D02*
X14274943Y-10330650D01*
X14274943Y-10330650D02*
X14236848Y-10330650D01*
X14236848Y-10330650D02*
X14217801Y-10340174D01*
X14303515Y-10454460D02*
X14284467Y-10463984D01*
X14284467Y-10463984D02*
X14236848Y-10463984D01*
X14236848Y-10463984D02*
X14217801Y-10454460D01*
X14217801Y-10454460D02*
X14208277Y-10435412D01*
X14208277Y-10435412D02*
X14208277Y-10416365D01*
X14208277Y-10416365D02*
X14217801Y-10397317D01*
X14217801Y-10397317D02*
X14236848Y-10387793D01*
X14236848Y-10387793D02*
X14284467Y-10387793D01*
X14284467Y-10387793D02*
X14303515Y-10378270D01*
X14398753Y-10330650D02*
X14398753Y-10530650D01*
X14398753Y-10340174D02*
X14417801Y-10330650D01*
X14417801Y-10330650D02*
X14455896Y-10330650D01*
X14455896Y-10330650D02*
X14474943Y-10340174D01*
X14474943Y-10340174D02*
X14484467Y-10349698D01*
X14484467Y-10349698D02*
X14493991Y-10368746D01*
X14493991Y-10368746D02*
X14493991Y-10425889D01*
X14493991Y-10425889D02*
X14484467Y-10444936D01*
X14484467Y-10444936D02*
X14474943Y-10454460D01*
X14474943Y-10454460D02*
X14455896Y-10463984D01*
X14455896Y-10463984D02*
X14417801Y-10463984D01*
X14417801Y-10463984D02*
X14398753Y-10454460D01*
X14579705Y-10444936D02*
X14589229Y-10454460D01*
X14589229Y-10454460D02*
X14579705Y-10463984D01*
X14579705Y-10463984D02*
X14570182Y-10454460D01*
X14570182Y-10454460D02*
X14579705Y-10444936D01*
X14579705Y-10444936D02*
X14579705Y-10463984D01*
X14579705Y-10340174D02*
X14589229Y-10349698D01*
X14589229Y-10349698D02*
X14579705Y-10359222D01*
X14579705Y-10359222D02*
X14570182Y-10349698D01*
X14570182Y-10349698D02*
X14579705Y-10340174D01*
X14579705Y-10340174D02*
X14579705Y-10359222D01*
M02*
