%TF.GenerationSoftware,KiCad,Pcbnew,7.0.11-7.0.11~ubuntu22.04.1*%
%TF.CreationDate,2024-03-25T14:33:56+01:00*%
%TF.ProjectId,sensorshield,73656e73-6f72-4736-9869-656c642e6b69,rev?*%
%TF.SameCoordinates,Original*%
%TF.FileFunction,Copper,L1,Top*%
%TF.FilePolarity,Positive*%
%FSLAX46Y46*%
G04 Gerber Fmt 4.6, Leading zero omitted, Abs format (unit mm)*
G04 Created by KiCad (PCBNEW 7.0.11-7.0.11~ubuntu22.04.1) date 2024-03-25 14:33:56*
%MOMM*%
%LPD*%
G01*
G04 APERTURE LIST*
G04 Aperture macros list*
%AMRoundRect*
0 Rectangle with rounded corners*
0 $1 Rounding radius*
0 $2 $3 $4 $5 $6 $7 $8 $9 X,Y pos of 4 corners*
0 Add a 4 corners polygon primitive as box body*
4,1,4,$2,$3,$4,$5,$6,$7,$8,$9,$2,$3,0*
0 Add four circle primitives for the rounded corners*
1,1,$1+$1,$2,$3*
1,1,$1+$1,$4,$5*
1,1,$1+$1,$6,$7*
1,1,$1+$1,$8,$9*
0 Add four rect primitives between the rounded corners*
20,1,$1+$1,$2,$3,$4,$5,0*
20,1,$1+$1,$4,$5,$6,$7,0*
20,1,$1+$1,$6,$7,$8,$9,0*
20,1,$1+$1,$8,$9,$2,$3,0*%
G04 Aperture macros list end*
%TA.AperFunction,SMDPad,CuDef*%
%ADD10RoundRect,0.250000X-0.350000X-0.450000X0.350000X-0.450000X0.350000X0.450000X-0.350000X0.450000X0*%
%TD*%
%TA.AperFunction,SMDPad,CuDef*%
%ADD11RoundRect,0.250000X0.337500X0.475000X-0.337500X0.475000X-0.337500X-0.475000X0.337500X-0.475000X0*%
%TD*%
%TA.AperFunction,ComponentPad*%
%ADD12R,2.600000X2.600000*%
%TD*%
%TA.AperFunction,ComponentPad*%
%ADD13C,2.600000*%
%TD*%
%TA.AperFunction,SMDPad,CuDef*%
%ADD14RoundRect,0.150000X0.825000X0.150000X-0.825000X0.150000X-0.825000X-0.150000X0.825000X-0.150000X0*%
%TD*%
%TA.AperFunction,ViaPad*%
%ADD15C,0.600000*%
%TD*%
%TA.AperFunction,ViaPad*%
%ADD16C,1.500000*%
%TD*%
%TA.AperFunction,Conductor*%
%ADD17C,0.200000*%
%TD*%
G04 APERTURE END LIST*
D10*
%TO.P,R1,1*%
%TO.N,+5V*%
X138500000Y-117000000D03*
%TO.P,R1,2*%
%TO.N,Net-(J2-Pin_2)*%
X140500000Y-117000000D03*
%TD*%
%TO.P,R4,1*%
%TO.N,+5V*%
X134500000Y-117000000D03*
%TO.P,R4,2*%
%TO.N,Net-(U1-ADR)*%
X136500000Y-117000000D03*
%TD*%
%TO.P,R2,1*%
%TO.N,+5V*%
X138500000Y-115000000D03*
%TO.P,R2,2*%
%TO.N,Net-(J2-Pin_3)*%
X140500000Y-115000000D03*
%TD*%
%TO.P,R3,1*%
%TO.N,Net-(U1-ADR)*%
X134500000Y-115000000D03*
%TO.P,R3,2*%
%TO.N,GND*%
X136500000Y-115000000D03*
%TD*%
D11*
%TO.P,C1,1*%
%TO.N,+5V*%
X129000000Y-116500000D03*
%TO.P,C1,2*%
%TO.N,GND*%
X126925000Y-116500000D03*
%TD*%
D12*
%TO.P,J2,1,Pin_1*%
%TO.N,+5V*%
X147045000Y-125750000D03*
D13*
%TO.P,J2,2,Pin_2*%
%TO.N,Net-(J2-Pin_2)*%
X147045000Y-122250000D03*
%TO.P,J2,3,Pin_3*%
%TO.N,Net-(J2-Pin_3)*%
X147045000Y-118750000D03*
%TO.P,J2,4,Pin_4*%
%TO.N,GND*%
X147045000Y-115250000D03*
%TD*%
D14*
%TO.P,U1,1,NC*%
%TO.N,GND*%
X130475000Y-122405000D03*
%TO.P,U1,2,VSS*%
X130475000Y-121135000D03*
%TO.P,U1,3,ADR*%
%TO.N,Net-(U1-ADR)*%
X130475000Y-119865000D03*
%TO.P,U1,4,VDD*%
%TO.N,+5V*%
X130475000Y-118595000D03*
%TO.P,U1,5,TEST*%
%TO.N,GND*%
X125525000Y-118595000D03*
%TO.P,U1,6,SDA*%
%TO.N,Net-(J2-Pin_3)*%
X125525000Y-119865000D03*
%TO.P,U1,7,SCL*%
%TO.N,Net-(J2-Pin_2)*%
X125525000Y-121135000D03*
%TO.P,U1,8,NC*%
%TO.N,GND*%
X125525000Y-122405000D03*
%TD*%
D15*
%TO.N,GND*%
X128000000Y-120500000D03*
X143500000Y-120500000D03*
X141000000Y-127500000D03*
X126000000Y-126000000D03*
X132000000Y-116500000D03*
D16*
%TO.N,*%
X124000000Y-127500000D03*
X131500000Y-113500000D03*
X124000000Y-113500000D03*
X131500000Y-127500000D03*
%TD*%
D17*
%TO.N,Net-(J2-Pin_2)*%
X125525000Y-121135000D02*
X124550001Y-121135000D01*
X142095000Y-124000000D02*
X145445000Y-127350000D01*
X124550001Y-121135000D02*
X124000000Y-121685001D01*
X124000000Y-121685001D02*
X124000000Y-122495552D01*
X125504448Y-124000000D02*
X142095000Y-124000000D01*
X124000000Y-122495552D02*
X125504448Y-124000000D01*
X145445000Y-127350000D02*
X148645000Y-127350000D01*
X148645000Y-127350000D02*
X148645000Y-123850000D01*
X148645000Y-123850000D02*
X147045000Y-122250000D01*
%TO.N,Net-(U1-ADR)*%
X130475000Y-119865000D02*
X129500001Y-119865000D01*
X129500001Y-119865000D02*
X128112500Y-118477499D01*
X128112500Y-118477499D02*
X128112500Y-115790256D01*
X128112500Y-115790256D02*
X128902756Y-115000000D01*
X128902756Y-115000000D02*
X134500000Y-115000000D01*
X134500000Y-115000000D02*
X136500000Y-117000000D01*
%TO.N,Net-(J2-Pin_3)*%
X125525000Y-119865000D02*
X124550001Y-119865000D01*
X124250000Y-119564999D02*
X124250000Y-117577756D01*
X124550001Y-119865000D02*
X124250000Y-119564999D01*
X148645000Y-114587258D02*
X148645000Y-117150000D01*
X124250000Y-117577756D02*
X127277756Y-114550000D01*
X134315256Y-113600000D02*
X147657742Y-113600000D01*
X127277756Y-114550000D02*
X133365256Y-114550000D01*
X133365256Y-114550000D02*
X134315256Y-113600000D01*
X147657742Y-113600000D02*
X148645000Y-114587258D01*
X148645000Y-117150000D02*
X147045000Y-118750000D01*
%TO.N,GND*%
X147045000Y-115250000D02*
X145795000Y-114000000D01*
X145795000Y-114000000D02*
X137500000Y-114000000D01*
X137500000Y-114000000D02*
X136500000Y-115000000D01*
%TO.N,Net-(J2-Pin_2)*%
X147045000Y-122250000D02*
X141795000Y-117000000D01*
X141795000Y-117000000D02*
X140500000Y-117000000D01*
%TO.N,Net-(J2-Pin_3)*%
X147045000Y-118750000D02*
X144250000Y-118750000D01*
X144250000Y-118750000D02*
X140500000Y-115000000D01*
%TO.N,+5V*%
X138500000Y-117000000D02*
X138500000Y-117205000D01*
X138500000Y-117205000D02*
X147045000Y-125750000D01*
X138500000Y-117000000D02*
X138500000Y-115000000D01*
X134500000Y-117000000D02*
X135500000Y-118000000D01*
X135500000Y-118000000D02*
X137500000Y-118000000D01*
X137500000Y-118000000D02*
X138500000Y-117000000D01*
X130475000Y-118595000D02*
X132905000Y-118595000D01*
X132905000Y-118595000D02*
X134500000Y-117000000D01*
X130475000Y-118595000D02*
X129000000Y-117120000D01*
X129000000Y-117120000D02*
X129000000Y-116500000D01*
%TD*%
%TA.AperFunction,Conductor*%
%TO.N,GND*%
G36*
X130502115Y-112520185D02*
G01*
X130547870Y-112572989D01*
X130557814Y-112642147D01*
X130536651Y-112695623D01*
X130412900Y-112872357D01*
X130412898Y-112872361D01*
X130320426Y-113070668D01*
X130320422Y-113070677D01*
X130263793Y-113282020D01*
X130263793Y-113282024D01*
X130244723Y-113499997D01*
X130244723Y-113500002D01*
X130263793Y-113717975D01*
X130263793Y-113717979D01*
X130284004Y-113793407D01*
X130282341Y-113863257D01*
X130243178Y-113921119D01*
X130178949Y-113948623D01*
X130164229Y-113949500D01*
X127325243Y-113949500D01*
X127309058Y-113948439D01*
X127277756Y-113944318D01*
X127238395Y-113949500D01*
X127120995Y-113964955D01*
X127120993Y-113964956D01*
X126974916Y-114025463D01*
X126849470Y-114121721D01*
X126830251Y-114146769D01*
X126819556Y-114158964D01*
X123858965Y-117119554D01*
X123846774Y-117130246D01*
X123821718Y-117149473D01*
X123797549Y-117180969D01*
X123797550Y-117180970D01*
X123725464Y-117274914D01*
X123725461Y-117274919D01*
X123664957Y-117420990D01*
X123664955Y-117420995D01*
X123644318Y-117577754D01*
X123644318Y-117577756D01*
X123645903Y-117589797D01*
X123648439Y-117609057D01*
X123649500Y-117625243D01*
X123649500Y-119517511D01*
X123648439Y-119533696D01*
X123644318Y-119564997D01*
X123644318Y-119564999D01*
X123649500Y-119604359D01*
X123649500Y-119604360D01*
X123664955Y-119721759D01*
X123664956Y-119721761D01*
X123725464Y-119867840D01*
X123810058Y-119978085D01*
X123821719Y-119993282D01*
X123846769Y-120012503D01*
X123858964Y-120023198D01*
X124071683Y-120235918D01*
X124094046Y-120268824D01*
X124094285Y-120268684D01*
X124096522Y-120272467D01*
X124097804Y-120274353D01*
X124098257Y-120275401D01*
X124181916Y-120416861D01*
X124186702Y-120423031D01*
X124184256Y-120424927D01*
X124210857Y-120473642D01*
X124205873Y-120543334D01*
X124185069Y-120575703D01*
X124186702Y-120576969D01*
X124181916Y-120583138D01*
X124098256Y-120724599D01*
X124097802Y-120725651D01*
X124096517Y-120727540D01*
X124094285Y-120731316D01*
X124094047Y-120731175D01*
X124071683Y-120764081D01*
X123608965Y-121226799D01*
X123596774Y-121237491D01*
X123571718Y-121256718D01*
X123547549Y-121288214D01*
X123547550Y-121288215D01*
X123475464Y-121382159D01*
X123475461Y-121382164D01*
X123414957Y-121528235D01*
X123414955Y-121528240D01*
X123394318Y-121684999D01*
X123394318Y-121685001D01*
X123395375Y-121693026D01*
X123398439Y-121716302D01*
X123399500Y-121732488D01*
X123399500Y-122448064D01*
X123398439Y-122464249D01*
X123394318Y-122495550D01*
X123394318Y-122495552D01*
X123399500Y-122534912D01*
X123399500Y-122534913D01*
X123414955Y-122652312D01*
X123414956Y-122652314D01*
X123468756Y-122782200D01*
X123475464Y-122798393D01*
X123488359Y-122815198D01*
X123571719Y-122923835D01*
X123596769Y-122943056D01*
X123608964Y-122953751D01*
X125046247Y-124391034D01*
X125056941Y-124403228D01*
X125076163Y-124428279D01*
X125076164Y-124428280D01*
X125076166Y-124428282D01*
X125201607Y-124524536D01*
X125347686Y-124585044D01*
X125426067Y-124595363D01*
X125504447Y-124605682D01*
X125504448Y-124605682D01*
X125535750Y-124601560D01*
X125551935Y-124600500D01*
X141794903Y-124600500D01*
X141861942Y-124620185D01*
X141882584Y-124636819D01*
X144986799Y-127741034D01*
X144997493Y-127753228D01*
X145016715Y-127778279D01*
X145016716Y-127778280D01*
X145016718Y-127778282D01*
X145142159Y-127874536D01*
X145288238Y-127935044D01*
X145366619Y-127945363D01*
X145444999Y-127955682D01*
X145445000Y-127955682D01*
X145476302Y-127951560D01*
X145492487Y-127950500D01*
X148597513Y-127950500D01*
X148613697Y-127951560D01*
X148645000Y-127955682D01*
X148645001Y-127955682D01*
X148697254Y-127948802D01*
X148801762Y-127935044D01*
X148947841Y-127874536D01*
X149073282Y-127778282D01*
X149169536Y-127652841D01*
X149230044Y-127506762D01*
X149245500Y-127389361D01*
X149250682Y-127350000D01*
X149246561Y-127318697D01*
X149245500Y-127302512D01*
X149245500Y-123897487D01*
X149246561Y-123881301D01*
X149250682Y-123849999D01*
X149250682Y-123849998D01*
X149230044Y-123693239D01*
X149230044Y-123693238D01*
X149169536Y-123547159D01*
X149073282Y-123421718D01*
X149073280Y-123421716D01*
X149073279Y-123421715D01*
X149048228Y-123402493D01*
X149036034Y-123391799D01*
X148730811Y-123086576D01*
X148697326Y-123025253D01*
X148702310Y-122955561D01*
X148703032Y-122953673D01*
X148770334Y-122782195D01*
X148830383Y-122519103D01*
X148850549Y-122250000D01*
X148850310Y-122246817D01*
X148830383Y-121980898D01*
X148792138Y-121813334D01*
X148770334Y-121717805D01*
X148671743Y-121466602D01*
X148536815Y-121232898D01*
X148368561Y-121021915D01*
X148368560Y-121021914D01*
X148368557Y-121021910D01*
X148170741Y-120838365D01*
X147947775Y-120686349D01*
X147947771Y-120686347D01*
X147947768Y-120686345D01*
X147947767Y-120686344D01*
X147792806Y-120611720D01*
X147740946Y-120564898D01*
X147722633Y-120497471D01*
X147743681Y-120430847D01*
X147792806Y-120388280D01*
X147947767Y-120313655D01*
X147947767Y-120313654D01*
X147947775Y-120313651D01*
X148170741Y-120161635D01*
X148368561Y-119978085D01*
X148536815Y-119767102D01*
X148671743Y-119533398D01*
X148770334Y-119282195D01*
X148830383Y-119019103D01*
X148844905Y-118825315D01*
X148850549Y-118750004D01*
X148850549Y-118749995D01*
X148830383Y-118480898D01*
X148830383Y-118480897D01*
X148770334Y-118217805D01*
X148703063Y-118046405D01*
X148696895Y-117976809D01*
X148729333Y-117914925D01*
X148730751Y-117913482D01*
X149036043Y-117608190D01*
X149048223Y-117597509D01*
X149073282Y-117578282D01*
X149169536Y-117452841D01*
X149230044Y-117306762D01*
X149245500Y-117189361D01*
X149250682Y-117150000D01*
X149248081Y-117130246D01*
X149246561Y-117118697D01*
X149245500Y-117102512D01*
X149245500Y-114634745D01*
X149246561Y-114618559D01*
X149250682Y-114587257D01*
X149250682Y-114587256D01*
X149230044Y-114430497D01*
X149230042Y-114430492D01*
X149216253Y-114397203D01*
X149169536Y-114284417D01*
X149138967Y-114244579D01*
X149073282Y-114158976D01*
X149073281Y-114158975D01*
X149048228Y-114139751D01*
X149036034Y-114129057D01*
X148115941Y-113208964D01*
X148105246Y-113196769D01*
X148086025Y-113171719D01*
X148086021Y-113171716D01*
X147960583Y-113075464D01*
X147949026Y-113070677D01*
X147814504Y-113014956D01*
X147814502Y-113014955D01*
X147697103Y-112999500D01*
X147657742Y-112994318D01*
X147626439Y-112998439D01*
X147610255Y-112999500D01*
X134362743Y-112999500D01*
X134346558Y-112998439D01*
X134315256Y-112994318D01*
X134275895Y-112999500D01*
X134158495Y-113014955D01*
X134158493Y-113014956D01*
X134012413Y-113075464D01*
X133886974Y-113171716D01*
X133867745Y-113196775D01*
X133857054Y-113208965D01*
X133152840Y-113913181D01*
X133091517Y-113946666D01*
X133065159Y-113949500D01*
X132835771Y-113949500D01*
X132768732Y-113929815D01*
X132722977Y-113877011D01*
X132713033Y-113807853D01*
X132715996Y-113793407D01*
X132736206Y-113717979D01*
X132736207Y-113717977D01*
X132752805Y-113528254D01*
X132755277Y-113500002D01*
X132755277Y-113499997D01*
X132751569Y-113457618D01*
X132736207Y-113282023D01*
X132700381Y-113148318D01*
X132679577Y-113070677D01*
X132679576Y-113070676D01*
X132679575Y-113070670D01*
X132587102Y-112872362D01*
X132587100Y-112872359D01*
X132587099Y-112872357D01*
X132463349Y-112695623D01*
X132441022Y-112629417D01*
X132458032Y-112561650D01*
X132508980Y-112513837D01*
X132564924Y-112500500D01*
X151434108Y-112500500D01*
X151494587Y-112500500D01*
X151505394Y-112500972D01*
X151535721Y-112503625D01*
X151662755Y-112514739D01*
X151684035Y-112518491D01*
X151801188Y-112549882D01*
X151831369Y-112557969D01*
X151851681Y-112565362D01*
X151989915Y-112629822D01*
X152008633Y-112640629D01*
X152133582Y-112728119D01*
X152150140Y-112742013D01*
X152257986Y-112849859D01*
X152271880Y-112866417D01*
X152359370Y-112991366D01*
X152370177Y-113010084D01*
X152434637Y-113148318D01*
X152442030Y-113168630D01*
X152481507Y-113315961D01*
X152485260Y-113337246D01*
X152499028Y-113494605D01*
X152499500Y-113505413D01*
X152499500Y-127494586D01*
X152499028Y-127505394D01*
X152485260Y-127662753D01*
X152481507Y-127684038D01*
X152442030Y-127831369D01*
X152434637Y-127851681D01*
X152370177Y-127989915D01*
X152359370Y-128008633D01*
X152271880Y-128133582D01*
X152257986Y-128150140D01*
X152150140Y-128257986D01*
X152133582Y-128271880D01*
X152008633Y-128359370D01*
X151989915Y-128370177D01*
X151851681Y-128434637D01*
X151831369Y-128442030D01*
X151684038Y-128481507D01*
X151662753Y-128485260D01*
X151505395Y-128499028D01*
X151494587Y-128499500D01*
X132564923Y-128499500D01*
X132497884Y-128479815D01*
X132452129Y-128427011D01*
X132442185Y-128357853D01*
X132463346Y-128304380D01*
X132587102Y-128127639D01*
X132679575Y-127929330D01*
X132736207Y-127717977D01*
X132752805Y-127528254D01*
X132755277Y-127500002D01*
X132755277Y-127499997D01*
X132749512Y-127434108D01*
X132736207Y-127282023D01*
X132679575Y-127070670D01*
X132587102Y-126872362D01*
X132587100Y-126872359D01*
X132587099Y-126872357D01*
X132461599Y-126693124D01*
X132461596Y-126693121D01*
X132306877Y-126538402D01*
X132168978Y-126441844D01*
X132127638Y-126412897D01*
X132028484Y-126366661D01*
X131929330Y-126320425D01*
X131929326Y-126320424D01*
X131929322Y-126320422D01*
X131717977Y-126263793D01*
X131500002Y-126244723D01*
X131499998Y-126244723D01*
X131354682Y-126257436D01*
X131282023Y-126263793D01*
X131282020Y-126263793D01*
X131070677Y-126320422D01*
X131070668Y-126320426D01*
X130872361Y-126412898D01*
X130872357Y-126412900D01*
X130693121Y-126538402D01*
X130538402Y-126693121D01*
X130412900Y-126872357D01*
X130412898Y-126872361D01*
X130320426Y-127070668D01*
X130320422Y-127070677D01*
X130263793Y-127282020D01*
X130263793Y-127282023D01*
X130261290Y-127310638D01*
X130244723Y-127499997D01*
X130244723Y-127500002D01*
X130254258Y-127608988D01*
X130258094Y-127652841D01*
X130263793Y-127717975D01*
X130263793Y-127717979D01*
X130320422Y-127929322D01*
X130320424Y-127929326D01*
X130320425Y-127929330D01*
X130357405Y-128008633D01*
X130412897Y-128127638D01*
X130428653Y-128150140D01*
X130536653Y-128304379D01*
X130558979Y-128370582D01*
X130541969Y-128438350D01*
X130491021Y-128486163D01*
X130435077Y-128499500D01*
X125064923Y-128499500D01*
X124997884Y-128479815D01*
X124952129Y-128427011D01*
X124942185Y-128357853D01*
X124963346Y-128304380D01*
X125087102Y-128127639D01*
X125179575Y-127929330D01*
X125236207Y-127717977D01*
X125252805Y-127528254D01*
X125255277Y-127500002D01*
X125255277Y-127499997D01*
X125249512Y-127434108D01*
X125236207Y-127282023D01*
X125179575Y-127070670D01*
X125087102Y-126872362D01*
X125087100Y-126872359D01*
X125087099Y-126872357D01*
X124961599Y-126693124D01*
X124961596Y-126693121D01*
X124806877Y-126538402D01*
X124668978Y-126441844D01*
X124627638Y-126412897D01*
X124528484Y-126366661D01*
X124429330Y-126320425D01*
X124429326Y-126320424D01*
X124429322Y-126320422D01*
X124217977Y-126263793D01*
X124000002Y-126244723D01*
X123999998Y-126244723D01*
X123854682Y-126257436D01*
X123782023Y-126263793D01*
X123782020Y-126263793D01*
X123570677Y-126320422D01*
X123570668Y-126320426D01*
X123372361Y-126412898D01*
X123372357Y-126412900D01*
X123195623Y-126536651D01*
X123129417Y-126558978D01*
X123061650Y-126541968D01*
X123013837Y-126491020D01*
X123000500Y-126435076D01*
X123000500Y-114564922D01*
X123020185Y-114497883D01*
X123072989Y-114452128D01*
X123142147Y-114442184D01*
X123195619Y-114463346D01*
X123372361Y-114587102D01*
X123570670Y-114679575D01*
X123782023Y-114736207D01*
X123964926Y-114752208D01*
X123999998Y-114755277D01*
X124000000Y-114755277D01*
X124000002Y-114755277D01*
X124028254Y-114752805D01*
X124217977Y-114736207D01*
X124429330Y-114679575D01*
X124627639Y-114587102D01*
X124806877Y-114461598D01*
X124961598Y-114306877D01*
X125087102Y-114127639D01*
X125179575Y-113929330D01*
X125236207Y-113717977D01*
X125252805Y-113528254D01*
X125255277Y-113500002D01*
X125255277Y-113499997D01*
X125251569Y-113457618D01*
X125236207Y-113282023D01*
X125200381Y-113148318D01*
X125179577Y-113070677D01*
X125179576Y-113070676D01*
X125179575Y-113070670D01*
X125087102Y-112872362D01*
X125087100Y-112872359D01*
X125087099Y-112872357D01*
X124963349Y-112695623D01*
X124941022Y-112629417D01*
X124958032Y-112561650D01*
X125008980Y-112513837D01*
X125064924Y-112500500D01*
X130435076Y-112500500D01*
X130502115Y-112520185D01*
G37*
%TD.AperFunction*%
%TA.AperFunction,Conductor*%
G36*
X127118039Y-116269685D02*
G01*
X127163794Y-116322489D01*
X127175000Y-116374000D01*
X127175000Y-117724999D01*
X127312472Y-117724999D01*
X127312484Y-117724998D01*
X127375397Y-117718571D01*
X127444090Y-117731340D01*
X127494975Y-117779221D01*
X127512000Y-117841929D01*
X127512000Y-118430011D01*
X127510938Y-118446196D01*
X127506818Y-118477499D01*
X127522055Y-118593238D01*
X127527456Y-118634261D01*
X127587964Y-118780340D01*
X127637580Y-118845001D01*
X127684219Y-118905782D01*
X127709269Y-118925003D01*
X127721464Y-118935698D01*
X129021682Y-120235916D01*
X129044047Y-120268823D01*
X129044285Y-120268683D01*
X129046517Y-120272457D01*
X129047800Y-120274345D01*
X129048254Y-120275395D01*
X129131917Y-120416862D01*
X129136702Y-120423031D01*
X129134369Y-120424840D01*
X129161210Y-120473995D01*
X129156226Y-120543687D01*
X129135470Y-120576021D01*
X129137097Y-120577283D01*
X129132313Y-120583449D01*
X129048718Y-120724801D01*
X129002899Y-120882513D01*
X129002704Y-120884998D01*
X129002705Y-120885000D01*
X131947295Y-120885000D01*
X131947295Y-120884998D01*
X131947100Y-120882513D01*
X131901281Y-120724801D01*
X131817685Y-120583447D01*
X131812900Y-120577278D01*
X131815366Y-120575364D01*
X131788802Y-120526776D01*
X131793749Y-120457082D01*
X131814856Y-120424232D01*
X131813301Y-120423026D01*
X131818077Y-120416868D01*
X131818081Y-120416865D01*
X131901744Y-120275398D01*
X131947598Y-120117569D01*
X131950500Y-120080694D01*
X131950500Y-119649306D01*
X131947598Y-119612431D01*
X131945253Y-119604360D01*
X131901745Y-119454606D01*
X131901744Y-119454603D01*
X131901744Y-119454602D01*
X131892871Y-119439598D01*
X131859175Y-119382620D01*
X131841992Y-119314896D01*
X131864152Y-119248634D01*
X131918619Y-119204871D01*
X131965907Y-119195500D01*
X132857513Y-119195500D01*
X132873697Y-119196560D01*
X132905000Y-119200682D01*
X132905001Y-119200682D01*
X132957254Y-119193802D01*
X133061762Y-119180044D01*
X133207841Y-119119536D01*
X133255220Y-119083181D01*
X133333282Y-119023282D01*
X133352509Y-118998223D01*
X133363190Y-118986043D01*
X134112416Y-118236818D01*
X134173739Y-118203333D01*
X134200097Y-118200499D01*
X134799902Y-118200499D01*
X134866941Y-118220184D01*
X134887583Y-118236818D01*
X135041799Y-118391034D01*
X135052493Y-118403228D01*
X135063627Y-118417738D01*
X135071718Y-118428282D01*
X135187155Y-118516860D01*
X135187156Y-118516861D01*
X135197154Y-118524533D01*
X135197157Y-118524534D01*
X135197159Y-118524536D01*
X135343236Y-118585043D01*
X135343238Y-118585044D01*
X135499999Y-118605683D01*
X135500000Y-118605683D01*
X135500001Y-118605683D01*
X135531308Y-118601561D01*
X135547494Y-118600500D01*
X137452513Y-118600500D01*
X137468697Y-118601560D01*
X137500000Y-118605682D01*
X137500001Y-118605682D01*
X137552254Y-118598802D01*
X137656762Y-118585044D01*
X137802841Y-118524536D01*
X137812845Y-118516860D01*
X137928282Y-118428282D01*
X137947509Y-118403223D01*
X137958183Y-118391050D01*
X138112418Y-118236815D01*
X138173739Y-118203333D01*
X138200097Y-118200499D01*
X138594902Y-118200499D01*
X138661941Y-118220184D01*
X138682583Y-118236818D01*
X145208181Y-124762416D01*
X145241666Y-124823739D01*
X145244500Y-124850097D01*
X145244500Y-126000903D01*
X145224815Y-126067942D01*
X145172011Y-126113697D01*
X145102853Y-126123641D01*
X145039297Y-126094616D01*
X145032819Y-126088584D01*
X142553199Y-123608964D01*
X142542503Y-123596767D01*
X142523286Y-123571722D01*
X142523283Y-123571720D01*
X142523282Y-123571718D01*
X142397841Y-123475464D01*
X142251762Y-123414956D01*
X142251760Y-123414955D01*
X142134361Y-123399500D01*
X142095000Y-123394318D01*
X142063697Y-123398439D01*
X142047513Y-123399500D01*
X131594306Y-123399500D01*
X131527267Y-123379815D01*
X131481512Y-123327011D01*
X131471568Y-123257853D01*
X131500593Y-123194297D01*
X131553445Y-123160330D01*
X131553035Y-123159382D01*
X131558814Y-123156880D01*
X131559371Y-123156523D01*
X131559713Y-123156423D01*
X131560196Y-123156282D01*
X131701552Y-123072685D01*
X131701561Y-123072678D01*
X131817678Y-122956561D01*
X131817685Y-122956552D01*
X131901281Y-122815198D01*
X131947100Y-122657486D01*
X131947295Y-122655001D01*
X131947295Y-122655000D01*
X129002705Y-122655000D01*
X129002704Y-122655001D01*
X129002899Y-122657486D01*
X129048718Y-122815198D01*
X129132314Y-122956552D01*
X129132321Y-122956561D01*
X129248438Y-123072678D01*
X129248447Y-123072685D01*
X129389803Y-123156282D01*
X129389802Y-123156282D01*
X129390287Y-123156423D01*
X129390621Y-123156636D01*
X129396965Y-123159382D01*
X129396522Y-123160404D01*
X129449174Y-123194029D01*
X129478381Y-123257501D01*
X129468636Y-123326688D01*
X129423032Y-123379623D01*
X129356050Y-123399499D01*
X129355694Y-123399500D01*
X126644306Y-123399500D01*
X126577267Y-123379815D01*
X126531512Y-123327011D01*
X126521568Y-123257853D01*
X126550593Y-123194297D01*
X126603445Y-123160330D01*
X126603035Y-123159382D01*
X126608814Y-123156880D01*
X126609371Y-123156523D01*
X126609713Y-123156423D01*
X126610196Y-123156282D01*
X126751552Y-123072685D01*
X126751561Y-123072678D01*
X126867678Y-122956561D01*
X126867685Y-122956552D01*
X126951281Y-122815198D01*
X126997100Y-122657486D01*
X126997295Y-122655001D01*
X126997295Y-122655000D01*
X125399000Y-122655000D01*
X125331961Y-122635315D01*
X125286206Y-122582511D01*
X125275000Y-122531000D01*
X125275000Y-122279000D01*
X125294685Y-122211961D01*
X125347489Y-122166206D01*
X125399000Y-122155000D01*
X126997295Y-122155000D01*
X126997295Y-122154998D01*
X129002704Y-122154998D01*
X129002705Y-122155000D01*
X130225000Y-122155000D01*
X130225000Y-121385000D01*
X130725000Y-121385000D01*
X130725000Y-122155000D01*
X131947295Y-122155000D01*
X131947295Y-122154998D01*
X131947100Y-122152513D01*
X131901281Y-121994801D01*
X131817685Y-121853447D01*
X131812900Y-121847278D01*
X131815252Y-121845453D01*
X131788445Y-121796405D01*
X131793402Y-121726712D01*
X131814465Y-121693936D01*
X131812900Y-121692722D01*
X131817685Y-121686552D01*
X131901281Y-121545198D01*
X131947100Y-121387486D01*
X131947295Y-121385001D01*
X131947295Y-121385000D01*
X130725000Y-121385000D01*
X130225000Y-121385000D01*
X129002705Y-121385000D01*
X129002704Y-121385001D01*
X129002899Y-121387486D01*
X129048718Y-121545198D01*
X129132314Y-121686552D01*
X129137100Y-121692722D01*
X129134753Y-121694542D01*
X129161564Y-121743642D01*
X129156580Y-121813334D01*
X129135541Y-121846069D01*
X129137100Y-121847278D01*
X129132314Y-121853447D01*
X129048718Y-121994801D01*
X129002899Y-122152513D01*
X129002704Y-122154998D01*
X126997295Y-122154998D01*
X126997100Y-122152513D01*
X126951281Y-121994801D01*
X126867685Y-121853447D01*
X126862900Y-121847278D01*
X126865366Y-121845364D01*
X126838802Y-121796776D01*
X126843749Y-121727082D01*
X126864856Y-121694232D01*
X126863301Y-121693026D01*
X126868077Y-121686868D01*
X126868081Y-121686865D01*
X126951744Y-121545398D01*
X126997598Y-121387569D01*
X127000500Y-121350694D01*
X127000500Y-120919306D01*
X126997598Y-120882431D01*
X126951744Y-120724602D01*
X126868081Y-120583135D01*
X126868078Y-120583132D01*
X126863298Y-120576969D01*
X126865750Y-120575066D01*
X126839155Y-120526421D01*
X126844104Y-120456726D01*
X126864940Y-120424304D01*
X126863298Y-120423031D01*
X126868075Y-120416870D01*
X126868081Y-120416865D01*
X126951744Y-120275398D01*
X126997598Y-120117569D01*
X127000500Y-120080694D01*
X127000500Y-119649306D01*
X126997598Y-119612431D01*
X126995253Y-119604360D01*
X126951745Y-119454606D01*
X126951744Y-119454603D01*
X126951744Y-119454602D01*
X126868081Y-119313135D01*
X126868078Y-119313132D01*
X126863298Y-119306969D01*
X126865635Y-119305155D01*
X126838798Y-119256050D01*
X126843756Y-119186356D01*
X126864554Y-119153998D01*
X126862903Y-119152717D01*
X126867686Y-119146550D01*
X126951281Y-119005198D01*
X126997100Y-118847486D01*
X126997295Y-118845001D01*
X126997295Y-118845000D01*
X125399000Y-118845000D01*
X125331961Y-118825315D01*
X125286206Y-118772511D01*
X125275000Y-118721000D01*
X125275000Y-117795000D01*
X125181353Y-117795000D01*
X125114314Y-117775315D01*
X125068559Y-117722511D01*
X125058615Y-117653353D01*
X125087640Y-117589797D01*
X125093672Y-117583319D01*
X125224150Y-117452841D01*
X125635792Y-117041198D01*
X125697111Y-117007716D01*
X125766802Y-117012700D01*
X125822736Y-117054571D01*
X125846826Y-117116275D01*
X125847992Y-117127693D01*
X125903141Y-117294119D01*
X125903143Y-117294124D01*
X125995184Y-117443345D01*
X126119155Y-117567316D01*
X126124823Y-117571798D01*
X126123430Y-117573559D01*
X126162871Y-117617405D01*
X126174095Y-117686367D01*
X126146254Y-117750451D01*
X126088187Y-117789309D01*
X126051051Y-117795000D01*
X125775000Y-117795000D01*
X125775000Y-118345000D01*
X126997295Y-118345000D01*
X126997295Y-118344998D01*
X126997100Y-118342513D01*
X126951281Y-118184801D01*
X126867685Y-118043447D01*
X126867678Y-118043438D01*
X126751561Y-117927321D01*
X126751552Y-117927314D01*
X126713915Y-117905056D01*
X126666232Y-117853987D01*
X126653728Y-117785245D01*
X126675000Y-117733680D01*
X126675000Y-116374000D01*
X126694685Y-116306961D01*
X126747489Y-116261206D01*
X126799000Y-116250000D01*
X127051000Y-116250000D01*
X127118039Y-116269685D01*
G37*
%TD.AperFunction*%
%TA.AperFunction,Conductor*%
G36*
X141706255Y-117761198D02*
G01*
X141714483Y-117768718D01*
X145359188Y-121413423D01*
X145392673Y-121474746D01*
X145387689Y-121544438D01*
X145386935Y-121546406D01*
X145328918Y-121694232D01*
X145319667Y-121717804D01*
X145319663Y-121717816D01*
X145259616Y-121980898D01*
X145239451Y-122249995D01*
X145239451Y-122250004D01*
X145259616Y-122519101D01*
X145319664Y-122782188D01*
X145319667Y-122782200D01*
X145356581Y-122876254D01*
X145362750Y-122945851D01*
X145330312Y-123007734D01*
X145269567Y-123042257D01*
X145199801Y-123038458D01*
X145153472Y-123009237D01*
X140556415Y-118412180D01*
X140522930Y-118350857D01*
X140527914Y-118281165D01*
X140569786Y-118225232D01*
X140635250Y-118200815D01*
X140644096Y-118200499D01*
X140900002Y-118200499D01*
X140900008Y-118200499D01*
X141002797Y-118189999D01*
X141169334Y-118134814D01*
X141318656Y-118042712D01*
X141442712Y-117918656D01*
X141521264Y-117791302D01*
X141573211Y-117744578D01*
X141642173Y-117733355D01*
X141706255Y-117761198D01*
G37*
%TD.AperFunction*%
%TA.AperFunction,Conductor*%
G36*
X145424733Y-114220185D02*
G01*
X145470488Y-114272989D01*
X145480432Y-114342147D01*
X145465081Y-114386500D01*
X145418709Y-114466818D01*
X145320148Y-114717947D01*
X145320142Y-114717966D01*
X145260113Y-114980971D01*
X145260113Y-114980973D01*
X145239953Y-115249995D01*
X145239953Y-115250004D01*
X145260113Y-115519026D01*
X145260113Y-115519028D01*
X145320142Y-115782033D01*
X145320148Y-115782052D01*
X145418709Y-116033181D01*
X145418708Y-116033181D01*
X145553602Y-116266822D01*
X145607294Y-116334151D01*
X146442452Y-115498992D01*
X146452188Y-115528956D01*
X146540186Y-115667619D01*
X146659903Y-115780040D01*
X146794509Y-115854041D01*
X145959848Y-116688702D01*
X146142483Y-116813220D01*
X146142484Y-116813221D01*
X146297770Y-116888002D01*
X146349630Y-116934824D01*
X146367943Y-117002251D01*
X146346895Y-117068875D01*
X146297771Y-117111442D01*
X146142230Y-117186346D01*
X145919258Y-117338365D01*
X145721442Y-117521910D01*
X145553185Y-117732898D01*
X145418258Y-117966599D01*
X145418254Y-117966607D01*
X145377361Y-118070802D01*
X145334545Y-118126016D01*
X145268675Y-118149317D01*
X145261933Y-118149500D01*
X144550097Y-118149500D01*
X144483058Y-118129815D01*
X144462416Y-118113181D01*
X141636818Y-115287583D01*
X141603333Y-115226260D01*
X141600499Y-115199902D01*
X141600499Y-114499998D01*
X141600498Y-114499981D01*
X141589999Y-114397203D01*
X141589997Y-114397195D01*
X141578833Y-114363505D01*
X141576430Y-114293677D01*
X141612161Y-114233635D01*
X141674681Y-114202442D01*
X141696538Y-114200500D01*
X145357694Y-114200500D01*
X145424733Y-114220185D01*
G37*
%TD.AperFunction*%
%TA.AperFunction,Conductor*%
G36*
X133386738Y-115620185D02*
G01*
X133432493Y-115672989D01*
X133437403Y-115685492D01*
X133451355Y-115727595D01*
X133465185Y-115769331D01*
X133465187Y-115769336D01*
X133557289Y-115918657D01*
X133560795Y-115923091D01*
X133586934Y-115987887D01*
X133573892Y-116056529D01*
X133560795Y-116076909D01*
X133557289Y-116081342D01*
X133465187Y-116230663D01*
X133465186Y-116230666D01*
X133410001Y-116397203D01*
X133410001Y-116397204D01*
X133410000Y-116397204D01*
X133399500Y-116499983D01*
X133399500Y-117199902D01*
X133379815Y-117266941D01*
X133363181Y-117287583D01*
X132692584Y-117958181D01*
X132631261Y-117991666D01*
X132604903Y-117994500D01*
X131820808Y-117994500D01*
X131753769Y-117974815D01*
X131733126Y-117958180D01*
X131701870Y-117926923D01*
X131701862Y-117926917D01*
X131560396Y-117843255D01*
X131560393Y-117843254D01*
X131402573Y-117797402D01*
X131402567Y-117797401D01*
X131365701Y-117794500D01*
X131365694Y-117794500D01*
X130575097Y-117794500D01*
X130508058Y-117774815D01*
X130487416Y-117758181D01*
X130076709Y-117347474D01*
X130043224Y-117286151D01*
X130046684Y-117220789D01*
X130077499Y-117127797D01*
X130088000Y-117025009D01*
X130087999Y-115974992D01*
X130080338Y-115900000D01*
X130077499Y-115872203D01*
X130063387Y-115829617D01*
X130041478Y-115763501D01*
X130039077Y-115693676D01*
X130074808Y-115633634D01*
X130137328Y-115602441D01*
X130159185Y-115600500D01*
X133319699Y-115600500D01*
X133386738Y-115620185D01*
G37*
%TD.AperFunction*%
%TD*%
M02*
