%TF.GenerationSoftware,KiCad,Pcbnew,7.0.11-7.0.11~ubuntu22.04.1*%
%TF.CreationDate,2024-03-26T13:02:59+01:00*%
%TF.ProjectId,lasersender,6c617365-7273-4656-9e64-65722e6b6963,rev?*%
%TF.SameCoordinates,Original*%
%TF.FileFunction,Copper,L2,Bot*%
%TF.FilePolarity,Positive*%
%FSLAX46Y46*%
G04 Gerber Fmt 4.6, Leading zero omitted, Abs format (unit mm)*
G04 Created by KiCad (PCBNEW 7.0.11-7.0.11~ubuntu22.04.1) date 2024-03-26 13:02:59*
%MOMM*%
%LPD*%
G01*
G04 APERTURE LIST*
G04 Aperture macros list*
%AMRoundRect*
0 Rectangle with rounded corners*
0 $1 Rounding radius*
0 $2 $3 $4 $5 $6 $7 $8 $9 X,Y pos of 4 corners*
0 Add a 4 corners polygon primitive as box body*
4,1,4,$2,$3,$4,$5,$6,$7,$8,$9,$2,$3,0*
0 Add four circle primitives for the rounded corners*
1,1,$1+$1,$2,$3*
1,1,$1+$1,$4,$5*
1,1,$1+$1,$6,$7*
1,1,$1+$1,$8,$9*
0 Add four rect primitives between the rounded corners*
20,1,$1+$1,$2,$3,$4,$5,0*
20,1,$1+$1,$4,$5,$6,$7,0*
20,1,$1+$1,$6,$7,$8,$9,0*
20,1,$1+$1,$8,$9,$2,$3,0*%
G04 Aperture macros list end*
%TA.AperFunction,ComponentPad*%
%ADD10RoundRect,0.250000X0.000000X-0.353553X0.353553X0.000000X0.000000X0.353553X-0.353553X0.000000X0*%
%TD*%
%TA.AperFunction,ComponentPad*%
%ADD11C,1.000000*%
%TD*%
%TA.AperFunction,ComponentPad*%
%ADD12R,2.600000X2.600000*%
%TD*%
%TA.AperFunction,ComponentPad*%
%ADD13C,2.600000*%
%TD*%
%TA.AperFunction,ViaPad*%
%ADD14C,0.600000*%
%TD*%
%TA.AperFunction,ViaPad*%
%ADD15C,1.500000*%
%TD*%
G04 APERTURE END LIST*
D10*
%TO.P,LD1,1*%
%TO.N,Net-(Q1-D)*%
X140500000Y-95000000D03*
D11*
%TO.P,LD1,2*%
%TO.N,Net-(LD1-Pad2)*%
X141500000Y-96000000D03*
%TO.P,LD1,3*%
X142500000Y-95000000D03*
%TD*%
D12*
%TO.P,J1,1,Pin_1*%
%TO.N,+5V*%
X114500000Y-91500000D03*
D13*
%TO.P,J1,2,Pin_2*%
%TO.N,Net-(J1-Pin_2)*%
X114500000Y-95000000D03*
%TO.P,J1,3,Pin_3*%
%TO.N,GND*%
X114500000Y-98500000D03*
%TD*%
D14*
%TO.N,GND*%
X135500000Y-94000000D03*
X121000000Y-93500000D03*
D15*
%TO.N,*%
X145000000Y-89500000D03*
X137500000Y-89500000D03*
X145000000Y-100500000D03*
X137500000Y-100500000D03*
%TD*%
%TA.AperFunction,Conductor*%
%TO.N,GND*%
G36*
X136502115Y-88520185D02*
G01*
X136547870Y-88572989D01*
X136557814Y-88642147D01*
X136536651Y-88695623D01*
X136412900Y-88872357D01*
X136412898Y-88872361D01*
X136320426Y-89070668D01*
X136320422Y-89070677D01*
X136263793Y-89282020D01*
X136263793Y-89282024D01*
X136244723Y-89499997D01*
X136244723Y-89500002D01*
X136263793Y-89717975D01*
X136263793Y-89717979D01*
X136320422Y-89929322D01*
X136320424Y-89929326D01*
X136320425Y-89929330D01*
X136333640Y-89957669D01*
X136412897Y-90127638D01*
X136412898Y-90127639D01*
X136538402Y-90306877D01*
X136693123Y-90461598D01*
X136872361Y-90587102D01*
X137070670Y-90679575D01*
X137282023Y-90736207D01*
X137464926Y-90752208D01*
X137499998Y-90755277D01*
X137500000Y-90755277D01*
X137500002Y-90755277D01*
X137528254Y-90752805D01*
X137717977Y-90736207D01*
X137929330Y-90679575D01*
X138127639Y-90587102D01*
X138306877Y-90461598D01*
X138461598Y-90306877D01*
X138587102Y-90127639D01*
X138679575Y-89929330D01*
X138736207Y-89717977D01*
X138752805Y-89528254D01*
X138755277Y-89500002D01*
X138755277Y-89499997D01*
X138751569Y-89457618D01*
X138736207Y-89282023D01*
X138700381Y-89148318D01*
X138679577Y-89070677D01*
X138679576Y-89070676D01*
X138679575Y-89070670D01*
X138587102Y-88872362D01*
X138587100Y-88872359D01*
X138587099Y-88872357D01*
X138463349Y-88695623D01*
X138441022Y-88629417D01*
X138458032Y-88561650D01*
X138508980Y-88513837D01*
X138564924Y-88500500D01*
X143935076Y-88500500D01*
X144002115Y-88520185D01*
X144047870Y-88572989D01*
X144057814Y-88642147D01*
X144036651Y-88695623D01*
X143912900Y-88872357D01*
X143912898Y-88872361D01*
X143820426Y-89070668D01*
X143820422Y-89070677D01*
X143763793Y-89282020D01*
X143763793Y-89282024D01*
X143744723Y-89499997D01*
X143744723Y-89500002D01*
X143763793Y-89717975D01*
X143763793Y-89717979D01*
X143820422Y-89929322D01*
X143820424Y-89929326D01*
X143820425Y-89929330D01*
X143833640Y-89957669D01*
X143912897Y-90127638D01*
X143912898Y-90127639D01*
X144038402Y-90306877D01*
X144193123Y-90461598D01*
X144372361Y-90587102D01*
X144570670Y-90679575D01*
X144782023Y-90736207D01*
X144964926Y-90752208D01*
X144999998Y-90755277D01*
X145000000Y-90755277D01*
X145000002Y-90755277D01*
X145028254Y-90752805D01*
X145217977Y-90736207D01*
X145429330Y-90679575D01*
X145627639Y-90587102D01*
X145804379Y-90463346D01*
X145870582Y-90441020D01*
X145938349Y-90458030D01*
X145986162Y-90508977D01*
X145999500Y-90564922D01*
X145999500Y-99435077D01*
X145979815Y-99502116D01*
X145927011Y-99547871D01*
X145857853Y-99557815D01*
X145804380Y-99536653D01*
X145627639Y-99412898D01*
X145627640Y-99412898D01*
X145627638Y-99412897D01*
X145528484Y-99366661D01*
X145429330Y-99320425D01*
X145429326Y-99320424D01*
X145429322Y-99320422D01*
X145217977Y-99263793D01*
X145000002Y-99244723D01*
X144999998Y-99244723D01*
X144854682Y-99257436D01*
X144782023Y-99263793D01*
X144782020Y-99263793D01*
X144570677Y-99320422D01*
X144570668Y-99320426D01*
X144372361Y-99412898D01*
X144372357Y-99412900D01*
X144193121Y-99538402D01*
X144038402Y-99693121D01*
X143912900Y-99872357D01*
X143912898Y-99872361D01*
X143820426Y-100070668D01*
X143820422Y-100070677D01*
X143763793Y-100282020D01*
X143763793Y-100282024D01*
X143744723Y-100499997D01*
X143744723Y-100500002D01*
X143763793Y-100717975D01*
X143763793Y-100717979D01*
X143820422Y-100929322D01*
X143820424Y-100929326D01*
X143820425Y-100929330D01*
X143857405Y-101008633D01*
X143912897Y-101127638D01*
X143928653Y-101150140D01*
X144036653Y-101304379D01*
X144058979Y-101370582D01*
X144041969Y-101438350D01*
X143991021Y-101486163D01*
X143935077Y-101499500D01*
X138564923Y-101499500D01*
X138497884Y-101479815D01*
X138452129Y-101427011D01*
X138442185Y-101357853D01*
X138463346Y-101304380D01*
X138587102Y-101127639D01*
X138679575Y-100929330D01*
X138736207Y-100717977D01*
X138755277Y-100500000D01*
X138754803Y-100494586D01*
X138749512Y-100434108D01*
X138736207Y-100282023D01*
X138679575Y-100070670D01*
X138587102Y-99872362D01*
X138587100Y-99872359D01*
X138587099Y-99872357D01*
X138461599Y-99693124D01*
X138461596Y-99693121D01*
X138306877Y-99538402D01*
X138127639Y-99412898D01*
X138127640Y-99412898D01*
X138127638Y-99412897D01*
X138028484Y-99366661D01*
X137929330Y-99320425D01*
X137929326Y-99320424D01*
X137929322Y-99320422D01*
X137717977Y-99263793D01*
X137500002Y-99244723D01*
X137499998Y-99244723D01*
X137354682Y-99257436D01*
X137282023Y-99263793D01*
X137282020Y-99263793D01*
X137070677Y-99320422D01*
X137070668Y-99320426D01*
X136872361Y-99412898D01*
X136872357Y-99412900D01*
X136693121Y-99538402D01*
X136538402Y-99693121D01*
X136412900Y-99872357D01*
X136412898Y-99872361D01*
X136320426Y-100070668D01*
X136320422Y-100070677D01*
X136263793Y-100282020D01*
X136263793Y-100282024D01*
X136244723Y-100499997D01*
X136244723Y-100500002D01*
X136263793Y-100717975D01*
X136263793Y-100717979D01*
X136320422Y-100929322D01*
X136320424Y-100929326D01*
X136320425Y-100929330D01*
X136357405Y-101008633D01*
X136412897Y-101127638D01*
X136428653Y-101150140D01*
X136536653Y-101304379D01*
X136558979Y-101370582D01*
X136541969Y-101438350D01*
X136491021Y-101486163D01*
X136435077Y-101499500D01*
X109505413Y-101499500D01*
X109494605Y-101499028D01*
X109337246Y-101485260D01*
X109315961Y-101481507D01*
X109168630Y-101442030D01*
X109148318Y-101434637D01*
X109010084Y-101370177D01*
X108991366Y-101359370D01*
X108866417Y-101271880D01*
X108849859Y-101257986D01*
X108742013Y-101150140D01*
X108728119Y-101133582D01*
X108640629Y-101008633D01*
X108629822Y-100989915D01*
X108565362Y-100851681D01*
X108557969Y-100831369D01*
X108549882Y-100801188D01*
X108518491Y-100684035D01*
X108514739Y-100662752D01*
X108500972Y-100505393D01*
X108500500Y-100494586D01*
X108500500Y-95000004D01*
X112694451Y-95000004D01*
X112714616Y-95269101D01*
X112774664Y-95532188D01*
X112774666Y-95532195D01*
X112844796Y-95710883D01*
X112873257Y-95783398D01*
X113008185Y-96017102D01*
X113144080Y-96187509D01*
X113176442Y-96228089D01*
X113363183Y-96401358D01*
X113374259Y-96411635D01*
X113597226Y-96563651D01*
X113597231Y-96563653D01*
X113597232Y-96563654D01*
X113597233Y-96563655D01*
X113709030Y-96617493D01*
X113752770Y-96638557D01*
X113804630Y-96685379D01*
X113822943Y-96752806D01*
X113801895Y-96819430D01*
X113752771Y-96861997D01*
X113597480Y-96936781D01*
X113597476Y-96936783D01*
X113414848Y-97061296D01*
X114252465Y-97898913D01*
X114184371Y-97925874D01*
X114051508Y-98022405D01*
X113946825Y-98148945D01*
X113898368Y-98251921D01*
X113062295Y-97415848D01*
X113008600Y-97483180D01*
X112873709Y-97716818D01*
X112775148Y-97967947D01*
X112775142Y-97967966D01*
X112715113Y-98230971D01*
X112715113Y-98230973D01*
X112694953Y-98499995D01*
X112694953Y-98500004D01*
X112715113Y-98769026D01*
X112715113Y-98769028D01*
X112775142Y-99032033D01*
X112775148Y-99032052D01*
X112873709Y-99283181D01*
X112873708Y-99283181D01*
X113008602Y-99516822D01*
X113062294Y-99584151D01*
X113062295Y-99584151D01*
X113897452Y-98748993D01*
X113907188Y-98778956D01*
X113995186Y-98917619D01*
X114114903Y-99030040D01*
X114249510Y-99104041D01*
X113414848Y-99938702D01*
X113597483Y-100063220D01*
X113597485Y-100063221D01*
X113840539Y-100180269D01*
X113840537Y-100180269D01*
X114098337Y-100259790D01*
X114098343Y-100259792D01*
X114365101Y-100299999D01*
X114365110Y-100300000D01*
X114634890Y-100300000D01*
X114634898Y-100299999D01*
X114901656Y-100259792D01*
X114901662Y-100259790D01*
X115159461Y-100180269D01*
X115402521Y-100063218D01*
X115585150Y-99938702D01*
X114747534Y-99101086D01*
X114815629Y-99074126D01*
X114948492Y-98977595D01*
X115053175Y-98851055D01*
X115101631Y-98748079D01*
X115937703Y-99584151D01*
X115937704Y-99584150D01*
X115991393Y-99516828D01*
X115991400Y-99516817D01*
X116126290Y-99283181D01*
X116224851Y-99032052D01*
X116224857Y-99032033D01*
X116284886Y-98769028D01*
X116284886Y-98769026D01*
X116305047Y-98500004D01*
X116305047Y-98499995D01*
X116284886Y-98230973D01*
X116284886Y-98230971D01*
X116224857Y-97967966D01*
X116224851Y-97967947D01*
X116126290Y-97716818D01*
X116126291Y-97716818D01*
X115991397Y-97483177D01*
X115937704Y-97415847D01*
X115102546Y-98251004D01*
X115092812Y-98221044D01*
X115004814Y-98082381D01*
X114885097Y-97969960D01*
X114750489Y-97895958D01*
X115585150Y-97061296D01*
X115402519Y-96936780D01*
X115247229Y-96861997D01*
X115195370Y-96815175D01*
X115177057Y-96747748D01*
X115198105Y-96681124D01*
X115247228Y-96638557D01*
X115402775Y-96563651D01*
X115625741Y-96411635D01*
X115823561Y-96228085D01*
X115991815Y-96017102D01*
X116126743Y-95783398D01*
X116225334Y-95532195D01*
X116285383Y-95269103D01*
X116298975Y-95087728D01*
X116298976Y-95087717D01*
X139395946Y-95087717D01*
X139395947Y-95087728D01*
X139436406Y-95258433D01*
X139515145Y-95415215D01*
X139515149Y-95415221D01*
X139580391Y-95495310D01*
X139580401Y-95495322D01*
X140004678Y-95919597D01*
X140004686Y-95919603D01*
X140004691Y-95919608D01*
X140084777Y-95984849D01*
X140084780Y-95984851D01*
X140084785Y-95984855D01*
X140241567Y-96063593D01*
X140241569Y-96063594D01*
X140419306Y-96105720D01*
X140418740Y-96108104D01*
X140472347Y-96130875D01*
X140511678Y-96188623D01*
X140512337Y-96190727D01*
X140513975Y-96196129D01*
X140513976Y-96196132D01*
X140571186Y-96384727D01*
X140571188Y-96384733D01*
X140664086Y-96558532D01*
X140664090Y-96558539D01*
X140789116Y-96710883D01*
X140941460Y-96835909D01*
X140941467Y-96835913D01*
X141115266Y-96928811D01*
X141115269Y-96928811D01*
X141115273Y-96928814D01*
X141303868Y-96986024D01*
X141500000Y-97005341D01*
X141696132Y-96986024D01*
X141884727Y-96928814D01*
X142058538Y-96835910D01*
X142210883Y-96710883D01*
X142335910Y-96558538D01*
X142382362Y-96471632D01*
X142428811Y-96384733D01*
X142428811Y-96384732D01*
X142428814Y-96384727D01*
X142486024Y-96196132D01*
X142494887Y-96106135D01*
X142521047Y-96041350D01*
X142578081Y-96000990D01*
X142606132Y-95994887D01*
X142696132Y-95986024D01*
X142884727Y-95928814D01*
X142901951Y-95919608D01*
X143058532Y-95835913D01*
X143058538Y-95835910D01*
X143210883Y-95710883D01*
X143335910Y-95558538D01*
X143428814Y-95384727D01*
X143486024Y-95196132D01*
X143505341Y-95000000D01*
X143486024Y-94803868D01*
X143428814Y-94615273D01*
X143428811Y-94615269D01*
X143428811Y-94615266D01*
X143335913Y-94441467D01*
X143335909Y-94441460D01*
X143210883Y-94289116D01*
X143058539Y-94164090D01*
X143058532Y-94164086D01*
X142884733Y-94071188D01*
X142884727Y-94071186D01*
X142696132Y-94013976D01*
X142696129Y-94013975D01*
X142500000Y-93994659D01*
X142303870Y-94013975D01*
X142115266Y-94071188D01*
X141941467Y-94164086D01*
X141941460Y-94164090D01*
X141789116Y-94289116D01*
X141664090Y-94441460D01*
X141664088Y-94441464D01*
X141634648Y-94496542D01*
X141585685Y-94546386D01*
X141517547Y-94561846D01*
X141451868Y-94538014D01*
X141429153Y-94516406D01*
X141424470Y-94510658D01*
X141419599Y-94504678D01*
X140995322Y-94080403D01*
X140995314Y-94080396D01*
X140995308Y-94080391D01*
X140915222Y-94015150D01*
X140915216Y-94015146D01*
X140915215Y-94015145D01*
X140836472Y-93975599D01*
X140758430Y-93936405D01*
X140587728Y-93895947D01*
X140587723Y-93895946D01*
X140587721Y-93895946D01*
X140412279Y-93895946D01*
X140412277Y-93895946D01*
X140412271Y-93895947D01*
X140241566Y-93936406D01*
X140084784Y-94015145D01*
X140084778Y-94015149D01*
X140004689Y-94080391D01*
X140004671Y-94080407D01*
X139580410Y-94504670D01*
X139580391Y-94504691D01*
X139515150Y-94584777D01*
X139515146Y-94584783D01*
X139436405Y-94741569D01*
X139395947Y-94912271D01*
X139395946Y-94912282D01*
X139395946Y-95087717D01*
X116298976Y-95087717D01*
X116305549Y-95000004D01*
X116305549Y-94999995D01*
X116285383Y-94730898D01*
X116279115Y-94703434D01*
X116225334Y-94467805D01*
X116126743Y-94216602D01*
X115991815Y-93982898D01*
X115823561Y-93771915D01*
X115823560Y-93771914D01*
X115823557Y-93771910D01*
X115625741Y-93588365D01*
X115625737Y-93588362D01*
X115535663Y-93526950D01*
X115491363Y-93472924D01*
X115483304Y-93403521D01*
X115514047Y-93340778D01*
X115573831Y-93304616D01*
X115605517Y-93300499D01*
X115847871Y-93300499D01*
X115847872Y-93300499D01*
X115907483Y-93294091D01*
X116042331Y-93243796D01*
X116157546Y-93157546D01*
X116243796Y-93042331D01*
X116294091Y-92907483D01*
X116300500Y-92847873D01*
X116300499Y-90152128D01*
X116294091Y-90092517D01*
X116243796Y-89957669D01*
X116243795Y-89957668D01*
X116243793Y-89957664D01*
X116157547Y-89842455D01*
X116157544Y-89842452D01*
X116042335Y-89756206D01*
X116042328Y-89756202D01*
X115907482Y-89705908D01*
X115907483Y-89705908D01*
X115847883Y-89699501D01*
X115847881Y-89699500D01*
X115847873Y-89699500D01*
X115847864Y-89699500D01*
X113152129Y-89699500D01*
X113152123Y-89699501D01*
X113092516Y-89705908D01*
X112957671Y-89756202D01*
X112957664Y-89756206D01*
X112842455Y-89842452D01*
X112842452Y-89842455D01*
X112756206Y-89957664D01*
X112756202Y-89957671D01*
X112705908Y-90092517D01*
X112699501Y-90152116D01*
X112699501Y-90152123D01*
X112699500Y-90152135D01*
X112699500Y-92847870D01*
X112699501Y-92847876D01*
X112705908Y-92907483D01*
X112756202Y-93042328D01*
X112756206Y-93042335D01*
X112842452Y-93157544D01*
X112842455Y-93157547D01*
X112957664Y-93243793D01*
X112957671Y-93243797D01*
X113002618Y-93260561D01*
X113092517Y-93294091D01*
X113152127Y-93300500D01*
X113394483Y-93300499D01*
X113461521Y-93320183D01*
X113507276Y-93372987D01*
X113517220Y-93442146D01*
X113488195Y-93505701D01*
X113464334Y-93526952D01*
X113374262Y-93588362D01*
X113176442Y-93771910D01*
X113008185Y-93982898D01*
X112873258Y-94216599D01*
X112873256Y-94216603D01*
X112774666Y-94467804D01*
X112774664Y-94467811D01*
X112714616Y-94730898D01*
X112694451Y-94999995D01*
X112694451Y-95000004D01*
X108500500Y-95000004D01*
X108500500Y-89505413D01*
X108500972Y-89494606D01*
X108503632Y-89464201D01*
X108514739Y-89337242D01*
X108518490Y-89315966D01*
X108557969Y-89168627D01*
X108565362Y-89148318D01*
X108629823Y-89010081D01*
X108640629Y-88991366D01*
X108728119Y-88866417D01*
X108742007Y-88849865D01*
X108849865Y-88742007D01*
X108866417Y-88728119D01*
X108991366Y-88640629D01*
X109010081Y-88629823D01*
X109148320Y-88565361D01*
X109168627Y-88557969D01*
X109315966Y-88518490D01*
X109337242Y-88514739D01*
X109469885Y-88503134D01*
X109494606Y-88500972D01*
X109505413Y-88500500D01*
X109565892Y-88500500D01*
X136435076Y-88500500D01*
X136502115Y-88520185D01*
G37*
%TD.AperFunction*%
%TD*%
M02*
