%TF.GenerationSoftware,KiCad,Pcbnew,7.0.11-7.0.11~ubuntu22.04.1*%
%TF.CreationDate,2024-03-26T13:02:59+01:00*%
%TF.ProjectId,lasersender,6c617365-7273-4656-9e64-65722e6b6963,rev?*%
%TF.SameCoordinates,Original*%
%TF.FileFunction,Copper,L1,Top*%
%TF.FilePolarity,Positive*%
%FSLAX46Y46*%
G04 Gerber Fmt 4.6, Leading zero omitted, Abs format (unit mm)*
G04 Created by KiCad (PCBNEW 7.0.11-7.0.11~ubuntu22.04.1) date 2024-03-26 13:02:59*
%MOMM*%
%LPD*%
G01*
G04 APERTURE LIST*
G04 Aperture macros list*
%AMRoundRect*
0 Rectangle with rounded corners*
0 $1 Rounding radius*
0 $2 $3 $4 $5 $6 $7 $8 $9 X,Y pos of 4 corners*
0 Add a 4 corners polygon primitive as box body*
4,1,4,$2,$3,$4,$5,$6,$7,$8,$9,$2,$3,0*
0 Add four circle primitives for the rounded corners*
1,1,$1+$1,$2,$3*
1,1,$1+$1,$4,$5*
1,1,$1+$1,$6,$7*
1,1,$1+$1,$8,$9*
0 Add four rect primitives between the rounded corners*
20,1,$1+$1,$2,$3,$4,$5,0*
20,1,$1+$1,$4,$5,$6,$7,0*
20,1,$1+$1,$6,$7,$8,$9,0*
20,1,$1+$1,$8,$9,$2,$3,0*%
G04 Aperture macros list end*
%TA.AperFunction,SMDPad,CuDef*%
%ADD10RoundRect,0.112500X-0.237500X0.112500X-0.237500X-0.112500X0.237500X-0.112500X0.237500X0.112500X0*%
%TD*%
%TA.AperFunction,SMDPad,CuDef*%
%ADD11RoundRect,0.250000X-0.450000X0.350000X-0.450000X-0.350000X0.450000X-0.350000X0.450000X0.350000X0*%
%TD*%
%TA.AperFunction,ComponentPad*%
%ADD12RoundRect,0.250000X0.000000X-0.353553X0.353553X0.000000X0.000000X0.353553X-0.353553X0.000000X0*%
%TD*%
%TA.AperFunction,ComponentPad*%
%ADD13C,1.000000*%
%TD*%
%TA.AperFunction,ComponentPad*%
%ADD14R,2.600000X2.600000*%
%TD*%
%TA.AperFunction,ComponentPad*%
%ADD15C,2.600000*%
%TD*%
%TA.AperFunction,ViaPad*%
%ADD16C,0.600000*%
%TD*%
%TA.AperFunction,ViaPad*%
%ADD17C,1.500000*%
%TD*%
%TA.AperFunction,Conductor*%
%ADD18C,0.200000*%
%TD*%
G04 APERTURE END LIST*
D10*
%TO.P,Q1,1,D*%
%TO.N,Net-(Q1-D)*%
X123000000Y-94850000D03*
%TO.P,Q1,2,G*%
%TO.N,Net-(J1-Pin_2)*%
X123000000Y-96150000D03*
%TO.P,Q1,3,S*%
%TO.N,GND*%
X125000000Y-95500000D03*
%TD*%
D11*
%TO.P,R2,1*%
%TO.N,Net-(J1-Pin_2)*%
X124000000Y-98000000D03*
%TO.P,R2,2*%
%TO.N,GND*%
X124000000Y-100000000D03*
%TD*%
%TO.P,R1,1*%
%TO.N,+5V*%
X124000000Y-91000000D03*
%TO.P,R1,2*%
%TO.N,Net-(LD1-Pad2)*%
X124000000Y-93000000D03*
%TD*%
D12*
%TO.P,LD1,1*%
%TO.N,Net-(Q1-D)*%
X140500000Y-95000000D03*
D13*
%TO.P,LD1,2*%
%TO.N,Net-(LD1-Pad2)*%
X141500000Y-96000000D03*
%TO.P,LD1,3*%
X142500000Y-95000000D03*
%TD*%
D14*
%TO.P,J1,1,Pin_1*%
%TO.N,+5V*%
X114500000Y-91500000D03*
D15*
%TO.P,J1,2,Pin_2*%
%TO.N,Net-(J1-Pin_2)*%
X114500000Y-95000000D03*
%TO.P,J1,3,Pin_3*%
%TO.N,GND*%
X114500000Y-98500000D03*
%TD*%
D16*
%TO.N,GND*%
X135500000Y-94000000D03*
X121000000Y-93500000D03*
D17*
%TO.N,*%
X145000000Y-89500000D03*
X137500000Y-89500000D03*
X145000000Y-100500000D03*
X137500000Y-100500000D03*
%TD*%
D18*
%TO.N,Net-(J1-Pin_2)*%
X124000000Y-98000000D02*
X124000000Y-97150000D01*
X124000000Y-97150000D02*
X123000000Y-96150000D01*
%TO.N,Net-(LD1-Pad2)*%
X124000000Y-93000000D02*
X140500000Y-93000000D01*
X140500000Y-93000000D02*
X142500000Y-95000000D01*
%TO.N,+5V*%
X124000000Y-91000000D02*
X115000000Y-91000000D01*
X115000000Y-91000000D02*
X114500000Y-91500000D01*
%TO.N,Net-(J1-Pin_2)*%
X123000000Y-96150000D02*
X115650000Y-96150000D01*
X115650000Y-96150000D02*
X114500000Y-95000000D01*
%TO.N,Net-(Q1-D)*%
X140500000Y-95000000D02*
X140350000Y-94850000D01*
X140350000Y-94850000D02*
X123000000Y-94850000D01*
%TO.N,Net-(LD1-Pad2)*%
X142500000Y-95000000D02*
X141500000Y-96000000D01*
%TO.N,+5V*%
X115500000Y-90500000D02*
X114500000Y-91500000D01*
%TD*%
%TA.AperFunction,Conductor*%
%TO.N,GND*%
G36*
X122821131Y-91620185D02*
G01*
X122859636Y-91664271D01*
X122861395Y-91663187D01*
X122865185Y-91669331D01*
X122865186Y-91669334D01*
X122957288Y-91818656D01*
X122957289Y-91818657D01*
X123050951Y-91912319D01*
X123084436Y-91973642D01*
X123079452Y-92043334D01*
X123050951Y-92087681D01*
X122957289Y-92181342D01*
X122865187Y-92330663D01*
X122865185Y-92330668D01*
X122844094Y-92394318D01*
X122810001Y-92497203D01*
X122810001Y-92497204D01*
X122810000Y-92497204D01*
X122799500Y-92599983D01*
X122799500Y-93400001D01*
X122799501Y-93400019D01*
X122810000Y-93502796D01*
X122810001Y-93502799D01*
X122865185Y-93669331D01*
X122865187Y-93669336D01*
X122957289Y-93818657D01*
X123051451Y-93912819D01*
X123084936Y-93974142D01*
X123079952Y-94043834D01*
X123038080Y-94099767D01*
X122972616Y-94124184D01*
X122963770Y-94124500D01*
X122700606Y-94124500D01*
X122700584Y-94124501D01*
X122665847Y-94127234D01*
X122665844Y-94127235D01*
X122517113Y-94170445D01*
X122517111Y-94170445D01*
X122517111Y-94170446D01*
X122383805Y-94249282D01*
X122383796Y-94249289D01*
X122274289Y-94358796D01*
X122274282Y-94358805D01*
X122195446Y-94492111D01*
X122152234Y-94640847D01*
X122152234Y-94640849D01*
X122149500Y-94675589D01*
X122149500Y-95024393D01*
X122149501Y-95024415D01*
X122152234Y-95059152D01*
X122152234Y-95059155D01*
X122152235Y-95059156D01*
X122195445Y-95207887D01*
X122195446Y-95207888D01*
X122274282Y-95341194D01*
X122279068Y-95347364D01*
X122276994Y-95348971D01*
X122304390Y-95399142D01*
X122299406Y-95468834D01*
X122257534Y-95524767D01*
X122192070Y-95549184D01*
X122183224Y-95549500D01*
X116376876Y-95549500D01*
X116309837Y-95529815D01*
X116264082Y-95477011D01*
X116254138Y-95407853D01*
X116255985Y-95397908D01*
X116285383Y-95269103D01*
X116285383Y-95269101D01*
X116290852Y-95196129D01*
X116301116Y-95059152D01*
X116305549Y-95000004D01*
X116305549Y-94999995D01*
X116285383Y-94730898D01*
X116285383Y-94730897D01*
X116225334Y-94467805D01*
X116126743Y-94216602D01*
X115991815Y-93982898D01*
X115823561Y-93771915D01*
X115823560Y-93771914D01*
X115823557Y-93771910D01*
X115625741Y-93588365D01*
X115625737Y-93588362D01*
X115535663Y-93526950D01*
X115491363Y-93472924D01*
X115483304Y-93403521D01*
X115514047Y-93340778D01*
X115573831Y-93304616D01*
X115605517Y-93300499D01*
X115847871Y-93300499D01*
X115847872Y-93300499D01*
X115907483Y-93294091D01*
X116042331Y-93243796D01*
X116157546Y-93157546D01*
X116243796Y-93042331D01*
X116294091Y-92907483D01*
X116300500Y-92847873D01*
X116300500Y-91724500D01*
X116320185Y-91657461D01*
X116372989Y-91611706D01*
X116424500Y-91600500D01*
X122754092Y-91600500D01*
X122821131Y-91620185D01*
G37*
%TD.AperFunction*%
%TA.AperFunction,Conductor*%
G36*
X140266942Y-93620185D02*
G01*
X140287584Y-93636819D01*
X140363853Y-93713088D01*
X140397338Y-93774411D01*
X140392354Y-93844103D01*
X140350482Y-93900036D01*
X140304771Y-93921426D01*
X140241564Y-93936407D01*
X140084784Y-94015145D01*
X140084778Y-94015149D01*
X140004689Y-94080391D01*
X140004671Y-94080407D01*
X139871898Y-94213181D01*
X139810575Y-94246666D01*
X139784217Y-94249500D01*
X124858511Y-94249500D01*
X124791472Y-94229815D01*
X124745717Y-94177011D01*
X124735773Y-94107853D01*
X124764798Y-94044297D01*
X124793412Y-94019962D01*
X124918656Y-93942712D01*
X125042712Y-93818656D01*
X125134814Y-93669334D01*
X125134815Y-93669331D01*
X125138605Y-93663187D01*
X125140399Y-93664293D01*
X125179687Y-93619663D01*
X125245908Y-93600500D01*
X140199903Y-93600500D01*
X140266942Y-93620185D01*
G37*
%TD.AperFunction*%
%TA.AperFunction,Conductor*%
G36*
X136502115Y-88520185D02*
G01*
X136547870Y-88572989D01*
X136557814Y-88642147D01*
X136536651Y-88695623D01*
X136412900Y-88872357D01*
X136412898Y-88872361D01*
X136320426Y-89070668D01*
X136320422Y-89070677D01*
X136263793Y-89282020D01*
X136263793Y-89282024D01*
X136244723Y-89499997D01*
X136244723Y-89500002D01*
X136263793Y-89717975D01*
X136263793Y-89717979D01*
X136320422Y-89929322D01*
X136320424Y-89929326D01*
X136320425Y-89929330D01*
X136366661Y-90028484D01*
X136412897Y-90127638D01*
X136412898Y-90127639D01*
X136538402Y-90306877D01*
X136693123Y-90461598D01*
X136872361Y-90587102D01*
X137070670Y-90679575D01*
X137282023Y-90736207D01*
X137464926Y-90752208D01*
X137499998Y-90755277D01*
X137500000Y-90755277D01*
X137500002Y-90755277D01*
X137528254Y-90752805D01*
X137717977Y-90736207D01*
X137929330Y-90679575D01*
X138127639Y-90587102D01*
X138306877Y-90461598D01*
X138461598Y-90306877D01*
X138587102Y-90127639D01*
X138679575Y-89929330D01*
X138736207Y-89717977D01*
X138752805Y-89528254D01*
X138755277Y-89500002D01*
X138755277Y-89499997D01*
X138751569Y-89457618D01*
X138736207Y-89282023D01*
X138700381Y-89148318D01*
X138679577Y-89070677D01*
X138679576Y-89070676D01*
X138679575Y-89070670D01*
X138587102Y-88872362D01*
X138587100Y-88872359D01*
X138587099Y-88872357D01*
X138463349Y-88695623D01*
X138441022Y-88629417D01*
X138458032Y-88561650D01*
X138508980Y-88513837D01*
X138564924Y-88500500D01*
X143935076Y-88500500D01*
X144002115Y-88520185D01*
X144047870Y-88572989D01*
X144057814Y-88642147D01*
X144036651Y-88695623D01*
X143912900Y-88872357D01*
X143912898Y-88872361D01*
X143820426Y-89070668D01*
X143820422Y-89070677D01*
X143763793Y-89282020D01*
X143763793Y-89282024D01*
X143744723Y-89499997D01*
X143744723Y-89500002D01*
X143763793Y-89717975D01*
X143763793Y-89717979D01*
X143820422Y-89929322D01*
X143820424Y-89929326D01*
X143820425Y-89929330D01*
X143866661Y-90028484D01*
X143912897Y-90127638D01*
X143912898Y-90127639D01*
X144038402Y-90306877D01*
X144193123Y-90461598D01*
X144372361Y-90587102D01*
X144570670Y-90679575D01*
X144782023Y-90736207D01*
X144964926Y-90752208D01*
X144999998Y-90755277D01*
X145000000Y-90755277D01*
X145000002Y-90755277D01*
X145028254Y-90752805D01*
X145217977Y-90736207D01*
X145429330Y-90679575D01*
X145627639Y-90587102D01*
X145804379Y-90463346D01*
X145870582Y-90441020D01*
X145938349Y-90458030D01*
X145986162Y-90508977D01*
X145999500Y-90564922D01*
X145999500Y-99435077D01*
X145979815Y-99502116D01*
X145927011Y-99547871D01*
X145857853Y-99557815D01*
X145804380Y-99536653D01*
X145627639Y-99412898D01*
X145627640Y-99412898D01*
X145627638Y-99412897D01*
X145528484Y-99366661D01*
X145429330Y-99320425D01*
X145429326Y-99320424D01*
X145429322Y-99320422D01*
X145217977Y-99263793D01*
X145000002Y-99244723D01*
X144999998Y-99244723D01*
X144854682Y-99257436D01*
X144782023Y-99263793D01*
X144782020Y-99263793D01*
X144570677Y-99320422D01*
X144570668Y-99320426D01*
X144372361Y-99412898D01*
X144372357Y-99412900D01*
X144193121Y-99538402D01*
X144038402Y-99693121D01*
X143912900Y-99872357D01*
X143912898Y-99872361D01*
X143820426Y-100070668D01*
X143820422Y-100070677D01*
X143763793Y-100282020D01*
X143763793Y-100282024D01*
X143744723Y-100499997D01*
X143744723Y-100500002D01*
X143763793Y-100717975D01*
X143763793Y-100717979D01*
X143820422Y-100929322D01*
X143820424Y-100929326D01*
X143820425Y-100929330D01*
X143857405Y-101008633D01*
X143912897Y-101127638D01*
X143928653Y-101150140D01*
X144036653Y-101304379D01*
X144058979Y-101370582D01*
X144041969Y-101438350D01*
X143991021Y-101486163D01*
X143935077Y-101499500D01*
X138564923Y-101499500D01*
X138497884Y-101479815D01*
X138452129Y-101427011D01*
X138442185Y-101357853D01*
X138463346Y-101304380D01*
X138587102Y-101127639D01*
X138679575Y-100929330D01*
X138736207Y-100717977D01*
X138755277Y-100500000D01*
X138754803Y-100494586D01*
X138746526Y-100399973D01*
X138736207Y-100282023D01*
X138679575Y-100070670D01*
X138587102Y-99872362D01*
X138587100Y-99872359D01*
X138587099Y-99872357D01*
X138461599Y-99693124D01*
X138461596Y-99693121D01*
X138306877Y-99538402D01*
X138127639Y-99412898D01*
X138127640Y-99412898D01*
X138127638Y-99412897D01*
X138028484Y-99366661D01*
X137929330Y-99320425D01*
X137929326Y-99320424D01*
X137929322Y-99320422D01*
X137717977Y-99263793D01*
X137500002Y-99244723D01*
X137499998Y-99244723D01*
X137354682Y-99257436D01*
X137282023Y-99263793D01*
X137282020Y-99263793D01*
X137070677Y-99320422D01*
X137070668Y-99320426D01*
X136872361Y-99412898D01*
X136872357Y-99412900D01*
X136693121Y-99538402D01*
X136538402Y-99693121D01*
X136412900Y-99872357D01*
X136412898Y-99872361D01*
X136320426Y-100070668D01*
X136320422Y-100070677D01*
X136263793Y-100282020D01*
X136263793Y-100282024D01*
X136244723Y-100499997D01*
X136244723Y-100500002D01*
X136263793Y-100717975D01*
X136263793Y-100717979D01*
X136320422Y-100929322D01*
X136320424Y-100929326D01*
X136320425Y-100929330D01*
X136357405Y-101008633D01*
X136412897Y-101127638D01*
X136428653Y-101150140D01*
X136536653Y-101304379D01*
X136558979Y-101370582D01*
X136541969Y-101438350D01*
X136491021Y-101486163D01*
X136435077Y-101499500D01*
X109505413Y-101499500D01*
X109494605Y-101499028D01*
X109337246Y-101485260D01*
X109315961Y-101481507D01*
X109168630Y-101442030D01*
X109148318Y-101434637D01*
X109010084Y-101370177D01*
X108991366Y-101359370D01*
X108866417Y-101271880D01*
X108849859Y-101257986D01*
X108742013Y-101150140D01*
X108728119Y-101133582D01*
X108640629Y-101008633D01*
X108629822Y-100989915D01*
X108565362Y-100851681D01*
X108557969Y-100831369D01*
X108549882Y-100801188D01*
X108518491Y-100684035D01*
X108514739Y-100662752D01*
X108500972Y-100505393D01*
X108500500Y-100494586D01*
X108500500Y-95000004D01*
X112694451Y-95000004D01*
X112714616Y-95269101D01*
X112774664Y-95532188D01*
X112774666Y-95532195D01*
X112873256Y-95783396D01*
X112873258Y-95783400D01*
X112901770Y-95832784D01*
X113008185Y-96017102D01*
X113115176Y-96151264D01*
X113176442Y-96228089D01*
X113363183Y-96401358D01*
X113374259Y-96411635D01*
X113597226Y-96563651D01*
X113597231Y-96563653D01*
X113597232Y-96563654D01*
X113597233Y-96563655D01*
X113709030Y-96617493D01*
X113752770Y-96638557D01*
X113804630Y-96685379D01*
X113822943Y-96752806D01*
X113801895Y-96819430D01*
X113752771Y-96861997D01*
X113597480Y-96936781D01*
X113597476Y-96936783D01*
X113414848Y-97061296D01*
X114252465Y-97898913D01*
X114184371Y-97925874D01*
X114051508Y-98022405D01*
X113946825Y-98148945D01*
X113898368Y-98251921D01*
X113062295Y-97415848D01*
X113008600Y-97483180D01*
X112873709Y-97716818D01*
X112775148Y-97967947D01*
X112775142Y-97967966D01*
X112715113Y-98230971D01*
X112715113Y-98230973D01*
X112694953Y-98499995D01*
X112694953Y-98500004D01*
X112715113Y-98769026D01*
X112715113Y-98769028D01*
X112775142Y-99032033D01*
X112775148Y-99032052D01*
X112873709Y-99283181D01*
X112873708Y-99283181D01*
X113008602Y-99516822D01*
X113062294Y-99584151D01*
X113062295Y-99584151D01*
X113897452Y-98748993D01*
X113907188Y-98778956D01*
X113995186Y-98917619D01*
X114114903Y-99030040D01*
X114249510Y-99104041D01*
X113414848Y-99938702D01*
X113597483Y-100063220D01*
X113597485Y-100063221D01*
X113840539Y-100180269D01*
X113840537Y-100180269D01*
X114098337Y-100259790D01*
X114098343Y-100259792D01*
X114365101Y-100299999D01*
X114365110Y-100300000D01*
X114634890Y-100300000D01*
X114634898Y-100299999D01*
X114901656Y-100259792D01*
X114901662Y-100259790D01*
X114933400Y-100250000D01*
X122800001Y-100250000D01*
X122800001Y-100399986D01*
X122810494Y-100502697D01*
X122865641Y-100669119D01*
X122865643Y-100669124D01*
X122957684Y-100818345D01*
X123081654Y-100942315D01*
X123230875Y-101034356D01*
X123230880Y-101034358D01*
X123397302Y-101089505D01*
X123397309Y-101089506D01*
X123500019Y-101099999D01*
X123749999Y-101099999D01*
X123750000Y-101099998D01*
X123750000Y-100250000D01*
X124250000Y-100250000D01*
X124250000Y-101099999D01*
X124499972Y-101099999D01*
X124499986Y-101099998D01*
X124602697Y-101089505D01*
X124769119Y-101034358D01*
X124769124Y-101034356D01*
X124918345Y-100942315D01*
X125042315Y-100818345D01*
X125134356Y-100669124D01*
X125134358Y-100669119D01*
X125189505Y-100502697D01*
X125189506Y-100502690D01*
X125199999Y-100399986D01*
X125200000Y-100399973D01*
X125200000Y-100250000D01*
X124250000Y-100250000D01*
X123750000Y-100250000D01*
X122800001Y-100250000D01*
X114933400Y-100250000D01*
X115159461Y-100180269D01*
X115402521Y-100063218D01*
X115585150Y-99938702D01*
X114747534Y-99101086D01*
X114815629Y-99074126D01*
X114948492Y-98977595D01*
X115053175Y-98851055D01*
X115101631Y-98748079D01*
X115937703Y-99584151D01*
X115937704Y-99584150D01*
X115991393Y-99516828D01*
X115991400Y-99516817D01*
X116126290Y-99283181D01*
X116224851Y-99032052D01*
X116224857Y-99032033D01*
X116284886Y-98769028D01*
X116284886Y-98769026D01*
X116305047Y-98500004D01*
X116305047Y-98499995D01*
X116284886Y-98230973D01*
X116284886Y-98230971D01*
X116224857Y-97967966D01*
X116224851Y-97967947D01*
X116126290Y-97716818D01*
X116126291Y-97716818D01*
X115991397Y-97483177D01*
X115937704Y-97415847D01*
X115102546Y-98251004D01*
X115092812Y-98221044D01*
X115004814Y-98082381D01*
X114885097Y-97969960D01*
X114750489Y-97895958D01*
X115585150Y-97061296D01*
X115444399Y-96965334D01*
X115400097Y-96911305D01*
X115392038Y-96841901D01*
X115422781Y-96779159D01*
X115482565Y-96742997D01*
X115530435Y-96739941D01*
X115600097Y-96749112D01*
X115649999Y-96755682D01*
X115650000Y-96755682D01*
X115681302Y-96751560D01*
X115697487Y-96750500D01*
X122349516Y-96750500D01*
X122412637Y-96767768D01*
X122517113Y-96829555D01*
X122665844Y-96872765D01*
X122700595Y-96875500D01*
X122824901Y-96875499D01*
X122891941Y-96895183D01*
X122912583Y-96911818D01*
X122982017Y-96981252D01*
X123015502Y-97042575D01*
X123010518Y-97112267D01*
X122982019Y-97156613D01*
X122957289Y-97181343D01*
X122865187Y-97330663D01*
X122865186Y-97330666D01*
X122810001Y-97497203D01*
X122810001Y-97497204D01*
X122810000Y-97497204D01*
X122799500Y-97599983D01*
X122799500Y-98400001D01*
X122799501Y-98400019D01*
X122810000Y-98502796D01*
X122810001Y-98502799D01*
X122849755Y-98622766D01*
X122865186Y-98669334D01*
X122926677Y-98769028D01*
X122957289Y-98818657D01*
X123051304Y-98912672D01*
X123084789Y-98973995D01*
X123079805Y-99043687D01*
X123051305Y-99088034D01*
X122957682Y-99181657D01*
X122865643Y-99330875D01*
X122865641Y-99330880D01*
X122810494Y-99497302D01*
X122810493Y-99497309D01*
X122800000Y-99600013D01*
X122800000Y-99750000D01*
X125199999Y-99750000D01*
X125199999Y-99600028D01*
X125199998Y-99600013D01*
X125189505Y-99497302D01*
X125134358Y-99330880D01*
X125134356Y-99330875D01*
X125042315Y-99181654D01*
X124948695Y-99088034D01*
X124915210Y-99026711D01*
X124920194Y-98957019D01*
X124948691Y-98912676D01*
X125042712Y-98818656D01*
X125134814Y-98669334D01*
X125189999Y-98502797D01*
X125200500Y-98400009D01*
X125200499Y-97599992D01*
X125189999Y-97497203D01*
X125134814Y-97330666D01*
X125042712Y-97181344D01*
X124918656Y-97057288D01*
X124769334Y-96965186D01*
X124602797Y-96910001D01*
X124602795Y-96910000D01*
X124596371Y-96907872D01*
X124597301Y-96905064D01*
X124547345Y-96878001D01*
X124527347Y-96852027D01*
X124524536Y-96847158D01*
X124515907Y-96835914D01*
X124515902Y-96835908D01*
X124511027Y-96829555D01*
X124428282Y-96721718D01*
X124414162Y-96710883D01*
X124403228Y-96702493D01*
X124391034Y-96691799D01*
X123886818Y-96187583D01*
X123853333Y-96126260D01*
X123850499Y-96099902D01*
X123850499Y-95975606D01*
X123850498Y-95975584D01*
X123847765Y-95940847D01*
X123847765Y-95940844D01*
X123804555Y-95792113D01*
X123764865Y-95725001D01*
X124157358Y-95725001D01*
X124195906Y-95857681D01*
X124195907Y-95857684D01*
X124274682Y-95990885D01*
X124274688Y-95990894D01*
X124384105Y-96100311D01*
X124384114Y-96100317D01*
X124517315Y-96179092D01*
X124517318Y-96179093D01*
X124665915Y-96222265D01*
X124665927Y-96222267D01*
X124700646Y-96224999D01*
X124774999Y-96224998D01*
X124775000Y-96224998D01*
X124775000Y-95725000D01*
X125225000Y-95725000D01*
X125225000Y-96224999D01*
X125299342Y-96224999D01*
X125299363Y-96224998D01*
X125334078Y-96222266D01*
X125482681Y-96179093D01*
X125482684Y-96179092D01*
X125615885Y-96100317D01*
X125615894Y-96100311D01*
X125725311Y-95990894D01*
X125725317Y-95990885D01*
X125804092Y-95857684D01*
X125804093Y-95857681D01*
X125842641Y-95725001D01*
X125842640Y-95725000D01*
X125225000Y-95725000D01*
X124775000Y-95725000D01*
X124157360Y-95725000D01*
X124157358Y-95725001D01*
X123764865Y-95725001D01*
X123725715Y-95658802D01*
X123725713Y-95658800D01*
X123720932Y-95652636D01*
X123723005Y-95651028D01*
X123695610Y-95600858D01*
X123700594Y-95531166D01*
X123742466Y-95475233D01*
X123807930Y-95450816D01*
X123816776Y-95450500D01*
X139484965Y-95450500D01*
X139552004Y-95470185D01*
X139577897Y-95493321D01*
X139578282Y-95492975D01*
X139580395Y-95495315D01*
X139580401Y-95495322D01*
X140004678Y-95919597D01*
X140004686Y-95919603D01*
X140004691Y-95919608D01*
X140084777Y-95984849D01*
X140084780Y-95984851D01*
X140084785Y-95984855D01*
X140241567Y-96063593D01*
X140241569Y-96063594D01*
X140419306Y-96105720D01*
X140418740Y-96108104D01*
X140472347Y-96130875D01*
X140511678Y-96188623D01*
X140512337Y-96190727D01*
X140513975Y-96196129D01*
X140513976Y-96196132D01*
X140571186Y-96384727D01*
X140571188Y-96384733D01*
X140664086Y-96558532D01*
X140664090Y-96558539D01*
X140789116Y-96710883D01*
X140941459Y-96835908D01*
X140941467Y-96835913D01*
X141115266Y-96928811D01*
X141115269Y-96928811D01*
X141115273Y-96928814D01*
X141303868Y-96986024D01*
X141500000Y-97005341D01*
X141696132Y-96986024D01*
X141884727Y-96928814D01*
X142058538Y-96835910D01*
X142058539Y-96835908D01*
X142058541Y-96835908D01*
X142210883Y-96710883D01*
X142270240Y-96638557D01*
X142335910Y-96558538D01*
X142382362Y-96471632D01*
X142428811Y-96384733D01*
X142428811Y-96384732D01*
X142428814Y-96384727D01*
X142486024Y-96196132D01*
X142494887Y-96106135D01*
X142521047Y-96041350D01*
X142578081Y-96000990D01*
X142606132Y-95994887D01*
X142696132Y-95986024D01*
X142884727Y-95928814D01*
X142901951Y-95919608D01*
X143058532Y-95835913D01*
X143058538Y-95835910D01*
X143210883Y-95710883D01*
X143335910Y-95558538D01*
X143428814Y-95384727D01*
X143486024Y-95196132D01*
X143505341Y-95000000D01*
X143486024Y-94803868D01*
X143428814Y-94615273D01*
X143428811Y-94615269D01*
X143428811Y-94615266D01*
X143335913Y-94441467D01*
X143335909Y-94441460D01*
X143210883Y-94289116D01*
X143058539Y-94164090D01*
X143058532Y-94164086D01*
X142884733Y-94071188D01*
X142884727Y-94071186D01*
X142696132Y-94013976D01*
X142696129Y-94013975D01*
X142500000Y-93994659D01*
X142499999Y-93994659D01*
X142416252Y-94002906D01*
X142347606Y-93989886D01*
X142316419Y-93967184D01*
X140958199Y-92608964D01*
X140947504Y-92596769D01*
X140928283Y-92571719D01*
X140831173Y-92497204D01*
X140802841Y-92475464D01*
X140656762Y-92414956D01*
X140656760Y-92414955D01*
X140539361Y-92399500D01*
X140500000Y-92394318D01*
X140468697Y-92398439D01*
X140452513Y-92399500D01*
X125245908Y-92399500D01*
X125178869Y-92379815D01*
X125140363Y-92335728D01*
X125138605Y-92336813D01*
X125134812Y-92330663D01*
X125042712Y-92181344D01*
X124949049Y-92087681D01*
X124915564Y-92026358D01*
X124920548Y-91956666D01*
X124949049Y-91912319D01*
X125042712Y-91818656D01*
X125134814Y-91669334D01*
X125189999Y-91502797D01*
X125200500Y-91400009D01*
X125200499Y-90599992D01*
X125189999Y-90497203D01*
X125134814Y-90330666D01*
X125042712Y-90181344D01*
X124918656Y-90057288D01*
X124769334Y-89965186D01*
X124602797Y-89910001D01*
X124602795Y-89910000D01*
X124500010Y-89899500D01*
X123499998Y-89899500D01*
X123499980Y-89899501D01*
X123397203Y-89910000D01*
X123397200Y-89910001D01*
X123230668Y-89965185D01*
X123230663Y-89965187D01*
X123081342Y-90057289D01*
X122957289Y-90181342D01*
X122957288Y-90181344D01*
X122867441Y-90327011D01*
X122861395Y-90336813D01*
X122859600Y-90335706D01*
X122820313Y-90380337D01*
X122754092Y-90399500D01*
X116424499Y-90399500D01*
X116357460Y-90379815D01*
X116311705Y-90327011D01*
X116300499Y-90275500D01*
X116300499Y-90152129D01*
X116300498Y-90152123D01*
X116300497Y-90152116D01*
X116294091Y-90092517D01*
X116280951Y-90057288D01*
X116243797Y-89957671D01*
X116243793Y-89957664D01*
X116157547Y-89842455D01*
X116157544Y-89842452D01*
X116042335Y-89756206D01*
X116042328Y-89756202D01*
X115907482Y-89705908D01*
X115907483Y-89705908D01*
X115847883Y-89699501D01*
X115847881Y-89699500D01*
X115847873Y-89699500D01*
X115847864Y-89699500D01*
X113152129Y-89699500D01*
X113152123Y-89699501D01*
X113092516Y-89705908D01*
X112957671Y-89756202D01*
X112957664Y-89756206D01*
X112842455Y-89842452D01*
X112842452Y-89842455D01*
X112756206Y-89957664D01*
X112756202Y-89957671D01*
X112705908Y-90092517D01*
X112699501Y-90152116D01*
X112699501Y-90152123D01*
X112699500Y-90152135D01*
X112699500Y-92847870D01*
X112699501Y-92847876D01*
X112705908Y-92907483D01*
X112756202Y-93042328D01*
X112756206Y-93042335D01*
X112842452Y-93157544D01*
X112842455Y-93157547D01*
X112957664Y-93243793D01*
X112957671Y-93243797D01*
X113002618Y-93260561D01*
X113092517Y-93294091D01*
X113152127Y-93300500D01*
X113394483Y-93300499D01*
X113461521Y-93320183D01*
X113507276Y-93372987D01*
X113517220Y-93442146D01*
X113488195Y-93505701D01*
X113464334Y-93526952D01*
X113374262Y-93588362D01*
X113176442Y-93771910D01*
X113008185Y-93982898D01*
X112873258Y-94216599D01*
X112873256Y-94216603D01*
X112774666Y-94467804D01*
X112774664Y-94467811D01*
X112714616Y-94730898D01*
X112694451Y-94999995D01*
X112694451Y-95000004D01*
X108500500Y-95000004D01*
X108500500Y-89505413D01*
X108500972Y-89494606D01*
X108503632Y-89464201D01*
X108514739Y-89337242D01*
X108518490Y-89315966D01*
X108557969Y-89168627D01*
X108565362Y-89148318D01*
X108629823Y-89010081D01*
X108640629Y-88991366D01*
X108728119Y-88866417D01*
X108742007Y-88849865D01*
X108849865Y-88742007D01*
X108866417Y-88728119D01*
X108991366Y-88640629D01*
X109010081Y-88629823D01*
X109148320Y-88565361D01*
X109168627Y-88557969D01*
X109315966Y-88518490D01*
X109337242Y-88514739D01*
X109469885Y-88503134D01*
X109494606Y-88500972D01*
X109505413Y-88500500D01*
X109565892Y-88500500D01*
X136435076Y-88500500D01*
X136502115Y-88520185D01*
G37*
%TD.AperFunction*%
%TD*%
M02*
